<svg xmlns="http://www.w3.org/2000/svg" width="64.483" height="64.503" viewBox="0 0 64.483 64.503">
  <g id="Grupo_211" data-name="Grupo 211" transform="translate(-6217.716 -1812)">
    <path id="Caminho_719" data-name="Caminho 719" d="M883.34,0c.869.21,1.755.369,2.6.638a12.905,12.905,0,0,1,.834,24.237c-.214.09-.49.375-.493.573-.034,2.182-.02,4.365-.017,6.548a1.145,1.145,0,0,0,.052.213h6.314c.039-.135.086-.289.128-.445a2.118,2.118,0,0,1,2.156-1.658c.5-.005,1.007,0,1.511,0,1.769,0,2.285.383,2.811,2.142,1.061,0,2.145-.005,3.228,0a17.738,17.738,0,0,1,4.744.369,9.693,9.693,0,0,1,6.969,8.955c.03,7.219.012,14.439.01,21.658,0,.866-.4,1.257-1.274,1.258q-4.029.008-8.058,0c-1.064,0-1.418-.349-1.422-1.442-.009-2.371,0-4.743,0-7.114V44.726c0-1.481-.224-1.7-1.727-1.7-.693,0-1.387-.026-2.077.018a.692.692,0,0,0-.5.375,2.216,2.216,0,0,1-2.239,1.754c-.607.027-1.217.02-1.825,0-1.343-.036-1.916-.533-2.447-2.118H871.438a7.894,7.894,0,0,1-.944,1.53c-.891.892-4.064.881-4.984.012a2.209,2.209,0,0,1-.643-1.044c-.1-.474-.315-.552-.727-.538-.713.024-1.427,0-2.14.007-1.208.006-1.492.284-1.492,1.479q0,6.138,0,12.277c0,2.057,0,4.114,0,6.171,0,1.182-.36,1.537-1.532,1.538-2.581,0-5.162-.019-7.743.012a1.5,1.5,0,0,1-1.514-.767V40.811c.068-.278.14-.555.2-.834a9.666,9.666,0,0,1,9.682-7.729c1.7,0,3.391,0,5.088,0a2.514,2.514,0,0,0,.1-.273,2.13,2.13,0,0,1,2.355-1.869c.462,0,.926.03,1.384-.007a2.332,2.332,0,0,1,2.765,2.108h6.371c0-2.219-.013-4.4.012-6.574a.716.716,0,0,0-.519-.782c-4.936-2.164-7.7-5.925-8.048-11.32A12.745,12.745,0,0,1,877.969.641c.85-.268,1.733-.43,2.6-.641Zm-1.389,23.629a10.736,10.736,0,1,0-10.707-10.786,10.722,10.722,0,0,0,10.707,10.786M905.622,48.37c.677,0,1.281,0,1.885,0,.844.005,1.318.408,1.3,1.1-.013.664-.471,1.04-1.291,1.049-.621.007-1.242,0-1.863,0v2.092H912a1.443,1.443,0,0,0,.039-.221c0-3.5.054-7.006-.013-10.507a7.331,7.331,0,0,0-5.956-7.262,21.973,21.973,0,0,0-3.754-.214c-1.02-.031-2.043-.006-3.088-.006v6.42c.986,0,1.926-.005,2.867,0a3.3,3.3,0,0,1,3.523,3.553c.005,1.3,0,2.6,0,3.993m-34.346-7.589h21.366V34.438H871.276Zm-6.589.042V34.4c-.24,0-.426,0-.611,0-1.865.03-3.737-.031-5.594.112a7.268,7.268,0,0,0-6.465,6.231c-.188,1.764-.085,3.559-.109,5.34,0,.033.046.066.071.1H858.3c0-.577,0-1.119,0-1.66a3.351,3.351,0,0,1,3.7-3.7c.9,0,1.791,0,2.694,0m40.969,18.316V62.3H912V54.862h-6.323v2.082h.933c.294,0,.587,0,.881,0,.838.016,1.323.423,1.32,1.1,0,.657-.453,1.057-1.271,1.085-.606.021-1.214.005-1.882.005M851.92,55.834h6.324V48.415h-6.319v3.156h.723c.775,0,1.552-.025,2.326.011.847.04,1.284.551,1.168,1.286-.088.557-.531.892-1.248.9-.979.013-1.959,0-2.974,0ZM879.836,32.2h4.227V25.75h-4.227Zm-21.557,25.91h-6.357V62.3h6.357Zm8.713-15.191H869V32.27h-2.007Zm27.936,0h1.991V32.273h-1.991Z" transform="translate(5368 1812)" fill="#fff"/>
    <path id="Caminho_720" data-name="Caminho 720" d="M901.277,19.385a3.945,3.945,0,0,1-4.293-4.1,6.142,6.142,0,0,1,1.138-3.276,10.512,10.512,0,0,0,1.866-4c.1-.513.158-1.032.231-1.549A1.069,1.069,0,0,1,901.26,5.4a1,1,0,0,1,1.095.971,10.768,10.768,0,0,0,1.016,3.793c.369.679.8,1.322,1.206,1.982a5.718,5.718,0,0,1,.991,3.929,3.941,3.941,0,0,1-4.291,3.306m.03-8.465a35.484,35.484,0,0,0-1.812,3.162c-.893,1.99,0,3.206,2.168,3.074,1.152-.07,1.687-.573,1.722-1.717a2.575,2.575,0,0,0-.221-1.212c-.57-1.108-1.215-2.177-1.857-3.307" transform="translate(5368 1812)" fill="#fff"/>
    <path id="Caminho_721" data-name="Caminho 721" d="M878.718,12.924a2.3,2.3,0,0,1,.124-.776c.288-.533.04-.845-.336-1.167a4.047,4.047,0,0,1-.6-.639,1,1,0,0,1,.071-1.377c.336-.385,1.038-.532,1.348-.133.785,1.008,1.742.955,2.879.911a3.106,3.106,0,0,1,2.85,4.035.777.777,0,0,0,.224.925c.894.856,1.761,1.74,2.63,2.621.584.592.64,1.25.167,1.712-.492.48-1.094.42-1.709-.189-.9-.886-1.79-1.771-2.665-2.676a.676.676,0,0,0-.819-.19,3.231,3.231,0,0,1-4.162-3.057m4.271.014a1.046,1.046,0,0,0-.984-1.086,1.058,1.058,0,0,0-.055,2.116,1.04,1.04,0,0,0,1.039-1.03" transform="translate(5368 1812)" fill="#fff"/>
    <path id="Caminho_722" data-name="Caminho 722" d="M874.465,11.843a1.068,1.068,0,1,1-.045,2.135,1.068,1.068,0,0,1,.045-2.135" transform="translate(5368 1812)" fill="#fff"/>
    <path id="Caminho_723" data-name="Caminho 723" d="M876.659,17.145a1.08,1.08,0,0,1,1.052,1.1,1.04,1.04,0,0,1-1.086,1.048,1.088,1.088,0,0,1-1.072-1.083,1.143,1.143,0,0,1,1.106-1.066" transform="translate(5368 1812)" fill="#fff"/>
    <path id="Caminho_724" data-name="Caminho 724" d="M887.261,8.676a1.08,1.08,0,0,1-1.044-1.107,1.039,1.039,0,0,1,1.089-1.046,1.08,1.08,0,0,1,1.061,1.09,1.142,1.142,0,0,1-1.106,1.063" transform="translate(5368 1812)" fill="#fff"/>
    <path id="Caminho_725" data-name="Caminho 725" d="M889.5,11.844a1.068,1.068,0,0,1-.038,2.136,1.068,1.068,0,1,1,.038-2.136" transform="translate(5368 1812)" fill="#fff"/>
    <path id="Caminho_726" data-name="Caminho 726" d="M880.882,5.359A1.134,1.134,0,0,1,881.99,4.3a1.15,1.15,0,0,1,1.058,1.111,1.084,1.084,0,0,1-2.166-.054" transform="translate(5368 1812)" fill="#fff"/>
    <path id="Caminho_727" data-name="Caminho 727" d="M883.049,20.417a1.15,1.15,0,0,1-1.068,1.1,1.135,1.135,0,0,1-1.1-1.067,1.075,1.075,0,0,1,1.062-1.08,1.086,1.086,0,0,1,1.1,1.044" transform="translate(5368 1812)" fill="#fff"/>
  </g>
</svg>
