<svg xmlns="http://www.w3.org/2000/svg" width="48.959" height="48.982" viewBox="0 0 48.959 48.982">
  <g id="Grupo_212" data-name="Grupo 212" transform="translate(-6623.797 -1817.225)">
    <path id="Caminho_795" data-name="Caminho 795" d="M1302.316,29.11a1.369,1.369,0,0,0,1.4.4,1.351,1.351,0,0,0,.985-.962,1.606,1.606,0,0,0-.488-1.571q-7.257-7.265-14.484-14.558l-5.619-5.658a4.891,4.891,0,0,0-2.247-1.316l-.87-.225-1.474.042c-.191.053-.383.107-.576.157a5.065,5.065,0,0,0-2.339,1.352l-2.064,2.06q-9.088,9.072-18.17,18.153a3.43,3.43,0,0,0-.436.61q-.069.115-.141.228v.7a1.628,1.628,0,0,0,1.208,1.034,1.762,1.762,0,0,0,1.569-.752,8.974,8.974,0,0,1,.74-.8c.108-.107.218-.214.322-.324l.29-.3.761.414v4.473q0,7.257.006,14.513a7.856,7.856,0,0,0,.133,1.584,7.254,7.254,0,0,0,7.235,5.836q12.225,0,24.448,0a8.914,8.914,0,0,0,1.187-.087,7.257,7.257,0,0,0,6.184-7.178,1.4,1.4,0,0,0-1.323-1.414,1.421,1.421,0,0,0-1.5,1.34,6.106,6.106,0,0,1-.187,1.212,4.442,4.442,0,0,1-4.588,3.314q-12,0-24.008-.006a5.4,5.4,0,0,1-1.447-.181,4.423,4.423,0,0,1-3.327-4.58q0-11.052.01-22.1a1.668,1.668,0,0,1,.454-1.1q6.576-6.6,13.173-13.17l1.318-1.315a2.731,2.731,0,0,1,1.909-.892h.005a2.706,2.706,0,0,1,1.9.893l3.488,3.511q5.388,5.425,10.784,10.845a1.692,1.692,0,0,1,.53,1.281q-.01,3.563-.008,7.124l0,5.345a1.4,1.4,0,0,0,.58,1.243,1.31,1.31,0,0,0,1.461.121,1.293,1.293,0,0,0,.774-1.241q.012-3.151.006-6.3V26.606l1.459,1.506c.346.359.657.683.976,1" transform="translate(5368 1812)" fill="#fff"/>
    <path id="Caminho_796" data-name="Caminho 796" d="M1277.442,45.223a4.256,4.256,0,0,0,5.476.16,49.419,49.419,0,0,0,3.835-3.746,1.264,1.264,0,0,0,.308-1.152,1.412,1.412,0,0,0-.845-1.012,1.373,1.373,0,0,0-1.637.371c-.458.46-.907.929-1.356,1.4l-.912.948-.587-.494-.1-.341V22.047l1.064.97c.1.089.183.164.262.243l.572.57c.381.382.762.764,1.158,1.13a1.4,1.4,0,0,0,1.977-.006,1.381,1.381,0,0,0,.013-1.992c-1.077-1.1-2.3-2.347-3.574-3.5a4.286,4.286,0,0,0-5.623,0c-1.223,1.1-2.388,2.284-3.575,3.5a1.388,1.388,0,0,0-.005,1.967,1.414,1.414,0,0,0,2.005.021c.366-.334.716-.687,1.066-1.038l.56-.558a2.5,2.5,0,0,1,.244-.2l1-.787V41.436l-.771.548-.582-.657c-.2-.228-.4-.456-.609-.676-.293-.308-.592-.612-.908-.9a1.523,1.523,0,0,0-1.008-.4,1.411,1.411,0,0,0-.983,2.4c1.108,1.131,2.3,2.331,3.54,3.465" transform="translate(5368 1812)" fill="#fff"/>
  </g>
</svg>
