<svg xmlns="http://www.w3.org/2000/svg" width="63.747" height="58.805" viewBox="0 0 63.747 58.805">
  <g id="Grupo_218" data-name="Grupo 218" transform="translate(-6218.084 -2368.146)">
    <path id="Caminho_735" data-name="Caminho 735" d="M913.831,603.854c-.167.993-.256,2.007-.519,2.974-.66,2.433-1.382,4.849-2.118,7.26a1.234,1.234,0,0,1-2.357-.731c.495-1.729,1.029-3.446,1.561-5.164a22.49,22.49,0,0,0,.934-6.371c.037-2.822.015-5.644.007-8.466,0-1.116-.71-1.739-1.625-1.464a1.277,1.277,0,0,0-.864,1.36c-.008,1.494,0,2.988,0,4.482a1.156,1.156,0,0,1-.8,1.264,1.266,1.266,0,0,1-1.686-1.364c-.043-1.949-.019-3.9-.021-5.851a4,4,0,0,0-.025-.62A1.188,1.188,0,0,0,904.979,590a1.209,1.209,0,0,0-1.116,1.324c-.012.684,0,1.369,0,2.054,0,1.411.007,2.822,0,4.233-.006.907-.49,1.482-1.23,1.5-.782.023-1.287-.527-1.293-1.488-.016-2.449-.006-4.9-.007-7.346,0-.207.006-.416-.013-.622a1.224,1.224,0,1,0-2.443.063c-.013.415,0,.83,0,1.245,0,2.138,0,4.275-.005,6.412a3.49,3.49,0,0,1-.1.859,1.178,1.178,0,0,1-1.21.875,1.151,1.151,0,0,1-1.137-.89,3.6,3.6,0,0,1-.1-.922q-.009-7.687-.005-15.376c0-1.134-.442-1.744-1.241-1.723s-1.208.6-1.209,1.7q0,8.5,0,16.995a7,7,0,0,1-.05.8,1.123,1.123,0,0,1-.926,1.035,1.147,1.147,0,0,1-1.34-.538c-.311-.513-.588-1.047-.875-1.574-.693-1.273-1.371-2.555-2.079-3.819a1.327,1.327,0,0,0-1.481-.786,1.3,1.3,0,0,0-1.108,1.11,1.684,1.684,0,0,0,.046.672c.677,2.814,1.267,5.655,2.087,8.427a15.046,15.046,0,0,0,1.882,3.746c1.018,1.585,2.205,3.06,3.315,4.586a3.413,3.413,0,0,1,.389.632,1.233,1.233,0,0,1-.4,1.5,1.2,1.2,0,0,1-1.586-.128,2.7,2.7,0,0,1-.329-.371q-1.764-2.409-3.521-4.823a15.192,15.192,0,0,1-2.542-5.683c-.068-.3-.15-.472-.509-.469-2.011.015-4.023.007-6.034.007-.314.878-.582,1.744-.93,2.577a16.8,16.8,0,0,1-8.525,8.9c-.984.472-1.853.1-1.988-.864-.082-.587.22-.985.9-1.41a30.415,30.415,0,0,0,3.6-2.4,13.654,13.654,0,0,0,4.258-6.769h-8.706c0,.339.011.682,0,1.024a1.235,1.235,0,0,1-1.211,1.307,1.26,1.26,0,0,1-1.281-1.314c-.047-1.117.005-2.246-.137-3.35a6.779,6.779,0,0,0-6.326-5.672c-1.209-.037-1.623-.471-1.637-1.673-.025-1.97.027-3.946-.124-5.906a4.269,4.269,0,0,0-3.306-3.625c-.614-.142-.8-.009-.8.628.032,4.834-.012,9.67.14,14.5a22.022,22.022,0,0,0,2.655,9.491,4.408,4.408,0,0,1,.574,2.365c-.05.848,0,1.7-.014,2.552a1.241,1.241,0,0,1-1.24,1.342,1.186,1.186,0,0,1-1.228-1.338,11.028,11.028,0,0,0-1.251-5.832,24.288,24.288,0,0,1-2.117-10.014c-.032-4.42-.015-8.84-.008-13.26a2.866,2.866,0,0,1,3.726-2.9,26.039,26.039,0,0,1,2.971,1.2c0-.1.022-.313.022-.529q0-9.836,0-19.672a6.23,6.23,0,0,1,6.437-6.423q8.34,0,16.68,0a4.015,4.015,0,0,1,.621.02,1.241,1.241,0,0,1,0,2.447,4.558,4.558,0,0,1-.683.02q-8.247,0-16.494,0a3.73,3.73,0,0,0-3.872,2.687,5.033,5.033,0,0,0-.192,1.346q-.015,14.785-.007,29.57c0,.163.014.327.016.366l4.217,1.654v-.628q0-15.157,0-30.316c0-1.311.384-1.691,1.707-1.691H905.39c1.353,0,1.718.37,1.718,1.742q0,12.013-.006,24.029a1.071,1.071,0,0,0,.409.956,8,8,0,0,1,.968,1.095l2.844-.162c0-.039.018-.2.018-.365q0-13.136,0-26.27a3.729,3.729,0,0,0-2.738-3.838,5.856,5.856,0,0,0-1.476-.17q-8.215-.016-16.432-.011a2.615,2.615,0,0,1-.854-.1,1.205,1.205,0,0,1-.764-1.347,1.247,1.247,0,0,1,1.1-1.026,5.862,5.862,0,0,1,.622-.011c5.5,0,11,.046,16.493-.02a6.414,6.414,0,0,1,6.41,4.919,2.369,2.369,0,0,0,.131.329Zm-22.516-9.6v-.681c0-3.963-.009-7.926,0-11.889A3.8,3.8,0,0,1,893.9,577.9a3.733,3.733,0,0,1,4.208,1.326,4.13,4.13,0,0,1,.76,2.573c.008,1.406,0,2.812,0,4.255a3.882,3.882,0,0,1,4.561,1.77,1.511,1.511,0,0,1,.385-.138c.8-.034.82-.541.818-1.176q-.027-10.8-.011-21.6v-.733H866.071v31.064h17.346a3.791,3.791,0,0,1,3.042-3.646c2.3-.5,3.792.676,4.856,2.658M867.4,600.692h17.21c-.246-1.013-.478-1.966-.709-2.919H866.462l.942,2.919" transform="translate(5368 1812)" fill="#fff"/>
    <path id="Caminho_736" data-name="Caminho 736" d="M907.831,579.71a1.223,1.223,0,0,1,1.189-1.252,1.242,1.242,0,1,1,.021,2.483,1.225,1.225,0,0,1-1.21-1.231" transform="translate(5368 1812)" fill="#fff"/>
    <path id="Caminho_737" data-name="Caminho 737" d="M884.062,557.39a1.224,1.224,0,0,1,1.218-1.222,1.242,1.242,0,1,1,.021,2.483,1.219,1.219,0,0,1-1.239-1.261" transform="translate(5368 1812)" fill="#fff"/>
    <path id="Caminho_738" data-name="Caminho 738" d="M888.049,576.7c0,3.135,0,6.162,0,9.19,0,1.376-.4,1.775-1.773,1.775H872.525c-1.3,0-1.7-.4-1.7-1.713q-.006-4.231,0-8.464v-.783c-.36,0-.647-.005-.934,0a1.273,1.273,0,0,1-.8-2.331q1.937-1.51,3.884-3.009l5.313-4.108c.9-.7,1.31-.7,2.209-.009q4.452,3.442,8.9,6.89a4.251,4.251,0,0,1,.52.443,1.146,1.146,0,0,1,.27,1.315,1.22,1.22,0,0,1-1.089.8c-.325.022-.653,0-1.046,0m-12.421,8.453v-.743q0-3.02,0-6.038c0-1.207.454-1.661,1.64-1.662q2.085,0,4.17,0c1.286,0,1.71.418,1.713,1.708.005,2.012,0,4.025,0,6.038v.691h2.363v-.755c0-2.7-.01-5.394.007-8.092,0-.583.107-1.167.172-1.838l-6.3-4.873-6.263,4.846a15.685,15.685,0,0,1,.219,1.774c.022,2.759.01,5.519.01,8.278v.666Zm2.6-.01h2.344v-5.918h-2.344Z" transform="translate(5368 1812)" fill="#fff"/>
  </g>
</svg>
