<svg xmlns="http://www.w3.org/2000/svg" width="69.254" height="69.229" viewBox="0 0 69.254 69.229">
  <g id="Grupo_208" data-name="Grupo 208" transform="translate(-5368 -1982.731)">
    <path id="Caminho_755" data-name="Caminho 755" d="M0,235.363v-39.88a1.951,1.951,0,0,0,.13-.3A5.429,5.429,0,0,1,5.2,190.874c2.068-.109,4.145-.045,6.217-.051,1.878-.006,1.878,0,2.75-1.623a.8.8,0,0,0-.534-1.284c-.67-.19-1.338-.389-2.017-.541-.386-.086-.494-.275-.491-.654.017-1.712.023-3.425,0-5.136a.6.6,0,0,1,.54-.688c.654-.161,1.3-.35,1.949-.535.707-.2.9-.672.533-1.319-.342-.608-.709-1.2-1.026-1.822a.641.641,0,0,1,0-.571c1.367-1.4,2.76-2.773,4.167-4.174.725.415,1.425.818,2.126,1.217.735.418,1.186.221,1.415-.613.178-.649.342-1.3.546-1.944.048-.152.232-.371.356-.372,1.98-.024,3.959-.017,5.933-.017.24.858.459,1.659.688,2.457a.807.807,0,0,0,1.313.52c.722-.409,1.442-.821,2.14-1.219l4.391,4.418c-.394.692-.818,1.43-1.234,2.171a.79.79,0,0,0,.535,1.261c.819.23,1.638.458,2.49.7,0,1.968.011,3.9-.019,5.839,0,.159-.247.4-.425.455-.682.224-1.385.382-2.076.577a.8.8,0,0,0-.527,1.23c.2.374.443.733.626,1.118a.9.9,0,0,0,.945.563c2.7-.024,5.409-.011,8.113-.011h.832c-2.767-2.5-3.267-5.559-2.992-8.917H40.224v-2.259h2.22c0-.493-.016-.939,0-1.383a7.787,7.787,0,0,1,5.23-7.1,13.747,13.747,0,0,1,4.814-.41,7.668,7.668,0,0,1,7.538,5.879,26.749,26.749,0,0,1,.39,3.056h2.092v2.275H60.3c0,.8.005,1.515,0,2.233a8.444,8.444,0,0,1-2.577,6.183,2.179,2.179,0,0,0-.779,1.994,1.715,1.715,0,0,1,0,.4c-.038.368.125.5.489.561,2.28.391,4.551.84,6.834,1.214a5.8,5.8,0,0,1,4.987,5.928c-.089,5.451-.027,10.9-.027,16.357v.83H60.354v4.443c1.2,0,2.348-.028,3.494.005a5.569,5.569,0,0,1,5.08,7.411,5.721,5.721,0,0,1-5.734,3.772q-14.333,0-28.664,0a20.779,20.779,0,0,1-4.579-.092,21.689,21.689,0,0,1-4.075-1.913,2.5,2.5,0,0,0-1.022-.247c-3.583-.017-7.166-.011-10.749-.009-.218,0-.435.021-.719.036v8.887H4.6a5.844,5.844,0,0,1-3.31-2.044A21.468,21.468,0,0,1,0,235.363m45.635-42.107c0-.063-.011-.125-.017-.188h-.663c-12.954,0-25.907.018-38.86-.017a3.6,3.6,0,0,0-3.854,3.837c.062,10.721.027,21.443.027,32.164v.743A7.5,7.5,0,0,1,7.01,228.76q6.42,0,12.84,0c.23,0,.46-.02.873-.04l-1.986-1.033c.292-.161.482-.274.68-.373,3.218-1.608,6.429-3.228,9.662-4.8a3.957,3.957,0,0,1,1.66-.394q13.212-.036,26.425-.017h.808v-4.472H33.488v-.856q0-4.359,0-8.717c0-2.725-.044-5.452.035-8.175a5.411,5.411,0,0,1,4.469-5.205c1.453-.29,2.915-.538,4.373-.807q1.636-.3,3.27-.609m-2.79,2.815c-1.379.258-2.658.5-3.94.736-2.18.4-3.163,1.548-3.165,3.746q-.006,7.029,0,14.059v.708h4.456V204.271h2.256v11.052H60.308V204.274h2.258V215.32h4.349a2,2,0,0,0,.038-.247c0-5.024.013-10.048-.01-15.073a3.2,3.2,0,0,0-2.676-3.123c-1.274-.27-2.563-.472-3.844-.713-.4-.075-.593.013-.695.465-.368,1.62-.792,3.227-1.2,4.838-.3,1.186-.6,2.372-.924,3.631-1.946-1.558-3.819-3.037-5.664-4.55-.415-.34-.676-.4-1.13-.025-1.731,1.44-3.506,2.827-5.268,4.231a4.724,4.724,0,0,1-.451.281c-.756-3.013-1.492-5.949-2.248-8.964M31.3,230.978H55.778v-6.556H31.3Zm1.96-40.179a10.635,10.635,0,0,0-.622-1.085,1.3,1.3,0,0,1-.075-1.7,3.646,3.646,0,0,0,.509-1.241c.112-.5.4-.662.862-.779,1.774-.452,1.727-.469,1.79-2.291.026-.752-.2-1.12-.937-1.2a1.891,1.891,0,0,1-1.965-1.7,1.812,1.812,0,0,0-.369-.788.948.948,0,0,1,.05-1.219c.325-.506.6-1.043.953-1.659-.352-.312-.711-.589-1.017-.915s-.558-.7-.808-1.024a15.586,15.586,0,0,0-1.487.86,1.318,1.318,0,0,1-1.7.08,5.026,5.026,0,0,0-1.305-.531.831.831,0,0,1-.689-.7c-.126-.631-.343-1.245-.531-1.9-.665,0-1.3.046-1.921-.013s-.963.134-1.027.789a2.059,2.059,0,0,1-1.857,2.142,1.754,1.754,0,0,0-.725.346.881.881,0,0,1-1.1-.038c-.527-.334-1.081-.626-1.661-.956L15.8,177.214c.309.593.651,1.172.913,1.785a1.306,1.306,0,0,1,.027.851,12.745,12.745,0,0,1-.758,1.8,1.266,1.266,0,0,1-.616.574c-.627.233-1.286.382-1.963.574,0,.749.027,1.469-.01,2.187-.022.433.142.6.548.671a6.961,6.961,0,0,1,1.423.4,1.332,1.332,0,0,1,.619.577,12.82,12.82,0,0,1,.757,1.8,1.3,1.3,0,0,1-.024.852,15.94,15.94,0,0,1-.843,1.512h7.486a7.1,7.1,0,0,1-4.464-3.08,6.5,6.5,0,0,1-.839-5.178,6.7,6.7,0,0,1,12.923-.341,6.5,6.5,0,0,1-.137,4.3,6.954,6.954,0,0,1-5.055,4.307Zm24.724-8.827H44.721c0,.9-.042,1.775.008,2.645a6.583,6.583,0,0,0,4.748,5.926,6.737,6.737,0,0,0,7.189-2.341c1.441-1.855,1.46-3.986,1.319-6.23m-37.853,2.2a4.437,4.437,0,1,0,4.438-4.489,4.444,4.444,0,0,0-4.438,4.489M11.1,231.058c-2,0-3.964-.109-5.906.031a3.22,3.22,0,0,0-2.911,3.639,3.268,3.268,0,0,0,3.341,2.959c.9.011,1.8,0,2.7,0s1.829,0,2.775,0Zm47.053-6.7v6.656c1.926,0,3.794.071,5.654-.019a3.318,3.318,0,0,0-.186-6.632c-.585-.016-1.17,0-1.755,0H58.154m-8.848-51.289c.282,2.242.555,4.408.826,6.56h2.461c.275-2.187.546-4.342.824-6.56Zm5.3,19.408a9.408,9.408,0,0,1-6.688-.052c.109.587.045,1.139.291,1.413.985,1.1,2.065,2.12,3.164,3.222.929-.935,1.779-1.864,2.711-2.7a1.694,1.694,0,0,0,.522-1.881M28.97,230.287v-5.218l-5.211,2.614,5.211,2.6m20.716-31.743c-.827-.814-1.66-1.514-2.342-2.339a1.641,1.641,0,0,0-2.236-.461c.433,1.742.873,3.507,1.34,5.383l3.238-2.583m3.363,0,3.227,2.574c.471-1.892.91-3.656,1.378-5.532-.661.13-1.2-.444-1.753.126-.908.935-1.848,1.839-2.852,2.832m-5.9-24.5a5.418,5.418,0,0,0-2.379,5.574h3.072c-.232-1.871-.46-3.695-.693-5.574m10.849,5.587c.175-2.65-.814-4.9-2.414-5.569-.231,1.847-.461,3.689-.7,5.569Z" transform="translate(5368 1812)" fill="#fff"/>
    <path id="Caminho_756" data-name="Caminho 756" d="M4.655,198.245l4.748,4.8A11.206,11.206,0,0,1,21.665,195.4a11.069,11.069,0,0,1,9.521,9.653,11.2,11.2,0,0,1-7.637,12.093l4.926,4.917H4.515v-23.72Zm24.356,8.15c-.026-.367-.023-.844-.1-1.309a8.962,8.962,0,0,0-8.6-7.536,8.847,8.847,0,0,0-8.868,6.931,1.1,1.1,0,0,0,.241.87q4.746,4.8,9.55,9.551a1.023,1.023,0,0,0,.806.226,8.831,8.831,0,0,0,6.972-8.733M22.681,219.8,6.78,203.9v15.9Z" transform="translate(5368 1812)" fill="#fff"/>
    <rect id="Retângulo_111" data-name="Retângulo 111" width="13.331" height="2.174" transform="translate(5372.509 2036.35)" fill="#fff"/>
  </g>
</svg>
