<svg xmlns="http://www.w3.org/2000/svg" width="57.832" height="57.838" viewBox="0 0 57.832 57.838">
  <g id="Grupo_215" data-name="Grupo 215" transform="translate(-6619.361 -1988.426)">
    <path id="Caminho_747" data-name="Caminho 747" d="M1253.227,208.144V177.733c0-1.055.249-1.307,1.294-1.307h42.2c1.01,0,1.273.263,1.273,1.27v26.716h.649q3.818,0,7.636,0a2.761,2.761,0,0,1,2.908,2.932q0,12.009,0,24.02a2.762,2.762,0,0,1-2.884,2.9q-6.441,0-12.883,0a2.761,2.761,0,0,1-2.885-2.9q0-8.424,0-16.849v-.777H1252.7c-1.1,0-1.341-.24-1.341-1.319q0-1.545,0-3.09c0-.893.291-1.183,1.18-1.187h.685m34.536-9.329c.334,0,.606-.007.877,0a.886.886,0,0,1,.959.936q.021,1.866,0,3.732a.867.867,0,0,1-.914.92q-1.865.024-3.731,0a.876.876,0,0,1-.941-.952q-.019-1.836,0-3.673a.894.894,0,0,1,.989-.964c.282-.008.564,0,.843,0v-1.831h-26.979v11.13h31.672c0-.2.009-.369,0-.538a2.884,2.884,0,0,1,1.616-2.921.74.74,0,0,0,.24-.561c.019-1.535.011-3.07.011-4.606v-2.5h-4.641Zm4.639,20.51q0,5.888,0,11.774c0,.974.321,1.3,1.286,1.3q6.177,0,12.356,0c.961,0,1.282-.327,1.282-1.3q0-11.746,0-23.491c0-1.015-.31-1.327-1.316-1.328h-12.3c-1,0-1.311.315-1.311,1.331q0,5.859,0,11.717m3.705-40.994h-40.969V208.11h1.82V181.447c0-1.042.253-1.29,1.311-1.29h34.684c1.076,0,1.315.245,1.315,1.345v22.881h1.839Zm-42.832,33.505h37.217v-1.817h-37.217Zm39.1-29.774h-33.507v1.8h33.507Zm-33.528,5.517h33.528v-1.794h-33.528Zm0,3.732h33.507v-1.8h-33.507Zm33.529,1.947H1258.85v1.794h33.528Zm-6.477,9.256h1.8V200.7h-1.8Z" transform="translate(5368 1812)" fill="#fff"/>
    <path id="Caminho_748" data-name="Caminho 748" d="M1264.421,223.068c-.931,0-1.783-.012-2.634.005a.957.957,0,0,1-1.033-.585,1,1,0,0,1,.321-1.148c1.79-1.78,3.569-3.57,5.358-5.349a.954.954,0,0,1,1.564-.008c1.8,1.793,3.6,3.6,5.4,5.392a.967.967,0,0,1,.291,1.1.952.952,0,0,1-1.027.593c-.852-.017-1.7-.005-2.642-.005v.641q0,3.756,0,7.513c0,.881-.3,1.173-1.191,1.175q-1.63,0-3.262,0c-.84,0-1.14-.308-1.141-1.165q0-3.728,0-7.455Zm2.852-5.018-3.167,3.154c.308,0,.672,0,1.035,0,.842.005,1.142.309,1.143,1.167q0,3.761,0,7.521v.612h1.867v-.538q0-3.848,0-7.7c0-.738.328-1.057,1.067-1.066.4-.005.793,0,1.206,0l-3.153-3.154" transform="translate(5368 1812)" fill="#fff"/>
    <path id="Caminho_749" data-name="Caminho 749" d="M1283.074,224.936c.933,0,1.785.013,2.637-.005a.953.953,0,0,1,1.03.587,1,1,0,0,1-.324,1.149c-1.789,1.78-3.568,3.57-5.358,5.35a.956.956,0,0,1-1.564,0c-1.789-1.78-3.568-3.57-5.358-5.349a1,1,0,0,1-.326-1.149.951.951,0,0,1,1.029-.588c.852.018,1.7.005,2.639.005v-.644q0-3.728,0-7.456c0-.959.275-1.228,1.253-1.229h3.087c.994,0,1.255.268,1.255,1.285q0,3.671,0,7.339Zm-5.965,1.864,3.152,3.15,3.155-3.15c-.325,0-.687,0-1.049,0-.851,0-1.155-.305-1.156-1.153q0-3.761,0-7.521v-.61h-1.867v.682q0,3.732,0,7.462c0,.818-.311,1.133-1.112,1.139-.368,0-.737,0-1.121,0" transform="translate(5368 1812)" fill="#fff"/>
    <path id="Caminho_750" data-name="Caminho 750" d="M1297.067,227.7a2.8,2.8,0,1,1,2.762,2.833,2.77,2.77,0,0,1-2.762-2.833m2.8.961a.926.926,0,1,0-.922-.942.978.978,0,0,0,.922.942" transform="translate(5368 1812)" fill="#fff"/>
    <path id="Caminho_751" data-name="Caminho 751" d="M1298.8,211.718l-1.449-1.437c.635-.642,1.243-1.294,1.893-1.9a.858.858,0,0,1,1.259.018c.636.6,1.237,1.227,1.878,1.869l-1.414,1.273-1.053-1.357-1.114,1.535" transform="translate(5368 1812)" fill="#fff"/>
    <path id="Caminho_752" data-name="Caminho 752" d="M1298.748,213.988l1.037,1.325c.459-.538.808-.946,1.19-1.392l1.266,1.433c-.567.6-1.185,1.316-1.871,1.957a.792.792,0,0,1-1.117-.069c-.644-.615-1.257-1.261-1.9-1.911l1.4-1.343" transform="translate(5368 1812)" fill="#fff"/>
    <rect id="Retângulo_100" data-name="Retângulo 100" width="1.785" height="1.813" transform="translate(6663.247 2033.226)" fill="#fff"/>
    <rect id="Retângulo_101" data-name="Retângulo 101" width="1.792" height="1.797" transform="translate(6666.977 2033.243)" fill="#fff"/>
    <rect id="Retângulo_102" data-name="Retângulo 102" width="1.803" height="1.793" transform="translate(6670.69 2033.245)" fill="#fff"/>
  </g>
</svg>
