<svg xmlns="http://www.w3.org/2000/svg" width="55.034" height="45.344" viewBox="0 0 55.034 45.344">
  <g id="Grupo_210" data-name="Grupo 210" transform="translate(-5813.526 -1819.867)">
    <path id="Caminho_739" data-name="Caminho 739" d="M500.56,36.875a2.732,2.732,0,0,1-1.579,1.847,14.483,14.483,0,0,1-1.969.388c0,.511.04,1.115-.011,1.713a9.679,9.679,0,0,1-.31,1.888c-.355,1.215-.782,2.41-1.185,3.611a9.721,9.721,0,0,1-9.384,6.862q-13.085.054-26.169,0a9.675,9.675,0,0,1-9.28-6.627c-.488-1.36-.941-2.734-1.369-4.114a5.9,5.9,0,0,1-.218-1.421c-.036-.656-.009-1.316-.009-1.982-.478-.041-.9-.052-1.324-.117a2.6,2.6,0,0,1-2.221-2.568q-.012-3.6,0-7.2a2.612,2.612,0,0,1,2.535-2.606c.339-.011.679,0,1.053,0,.043-.125.084-.236.121-.349a4.4,4.4,0,0,1,4.329-3.207c1.665-.024,3.331-.006,5-.006,11.106,0,22.211.037,33.316-.026,2.8-.015,4.474,1.379,5.09,3.583.273,0,.558,0,.843,0a2.63,2.63,0,0,1,2.638,1.881,1.01,1.01,0,0,0,.106.174ZM452.436,46.09a6.068,6.068,0,0,0,.208.575,7.649,7.649,0,0,0,7.123,4.693q13.271.118,26.545,0a7.636,7.636,0,0,0,6.888-4.209c.177-.314.295-.661.475-1.071h-2.862V44.289h3.477c.194-.6.37-1.148.549-1.706h-43.6l.584,1.737H489v1.77ZM461.6,28.362v-.027c-1.594,0-3.189-.026-4.782.008a2.374,2.374,0,0,0-.987,4.545,4.357,4.357,0,0,1,2.506,2.894,1.852,1.852,0,0,0,1.532,1.342,1.368,1.368,0,0,0,.263.05c2.183-.022,4.376.067,6.547-.1a4.279,4.279,0,0,0,3.682-4.6,4.346,4.346,0,0,0-4.034-4.09c-1.573-.067-3.151-.013-4.727-.013M484.609,37.1c0,.03,0,.06,0,.09q2.256,0,4.513,0a2.488,2.488,0,0,0,1.885-.761,2.373,2.373,0,0,0-.8-3.842,4.349,4.349,0,0,1-2.422-2.772,1.9,1.9,0,0,0-2-1.472c-2.006-.023-4.014-.043-6.017.032a4.339,4.339,0,0,0-4.037,4.086,4.293,4.293,0,0,0,3.677,4.609c1.721.153,3.467.031,5.2.031m-9.818,3.629c0-1.477.012-2.906-.009-4.334a2.172,2.172,0,0,0-.21-.86,5.671,5.671,0,0,1-.286-4.777,7.651,7.651,0,0,0,.507-3.227c-.009-.77,0-1.54,0-2.309a3.517,3.517,0,0,0-.047-.4H471.3c0,1.465-.011,2.895.009,4.324a2.012,2.012,0,0,0,.2.81,5.611,5.611,0,0,1,.3,4.775,7.783,7.783,0,0,0-.507,3.281c0,.77,0,1.539,0,2.309a3.866,3.866,0,0,0,.046.413Zm17.848-15.882a.717.717,0,0,0-.038.15c0,2.329-.008,4.657,0,6.986a1.029,1.029,0,0,0,.171.488,4.106,4.106,0,0,1,0,4.6.761.761,0,0,0-.161.328c-.012,1.1-.008,2.206-.008,3.307h2.606v-.616q0-4.031,0-8.06c0-1.594.018-3.189-.013-4.782a2.47,2.47,0,0,0-2.554-2.4m-39.147-.021a2.521,2.521,0,0,0-2.6,2.515c-.017,4.371-.008,8.741-.007,13.112a2.085,2.085,0,0,0,.031.26h2.534a.943.943,0,0,0,.039-.178c0-2.329.008-4.658,0-6.986a1.133,1.133,0,0,0-.184-.538,4.121,4.121,0,0,1,0-4.561.966.966,0,0,0,.186-.427c.016-1.054.008-2.108.008-3.2M449.035,37.19V28.333c-.29,0-.539-.013-.787,0a.844.844,0,0,0-.912.952q-.01,3.464,0,6.928a.878.878,0,0,0,.962.972c.231.011.463,0,.737,0m48,0c.319,0,.587.02.851,0a.844.844,0,0,0,.863-.9q.014-3.544,0-7.088a.784.784,0,0,0-.792-.841c-.3-.028-.6,0-.921,0Zm-9.79-12.371c0,.6-.015,1.169.011,1.736a.5.5,0,0,0,.237.356,4.026,4.026,0,0,1,2.109,2.635,1.849,1.849,0,0,0,1.143,1.262V24.815Zm-28.4,15.912c0-.626.013-1.2-.011-1.765a.5.5,0,0,0-.227-.361,4.056,4.056,0,0,1-2.134-2.68,1.7,1.7,0,0,0-1.122-1.2v6.007Zm10.628-13.116v-2.8H466v1.729a6.335,6.335,0,0,1,3.476,1.068m7.157-2.8v2.8a6.323,6.323,0,0,1,3.485-1.09V24.815Zm.009,13.267v2.633h3.479V39.164l-3.479-1.082m-7.158,0-3.5,1.079v1.548h3.5ZM458.794,26.542V24.823h-3.445V26.7c.586-.056,1.131-.13,1.679-.155.571-.026,1.144-.006,1.766-.006M487.273,39.06v1.649h3.493v-1.87l-3.493.221M460.677,26.5H464.1V24.815h-3.423Zm21.313.01h3.425v-1.7H481.99ZM464.114,39.028h-3.442v1.688h3.442Zm17.873,1.677H485.4V39.02h-3.418Z" transform="translate(5368 1812)" fill="#fff"/>
    <path id="Caminho_740" data-name="Caminho 740" d="M480.374,7.9h1.542a2.364,2.364,0,0,1-.7,1.812,12.258,12.258,0,0,1-1.288,1.044c-.3.226-.632.407-.932.632-.831.62-.831,1.285.006,1.908.329.246.694.444,1.026.686a8.811,8.811,0,0,1,1.091.864,2.633,2.633,0,0,1-.037,3.878c-.553.524-1.247.895-1.846,1.374a14.747,14.747,0,0,0-1.1,1.089h-1.531a2.36,2.36,0,0,1,.82-1.924c.5-.451,1.084-.813,1.632-1.213.087-.064.179-.119.268-.18,1.087-.752,1.088-1.444,0-2.193-.5-.345-1.025-.658-1.5-1.033a2.738,2.738,0,0,1-.063-4.567c.48-.4,1.05-.684,1.537-1.074a13.041,13.041,0,0,0,1.078-1.1" transform="translate(5368 1812)" fill="#fff"/>
    <path id="Caminho_741" data-name="Caminho 741" d="M464.159,21.216a2.517,2.517,0,0,1,.823-1.932c.495-.434,1.051-.8,1.581-1.192a8.654,8.654,0,0,0,.772-.577.906.906,0,0,0-.011-1.485c-.521-.432-1.111-.78-1.663-1.175a3.234,3.234,0,0,1-1.415-1.826,2.748,2.748,0,0,1,1.151-3.01c.508-.393,1.084-.7,1.587-1.1a9.285,9.285,0,0,0,.938-1.019h1.556a2.292,2.292,0,0,1-.788,1.915,14.19,14.19,0,0,1-1.671,1.249c-1.425.95-1.43,1.578-.022,2.527a12.223,12.223,0,0,1,1.71,1.285,2.6,2.6,0,0,1,0,3.792c-.534.517-1.211.882-1.789,1.357a12.035,12.035,0,0,0-.946.981c-.076.079-.168.2-.257.2-.513.019-1.027.009-1.557.009" transform="translate(5368 1812)" fill="#fff"/>
    <path id="Caminho_742" data-name="Caminho 742" d="M470.377,21.215a2.473,2.473,0,0,1,.84-1.954c.507-.447,1.085-.813,1.633-1.213.173-.126.36-.236.526-.372.737-.6.743-1.225-.017-1.811-.481-.371-1.017-.669-1.51-1.024a2.872,2.872,0,0,1-1.384-3.218A2.974,2.974,0,0,1,471.635,10c.471-.353,1-.633,1.458-1a12.577,12.577,0,0,0,1.057-1.1h1.557a2.353,2.353,0,0,1-.675,1.776,12.615,12.615,0,0,1-1.326,1.083c-.341.259-.726.462-1.056.733a.98.98,0,0,0,.019,1.708c.335.266.719.47,1.065.723a9.755,9.755,0,0,1,1.177.929,2.633,2.633,0,0,1-.011,3.841c-.521.5-1.188.854-1.751,1.32a11.766,11.766,0,0,0-.967,1.026c-.065.068-.149.164-.227.166-.514.015-1.029.008-1.578.008" transform="translate(5368 1812)" fill="#fff"/>
    <path id="Caminho_743" data-name="Caminho 743" d="M463.257,7.871a2.4,2.4,0,0,1-.778,1.951,10.924,10.924,0,0,1-1.178.925c-.332.243-.7.439-1.021.693a1,1,0,0,0-.01,1.775c.321.255.688.451,1.016.7a10.275,10.275,0,0,1,1.251,1.006,2.6,2.6,0,0,1-.017,3.719c-.543.531-1.235.907-1.825,1.4a12.143,12.143,0,0,0-.932.989c-.076.08-.181.182-.277.185-.5.019-.993.009-1.511.009a2.293,2.293,0,0,1,.741-1.877,19.086,19.086,0,0,1,1.527-1.175c.257-.192.541-.352.786-.559a.976.976,0,0,0-.02-1.674c-.476-.375-1.006-.682-1.5-1.032a3.226,3.226,0,0,1-1.494-1.955,2.719,2.719,0,0,1,1.076-2.846c.519-.408,1.109-.726,1.624-1.138a7.048,7.048,0,0,0,.749-.866c.082-.092.2-.208.308-.213.479-.023.96-.01,1.488-.01" transform="translate(5368 1812)" fill="#fff"/>
    <path id="Caminho_744" data-name="Caminho 744" d="M486.633,7.9H488.1a2.216,2.216,0,0,1-.75,1.892c-.539.489-1.164.884-1.752,1.319-.2.149-.42.277-.6.444a.946.946,0,0,0-.016,1.531c.346.3.759.534,1.131.811a10.781,10.781,0,0,1,1.221.958,2.632,2.632,0,0,1-.008,3.837c-.522.5-1.189.853-1.75,1.321a12.305,12.305,0,0,0-.955,1.03.5.5,0,0,1-.292.166c-.48.018-.961.008-1.473.008a2.11,2.11,0,0,1,.654-1.816,10.16,10.16,0,0,1,1.244-1.013c.3-.226.631-.407.933-.629.883-.649.886-1.324,0-1.97-.535-.389-1.111-.722-1.632-1.127a2.75,2.75,0,0,1-.061-4.6c.415-.337.9-.584,1.317-.92s.812-.755,1.322-1.237" transform="translate(5368 1812)" fill="#fff"/>
    <path id="Caminho_745" data-name="Caminho 745" d="M467.189,29.367l1.073,1.431c-.864.654-1.7,1.287-2.579,1.954l2.581,1.952c-.364.487-.7.941-1.07,1.434l-3.023-2.256-3.022,2.257-1.075-1.434,2.588-1.95L460.078,30.8l1.068-1.437,3.026,2.261,3.017-2.256" transform="translate(5368 1812)" fill="#fff"/>
    <path id="Caminho_746" data-name="Caminho 746" d="M478.9,36.141,477.827,34.7l2.587-1.953L477.827,30.8l1.074-1.432c1.011.755,2,1.492,3.02,2.256l3.022-2.256c.356.476.7.931,1.073,1.433-.864.652-1.7,1.285-2.584,1.953.864.651,1.7,1.282,2.585,1.951-.359.48-.7.933-1.07,1.434l-3.025-2.255L478.9,36.141" transform="translate(5368 1812)" fill="#fff"/>
  </g>
</svg>
