<svg xmlns="http://www.w3.org/2000/svg" width="63.326" height="51.538" viewBox="0 0 63.326 51.538">
  <g id="Grupo_209" data-name="Grupo 209" transform="translate(-5370.964 -1835.408)">
    <path id="Caminho_728" data-name="Caminho 728" d="M34.645,23.408q14.195,0,28.388,0a2.923,2.923,0,0,1,3.137,2.124,3.1,3.1,0,0,1,.111.848c0,5.874.023,11.747-.012,17.621A6.648,6.648,0,0,1,60,50.46c-.465.024-.93.038-1.4.038q-24.167,0-48.334.01a7.108,7.108,0,0,1-5.22-1.885A6.394,6.394,0,0,1,2.975,43.9q-.02-8.777,0-17.554a2.853,2.853,0,0,1,2.755-2.918c.265-.019.532-.015.8-.015H34.645M57.4,25.689H11.9a3.112,3.112,0,0,0-.045.362q0,3.589.008,7.18a2.917,2.917,0,0,0,.088.721,3.537,3.537,0,0,0,3.631,2.7q7.811.012,15.621,0c7.4,0,14.8-.05,22.2.03a3.793,3.793,0,0,0,4.021-4.055c-.1-2.055-.021-4.12-.021-6.181v-.763M9.76,25.456H6.5c-1.269,0-1.478.2-1.478,1.455q0,8.145,0,16.291a11.265,11.265,0,0,0,.072,1.259A4.593,4.593,0,0,0,9.76,48.375c0-.7,0-1.406,0-2.111a4.324,4.324,0,0,1,4.4-4.436q20.477-.013,40.953,0a4.318,4.318,0,0,1,4.38,4.385c.006.726,0,1.453,0,2.256.49-.085.907-.121,1.3-.233a4.664,4.664,0,0,0,3.437-4.853q.013-7.979,0-15.958c0-1.954-.016-1.97-1.961-1.97H59.538a2.227,2.227,0,0,0-.041.242q0,3.525-.006,7.048a5.675,5.675,0,0,1-5.993,6q-18.881,0-37.761,0A5.674,5.674,0,0,1,9.76,32.795c0-2.413,0-4.827,0-7.339M11.88,48.4H57.4c0-.637-.042-1.234.007-1.824A2.4,2.4,0,0,0,54.73,43.9c-13.4.042-26.811.024-40.216.024-.221,0-.444-.006-.664.01A2.13,2.13,0,0,0,11.9,45.718c-.074.875-.016,1.761-.016,2.681" transform="translate(5368 1812)" fill="#fff"/>
    <path id="Caminho_729" data-name="Caminho 729" d="M18.886,65.647a4.228,4.228,0,0,1-4.567-3.665A4.081,4.081,0,0,1,17.392,57.6a3.964,3.964,0,0,1,2.722.24,1.07,1.07,0,0,1,.638,1.414,1.017,1.017,0,0,1-1.446.493,2.03,2.03,0,0,0-2.922,2.064,2.111,2.111,0,0,0,2.149,1.781A4.589,4.589,0,0,0,22.4,61.5a16.351,16.351,0,0,0,2.646-6.381c.191-.83.626-1.2,1.309-1.065.635.123.915.7.737,1.523a17.262,17.262,0,0,1-3.32,7.581,6.132,6.132,0,0,1-4.889,2.492" transform="translate(5368 1812)" fill="#fff"/>
    <path id="Caminho_730" data-name="Caminho 730" d="M50.433,65.642A6.3,6.3,0,0,1,45.2,62.8a18.311,18.311,0,0,1-3.1-7.534,1.041,1.041,0,0,1,.8-1.206,1.082,1.082,0,0,1,1.286.864c.4,1.374.752,2.77,1.255,4.106a8.118,8.118,0,0,0,2.55,3.659,3.8,3.8,0,0,0,3.355.819,2.032,2.032,0,0,0,1.464-2.578,2.056,2.056,0,0,0-2.619-1.285c-.1.034-.2.087-.307.124A1.039,1.039,0,0,1,48.5,59.24a1.064,1.064,0,0,1,.585-1.38,4.109,4.109,0,0,1,5.741,2.665,4.167,4.167,0,0,1-4.4,5.117" transform="translate(5368 1812)" fill="#fff"/>
    <path id="Caminho_731" data-name="Caminho 731" d="M37.151,54.1a1.073,1.073,0,0,1,1.06,1.059A34.84,34.84,0,0,0,39.8,63a18.948,18.948,0,0,0,3.446,6.452,10.253,10.253,0,0,0,5.227,3.336c.789.213,1.155.7.985,1.3a1.142,1.142,0,0,1-1.544.731,12.72,12.72,0,0,1-7.806-6.07A28.082,28.082,0,0,1,36.5,58.291c-.158-.959-.247-1.929-.355-2.9a1.089,1.089,0,0,1,1.007-1.3" transform="translate(5368 1812)" fill="#fff"/>
    <path id="Caminho_732" data-name="Caminho 732" d="M20.958,74.946c-.687-.144-1.136-.467-1.195-1.02a.942.942,0,0,1,.73-1.115c4.254-.95,6.507-4.016,8.148-7.706a31.559,31.559,0,0,0,2.39-9.883c.076-.785.494-1.228,1.14-1.166s.979.6.914,1.365a32.466,32.466,0,0,1-2.879,11.312,14.483,14.483,0,0,1-6.376,7.073,30.308,30.308,0,0,1-2.872,1.14" transform="translate(5368 1812)" fill="#fff"/>
    <path id="Caminho_733" data-name="Caminho 733" d="M19.958,34.357c-.973,0-1.947.005-2.92,0-.741-.005-1.215-.4-1.231-1.012a1.072,1.072,0,0,1,1.18-1.075q3.018-.026,6.038,0a1.1,1.1,0,0,1,1.206,1.059,1.087,1.087,0,0,1-1.22,1.029c-1.018.008-2.035,0-3.053,0" transform="translate(5368 1812)" fill="#fff"/>
    <path id="Caminho_734" data-name="Caminho 734" d="M29.174,34.356c-.684,0-1.369.011-2.053,0a1.032,1.032,0,0,1-1.134-1.026,1.017,1.017,0,0,1,1.051-1.05q2.085-.05,4.171,0a.989.989,0,0,1,1.025,1.063,1.017,1.017,0,0,1-1.14,1.012c-.64.012-1.28,0-1.92,0" transform="translate(5368 1812)" fill="#fff"/>
  </g>
</svg>
