<svg xmlns="http://www.w3.org/2000/svg" width="59.467" height="59.443" viewBox="0 0 59.467 59.443">
  <g id="Grupo_219" data-name="Grupo 219" transform="translate(-5811.31 -2363.741)">
    <path id="Caminho_753" data-name="Caminho 753" d="M493.175,593.948v17.236H445.2V559.4H443.31v-7.66h51.738v7.627h-1.837v5.779h.616q3,0,6,0a2.835,2.835,0,0,1,2.949,2.939q0,11.46,0,22.921a2.843,2.843,0,0,1-2.951,2.939c-1.979,0-3.959,0-5.939,0Zm-46.03,15.315h7.609v-49.85h-7.609Zm27.8-15.284v13.393c0,1.227.554,1.955,1.468,1.931s1.413-.721,1.413-1.925q0-10.918,0-21.839a3.831,3.831,0,0,1,.068-.891,2.838,2.838,0,0,1,2.829-2.218q5.488-.006,10.977,0c.16,0,.321.009.48,0a1,1,0,0,0,.992-.936.979.979,0,0,0-1.012-.972c-1.1-.024-2.2-.009-3.3-.009q-8.759,0-17.515,0a4.764,4.764,0,0,0-5.013,4.589c-.091,2.637-.045,5.28-.016,7.919a1.84,1.84,0,0,0,1.927,1.84v-9.5h1.9V607.3c0,1.293.526,2.017,1.455,2s1.426-.722,1.426-2.032V593.979Zm.92-24.737v-9.81H456.732v12.813c3.3-1.836,5.738-1.741,7.837.295a5.577,5.577,0,0,1,1.684,3.3,5.758,5.758,0,0,1-1.462,4.74,1.315,1.315,0,0,0,1.819-.222,8.614,8.614,0,0,1,2.052-1.3,6.587,6.587,0,0,1,1.06-.38c-1.7-2.134-2.1-4.43-.728-6.772,1.537-2.627,3.947-3.374,6.866-2.661m11.56,15.1h-6.235c-1.158,0-1.445.29-1.445,1.454q0,10.042-.005,20.085c0,1.128-.064,2.256-.1,3.378H491.21V593.948a5.661,5.661,0,0,0-.587,0,2.979,2.979,0,0,1-3.225-3.228c.1-2.092.022-4.192.022-6.376m1.918,0c0,2.187,0,4.3,0,6.418,0,.915.353,1.262,1.275,1.263q4.469,0,8.937,0c.962,0,1.3-.339,1.3-1.3q0-11.188,0-22.377c0-.952-.344-1.289-1.309-1.29q-4.439,0-8.877,0c-1,0-1.332.329-1.332,1.327q0,4.8,0,9.6v.6c1.029,0,1.967-.005,2.9,0a2.76,2.76,0,0,1,2.73,2.094,9.965,9.965,0,0,1,.121,1.76h4.586l-4.568,7.614c-.157-.242-.267-.4-.367-.567-.957-1.591-1.9-3.187-2.878-4.768a.805.805,0,0,0-.527-.358c-.635-.044-1.275-.017-2-.017m1.894-24.92h-13.38a1.874,1.874,0,0,0-.029.216c0,3.479-.009,6.957.012,10.436a1.182,1.182,0,0,0,.337.705,5.733,5.733,0,0,1,.518,7.275c-.107.154-.205.314-.317.485h9.047v-.7c0-3.279-.005-6.558,0-9.836a2.842,2.842,0,0,1,2.842-2.864c.314,0,.628,0,.968,0Zm1.918-5.763H445.231v3.772H493.15ZM461.5,593.978v13.389c0,1.23.549,1.956,1.462,1.936s1.419-.718,1.419-1.919c0-7.039-.014-14.078.013-21.117.005-1.181.184-2.363.294-3.671-2.539-.378-5.258-.065-7.987-.182v.71q0,12.147,0,24.295c0,1.181.554,1.9,1.454,1.884s1.426-.715,1.426-1.911q0-6.39,0-12.778v-.636Zm16.315-19.231a3.836,3.836,0,1,0-3.808,3.837,3.888,3.888,0,0,0,3.808-3.837m-17.3-1.918a3.838,3.838,0,1,0,3.863,3.841,3.89,3.89,0,0,0-3.863-3.841m5.785,23.58c0,2.764.009,5.523,0,8.282-.006,1.527-.046,3.054-.07,4.578h2.136c-.049-.789-.132-1.538-.135-2.288-.015-3.16-.007-6.32-.007-9.48v-.564l-1.921-.528m28.8-10.117,1.127-1.894h-2.265c.385.642.729,1.214,1.138,1.894" transform="translate(5368 1812)" fill="#fff"/>
    <rect id="Retângulo_103" data-name="Retângulo 103" width="1.858" height="1.848" transform="translate(5817.06 2373.337)" fill="#fff"/>
    <rect id="Retângulo_104" data-name="Retângulo 104" width="1.865" height="1.837" transform="translate(5817.055 2377.193)" fill="#fff"/>
    <rect id="Retângulo_105" data-name="Retângulo 105" width="1.865" height="1.837" transform="translate(5817.047 2381.023)" fill="#fff"/>
    <rect id="Retângulo_106" data-name="Retângulo 106" width="1.867" height="7.582" transform="translate(5855.46 2407.92)" fill="#fff"/>
    <rect id="Retângulo_107" data-name="Retângulo 107" width="1.831" height="1.863" transform="translate(5855.458 2417.483)" fill="#fff"/>
    <path id="Caminho_754" data-name="Caminho 754" d="M495.1,569.014l4.571,7.62H490.53l4.568-7.62m0,3.788-1.122,1.892h2.26L495.1,572.8" transform="translate(5368 1812)" fill="#fff"/>
    <rect id="Retângulo_108" data-name="Retângulo 108" width="1.844" height="1.843" transform="translate(5847.766 2373.339)" fill="#fff"/>
    <rect id="Retângulo_109" data-name="Retângulo 109" width="1.851" height="1.862" transform="translate(5851.619 2373.34)" fill="#fff"/>
    <rect id="Retângulo_110" data-name="Retângulo 110" width="1.842" height="1.845" transform="translate(5855.463 2373.332)" fill="#fff"/>
  </g>
</svg>
