<svg xmlns="http://www.w3.org/2000/svg" width="75.555" height="75.41" viewBox="0 0 75.555 75.41">
  <g id="Grupo_216" data-name="Grupo 216" transform="translate(-7466.117 -2500.929)">
    <path id="Caminho_742" data-name="Caminho 742" d="M870.117,36.922c.37-.494.783-.9,1.476-.64s.739.814.738,1.442q-.011,18.7-.005,37.4c0,1.656.339,2,1.963,2h32.389V73.257c0-.491-.006-.982,0-1.473.014-.931.4-1.416,1.122-1.427.754-.012,1.15.482,1.162,1.461.006.491,0,.982,0,1.473v3.84h32.571c1.372,0,1.781-.417,1.781-1.814q0-18,0-36.006v-.818H908.964v.99q0,13.032,0,26.065a4.271,4.271,0,0,1-.077.947,1.1,1.1,0,0,1-2.131-.009,4.4,4.4,0,0,1-.072-.948q-.006-13.437.008-26.875a1.635,1.635,0,0,0-.6-1.384Q889.536,22.71,873.016,8.107c-.181-.159-.373-.306-.69-.565v.884q0,11.523,0,23.046c0,1.038-.6,1.616-1.411,1.326a3.405,3.405,0,0,1-.8-.589V6.582c.088-.168.178-.334.263-.5a3.485,3.485,0,0,1,3.3-2.15q34.109.006,68.216,0a3.46,3.46,0,0,1,3.439,2.27,1.666,1.666,0,0,0,.334.379V76.688c-.083.031-.228.045-.242.095a3.918,3.918,0,0,1-2.556,2.556H872.768a4.26,4.26,0,0,1-2.651-2.651Zm65.053-11.36c-.18-.3-.292-.509-.422-.7-.554-.838-1.125-1.665-1.666-2.512a1.115,1.115,0,0,1,.252-1.619,1.142,1.142,0,0,1,1.6.373c.1.136.193.283.288.426Q939,27.183,942.775,32.84c.137.2.288.4.541.753v-.882q0-12.369,0-24.737c0-1.437-.4-1.834-1.835-1.834h-16.49c.222.355.368.6.526.839,2.082,3.12,4.171,6.235,6.238,9.365a1.753,1.753,0,0,1,.411,1.117,1.4,1.4,0,0,1-.845.934,1.44,1.44,0,0,1-1.2-.551,1.634,1.634,0,0,0-1.683-.821c-3.509.034-7.018.015-10.528.015h-.824a1.868,1.868,0,0,0,.136.289c2.164,2.635,4.322,5.275,6.512,7.888a1.291,1.291,0,0,0,.888.333c2.724.025,5.448.015,8.172.015ZM908.016,6.139c2.385,2.9,4.637,5.647,6.919,8.372a1.194,1.194,0,0,0,.828.3c3.875.019,7.751.014,11.626.011.179,0,.359-.03.6-.052-.175-.278-.3-.485-.434-.686-1.631-2.446-3.274-4.884-4.884-7.343a1.167,1.167,0,0,0-1.119-.612c-4.243.024-8.486.013-12.729.013Zm4.237,8.682c-2.389-2.9-4.64-5.654-6.918-8.383a1.086,1.086,0,0,0-.755-.286c-4.294-.018-8.589-.013-12.883-.01a4.219,4.219,0,0,0-.534.075c2.764,2.821,5.452,5.579,8.166,8.313a1.3,1.3,0,0,0,.848.279c3.705.018,7.411.012,11.116.012ZM874.168,6.139c3.323,2.929,6.48,5.718,9.653,8.49a1.1,1.1,0,0,0,.672.184q5.666.017,11.332.007c.137,0,.275-.012.52-.024-.155-.19-.233-.3-.328-.4-2.587-2.65-5.171-5.3-7.778-7.935a1.31,1.31,0,0,0-.835-.308c-1.545-.029-3.091-.014-4.636-.014Zm46.9,19.423c-.3-.383-.5-.647-.715-.9-1.963-2.384-3.936-4.76-5.882-7.157a1.121,1.121,0,0,0-.982-.474c-3.677.017-7.355.009-11.033.012-.18,0-.36.024-.614.043.118.15.169.23.234.3,2.554,2.612,5.1,5.23,7.677,7.82a1.491,1.491,0,0,0,.964.347c3.015.026,6.031.016,9.047.016Zm-34.474-8.524c.171.188.227.265.3.326,2.977,2.628,5.949,5.262,8.943,7.87a1.514,1.514,0,0,0,.921.314c3.138.023,6.276.014,9.415.014h.561c-.007-.129.009-.192-.015-.217q-3.949-4.056-7.911-8.1a.791.791,0,0,0-.516-.2c-3.846-.011-7.692-.008-11.694-.008m39.232,10.748c2.316,2.813,4.5,5.483,6.719,8.131a1.111,1.111,0,0,0,.766.268c2.329.02,4.658.012,6.987.012h1.889c-.017-.131-.009-.185-.031-.219-1.748-2.632-3.492-5.266-5.263-7.882a.935.935,0,0,0-.67-.3c-1.078-.031-2.158-.014-3.237-.014ZM929.8,36.2c-.175-.236-.255-.354-.346-.464-2.086-2.54-4.167-5.085-6.276-7.607a1.177,1.177,0,0,0-.809-.325c-3.141-.022-6.283-.014-9.424-.014h-.55a1.53,1.53,0,0,0,.139.26q3.854,3.954,7.719,7.9a.9.9,0,0,0,.574.242c2.942.015,5.884.01,8.973.01m-12.573,0a1.42,1.42,0,0,0-.118-.228c-2.568-2.63-5.132-5.265-7.719-7.875a1.291,1.291,0,0,0-.839-.294c-3.039-.021-6.078-.014-9.117-.011-.179,0-.358.034-.584.056a2.276,2.276,0,0,0,.187.229q4.461,3.942,8.932,7.875a.974.974,0,0,0,.578.238c2.864.015,5.728.01,8.68.01" transform="translate(6596 2497)" fill="#fff"/>
  </g>
</svg>
