<svg xmlns="http://www.w3.org/2000/svg" width="58.393" height="58.393" viewBox="0 0 58.393 58.393">
  <g id="Grupo_220" data-name="Grupo 220" transform="translate(-7474.699 -3137.829)">
    <path id="Caminho_752" data-name="Caminho 752" d="M878.7,641.407a1.183,1.183,0,0,1,1.143-.578q28.05.015,56.1.009c.865,0,1.142.267,1.142,1.1q0,13.938,0,27.878a1.882,1.882,0,0,1-.013.4.807.807,0,0,1-.882.715.791.791,0,0,1-.8-.738,4.081,4.081,0,0,1-.014-.626q0-13.141,0-26.282v-.7H880.456v45.732H935.37v-.665q0-6.471,0-12.941a2.951,2.951,0,0,1,.022-.625.854.854,0,0,1,1.669-.006,2.358,2.358,0,0,1,.02.512q0,11.715.01,23.431a1.215,1.215,0,0,1-.579,1.2H878.7Zm56.645,48.73h-54.9v7.34h54.9Z" transform="translate(6596 2497)" fill="#fff"/>
    <path id="Caminho_753" data-name="Caminho 753" d="M901.42,677.311a7.454,7.454,0,0,1-6.373,6.36c0,.555.01,1.122,0,1.688-.015.668-.337,1.065-.847,1.076-.536.012-.884-.408-.893-1.1-.007-.549,0-1.1,0-1.664a7.457,7.457,0,0,1-6.358-6.363c-.565,0-1.149.011-1.731,0-.6-.015-.972-.309-1.03-.782a.831.831,0,0,1,.78-.937c.545-.059,1.1-.013,1.648-.061a.559.559,0,0,0,.406-.316,7.24,7.24,0,0,1,5.98-5.945c.089-.02.177-.046.3-.079,0-.556-.005-1.1,0-1.653.007-.694.341-1.116.875-1.117s.851.4.867,1.116c.011.513.008,1.026.014,1.538,0,.036.023.072-.014-.036a25.722,25.722,0,0,1,2.893,1.231,6.746,6.746,0,0,1,3.329,4.73c.079.4.214.6.659.555a8.073,8.073,0,0,1,1.31,0c.594.042.934.377.938.868a.9.9,0,0,1-.985.883c-.568.02-1.138,0-1.77,0m-8.155-6.283a5.327,5.327,0,0,0-4.483,4.476c.657.136,1.677-.18,1.646.958-.03,1.086-1.015.757-1.662.889a5.3,5.3,0,0,0,4.5,4.458c.121-1.341.237-1.618.8-1.637,1.252-.042.853,1.022,1.038,1.671a5.268,5.268,0,0,0,4.428-4.524c-.68-.021-1.593.125-1.623-.855-.034-1.084.98-.851,1.652-.959-.191-2.328-2.645-4.448-4.488-4.423-.082.667.151,1.561-.927,1.629-.58.037-.769-.361-.884-1.683" transform="translate(6596 2497)" fill="#fff"/>
    <path id="Caminho_754" data-name="Caminho 754" d="M928.83,677.311a7.455,7.455,0,0,1-6.351,6.35c0,.554.006,1.12,0,1.686-.009.685-.362,1.105-.9,1.088-.509-.017-.824-.412-.839-1.083-.013-.566,0-1.132,0-1.682a7.456,7.456,0,0,1-6.374-6.358c-.565,0-1.114.008-1.663,0-.7-.012-1.1-.349-1.09-.893.009-.528.381-.842,1.058-.869a8.382,8.382,0,0,1,1.2.005c.452.048.577-.166.652-.562a7.17,7.17,0,0,1,5.637-5.652c.183-.037.362-.1.585-.158,0-.574-.012-1.143,0-1.71.017-.665.356-1.059.872-1.052s.856.417.866,1.068c.009.567,0,1.134,0,1.572a23.828,23.828,0,0,1,2.743,1.12,6.735,6.735,0,0,1,3.449,4.771c.1.522.326.637.791.6a7.96,7.96,0,0,1,1.2,0,.88.88,0,1,1-.04,1.751c-.586.022-1.172,0-1.788,0m-1.8.028c-.673-.091-1.578.182-1.665-.8-.11-1.235,1-.875,1.66-1.054-.477-2.409-2.477-4.368-4.523-4.432-.057.663.161,1.588-.845,1.635-1.115.052-.845-.967-.954-1.627a5.172,5.172,0,0,0-4.451,4.451c.67.085,1.638-.119,1.622.93s-.982.816-1.651.9c.142,2.144,2.539,4.5,4.482,4.436.12-1.327.275-1.651.877-1.618,1.148.064.818,1.012.936,1.68a5.414,5.414,0,0,0,4.512-4.505" transform="translate(6596 2497)" fill="#fff"/>
    <path id="Caminho_755" data-name="Caminho 755" d="M901.433,653.616c.6,0,1.146-.007,1.7,0,.654.011,1.051.347,1.049.873s-.369.846-1.05.861c-.55.013-1.1,0-1.7,0a7.445,7.445,0,0,1-6.381,6.377c0,.569.011,1.133,0,1.7-.016.689-.318,1.049-.855,1.055s-.876-.394-.885-1.092c-.006-.532,0-1.063,0-1.632a3.07,3.07,0,0,0-.414-.147,7.163,7.163,0,0,1-5.583-4.812,3.464,3.464,0,0,1-.141-.433c-.236-1.012-.235-1.011-1.283-1.013-.285,0-.571,0-.855-.016a.816.816,0,0,1-.842-.826.838.838,0,0,1,.852-.884c.624-.031,1.25-.007,1.749-.007a26.426,26.426,0,0,1,1.255-2.919,6.739,6.739,0,0,1,4.746-3.309c.451-.088.548-.267.522-.669a11.666,11.666,0,0,1,0-1.31.874.874,0,0,1,.884-.921.849.849,0,0,1,.841.892c.028.512-.013,1.028.03,1.538a.56.56,0,0,0,.323.406,7.215,7.215,0,0,1,5.946,5.975c.019.091.057.178.1.312m-12.667-.036c.629.127,1.581-.217,1.66.819.093,1.233-1.023.832-1.671,1.009a5.3,5.3,0,0,0,4.526,4.446c.059-.665-.144-1.594.858-1.63,1.1-.039.839.978.947,1.64,2.1-.1,4.469-2.481,4.454-4.493-.669-.056-1.64.158-1.629-.887s.971-.834,1.653-.884a5.259,5.259,0,0,0-4.484-4.491c-.122.632.21,1.587-.849,1.629-1.178.047-.828-1.006-.972-1.668a5.4,5.4,0,0,0-4.493,4.51" transform="translate(6596 2497)" fill="#fff"/>
    <path id="Caminho_756" data-name="Caminho 756" d="M928.828,653.616c.6,0,1.17-.008,1.738,0,.65.012,1.044.357,1.036.887-.008.505-.379.825-1.009.846-.551.019-1.235-.178-1.613.081-.352.241-.361.964-.551,1.463a7.1,7.1,0,0,1-5.528,4.715,4.2,4.2,0,0,0-.422.132c0,.544.005,1.092,0,1.641-.008.7-.331,1.1-.877,1.1s-.849-.374-.865-1.1c-.009-.4-.025-.8.005-1.2a.472.472,0,0,0-.442-.579,7.073,7.073,0,0,1-5.815-5.806c-.029-.129-.077-.253-.136-.444-.575,0-1.159.013-1.742,0-.641-.018-.994-.332-1-.851s.389-.87,1.039-.881c.55-.009,1.1,0,1.714,0,.069-.289.126-.578.206-.86a7.056,7.056,0,0,1,5.442-5.3c.551-.131.828-.307.739-.919a5.9,5.9,0,0,1,.008-1.2.811.811,0,0,1,.827-.839.842.842,0,0,1,.886.851c.033.511.024,1.026.007,1.539-.01.3.091.411.4.475a7.151,7.151,0,0,1,5.587,4.805,6.808,6.808,0,0,1,.189.711c.055.22.1.44.175.737m-8.133-4.545c-2.427.466-4.4,2.463-4.472,4.521.678.067,1.64-.153,1.646.9s-.972.812-1.633.889c.081,2.242,2.621,4.535,4.455,4.445.152-1.286.345-1.674.9-1.62,1.057.1.846.976.911,1.656,2.052-.023,4.258-2.224,4.493-4.471-.64-.129-1.633.222-1.643-.884-.009-1.141,1.007-.8,1.665-.926a5.313,5.313,0,0,0-4.5-4.47c-.129,1.367-.291,1.692-.914,1.647-1.115-.08-.775-1.005-.906-1.685" transform="translate(6596 2497)" fill="#fff"/>
    <path id="Caminho_757" data-name="Caminho 757" d="M907.881,692.024c1.443,0,2.886,0,4.329,0,.827,0,1.125.3,1.135,1.135.009.74.011,1.481,0,2.221-.012.786-.333,1.1-1.114,1.1q-4.329,0-8.658,0c-.793,0-1.12-.306-1.134-1.082s-.016-1.557,0-2.335c.017-.724.335-1.035,1.057-1.04,1.461-.009,2.923,0,4.385,0m-3.644,2.713h7.3v-.955h-7.3Z" transform="translate(6596 2497)" fill="#fff"/>
    <path id="Caminho_758" data-name="Caminho 758" d="M890.535,691.12a2.681,2.681,0,0,1,.005,5.362,2.7,2.7,0,0,1-2.712-2.713,2.677,2.677,0,0,1,2.707-2.649m-.017,1.72a.955.955,0,1,0,.953.947.988.988,0,0,0-.953-.947" transform="translate(6596 2497)" fill="#fff"/>
    <path id="Caminho_759" data-name="Caminho 759" d="M925.267,691.119a2.682,2.682,0,1,1-2.688,2.654,2.646,2.646,0,0,1,2.688-2.654m.936,2.672a.982.982,0,0,0-.95-.951.956.956,0,1,0,.95.951" transform="translate(6596 2497)" fill="#fff"/>
    <path id="Caminho_760" data-name="Caminho 760" d="M897.842,691.12a2.681,2.681,0,0,1,.018,5.362,2.681,2.681,0,1,1-.018-5.362m-.021,1.72a.954.954,0,0,0,.034,1.908.954.954,0,0,0-.034-1.908" transform="translate(6596 2497)" fill="#fff"/>
    <path id="Caminho_761" data-name="Caminho 761" d="M917.95,691.12a2.681,2.681,0,1,1-2.7,2.656,2.695,2.695,0,0,1,2.7-2.656m-.031,1.721a.964.964,0,0,0-.912.978.974.974,0,0,0,.962.932.956.956,0,0,0-.05-1.91" transform="translate(6596 2497)" fill="#fff"/>
  </g>
</svg>
