<svg xmlns="http://www.w3.org/2000/svg" width="89.521" height="83.269" viewBox="0 0 89.521 83.269">
  <g id="Grupo_224" data-name="Grupo 224" transform="translate(-7874.728 -2497)">
    <rect id="Ret창ngulo_104" data-name="Ret창ngulo 104" width="2.593" height="2.533" transform="translate(7918.783 2577.736)" fill="#fff"/>
    <rect id="Ret창ngulo_105" data-name="Ret창ngulo 105" width="2.484" height="78.044" transform="translate(7918.83 2497)" fill="#fff"/>
    <path id="Caminho_781" data-name="Caminho 781" d="M1368.248,43.424q0,14.385,0,28.771a6.408,6.408,0,0,1-4.929,6.463,8.523,8.523,0,0,1-2.133.238q-11.537.024-23.074.007c-3.4,0-5.919-1.777-6.781-4.785a6.866,6.866,0,0,1-.236-1.874q-.018-28.512,0-57.025a14.9,14.9,0,0,1,13.978-14.9A63.328,63.328,0,0,1,1355.92.54c6.056.709,11.418,6.431,12.144,12.486a23.991,23.991,0,0,1,.176,2.836q.02,13.78.008,27.562m-9.506,3q0-4.448,0-8.894c0-1.413-.4-1.829-1.766-1.83q-7.341-.007-14.682,0c-1.261,0-1.7.445-1.7,1.719q-.008,9.024,0,18.047c0,1.316.436,1.743,1.765,1.745q7.3.006,14.595,0c1.373,0,1.788-.422,1.79-1.807q.008-4.49,0-8.98m-25.051-19.2c3.888-5.876,9.178-9.013,15.979-9.013s12.084,3.146,15.938,8.961V16.562a3.332,3.332,0,0,0-.479-.169,15.376,15.376,0,0,1-12.6-12.943c-.077-.494-.29-.608-.734-.6-1.238.018-2.477.022-3.715,0-.49-.009-.7.131-.771.658a15.4,15.4,0,0,1-11.718,12.706c-.631.147-1.266.27-1.9.4ZM1365.6,66.2c-1.908,1.427-4.051,1.3-6.176,1.3q-9.719-.009-19.438,0c-2.152,0-4.327.147-6.26-1.3,0,2.293-.133,4.452.038,6.587a3.611,3.611,0,0,0,3.848,3.424q12.053.033,24.1,0a3.61,3.61,0,0,0,3.846-3.427c.17-2.134.038-4.292.038-6.584m-2.862-38.508a15.888,15.888,0,0,0-26.14.016c.963,1.369,1.992,2.72,2.893,4.152.6.95,1.178,1.647,2.422,1.17a2.285,2.285,0,0,1,.773-.019q6.825,0,13.65.006c.659,0,1.319.125,1.977.114a1.149,1.149,0,0,0,.82-.338c1.22-1.672,2.4-3.377,3.6-5.1m-28.553,35.414.316-.033c.991-1.411,1.973-2.828,2.977-4.229.5-.7,1.1-1.322.568-2.3a2.554,2.554,0,0,1-.05-1.109c0-5.96-.013-11.92.014-17.88a16.985,16.985,0,0,1,.329-2.192.989.989,0,0,0-.041-.623c-1.021-1.492-2.07-2.966-3.15-4.5a14.676,14.676,0,0,0-1.459,6.57q-.06,12.006.005,24.012a11.113,11.113,0,0,0,.491,2.287m30-32.877c-.982,1.394-1.867,2.7-2.813,3.969a1.439,1.439,0,0,0-.238,1.624,3.972,3.972,0,0,1,.193,1.524q.016,8.724,0,17.448c0,.852-.167,1.7-.236,2.556a.9.9,0,0,0,.107.543c1.211,1.744,2.438,3.477,3.695,5.261a3.8,3.8,0,0,0,.767-2.561c0-7.831.018-15.662-.008-23.494a15.59,15.59,0,0,0-1.463-6.87m-27.626,34.51h26.165c-.218-.344-.358-.583-.516-.808-.808-1.156-1.655-2.286-2.418-3.47-.413-.64-.787-1.029-1.629-.718a4.547,4.547,0,0,1-1.536.144q-6.135.015-12.271.006a6.661,6.661,0,0,1-2.315-.047c-1.776-.709-2.433.417-3.189,1.6-.69,1.079-1.46,2.107-2.291,3.294m8.151-61.767c-6.259.562-10.809,6.517-10.766,10.809,4.807-.356,10.11-5.009,10.766-10.809m10.493.148a12.723,12.723,0,0,0,10.211,10.61c-.24-5-5.123-10.162-10.211-10.61" transform="translate(6596 2497)" fill="#fff"/>
    <path id="Caminho_782" data-name="Caminho 782" d="M1315.9,43.424q0,14.385,0,28.771a6.408,6.408,0,0,1-4.929,6.463,8.521,8.521,0,0,1-2.133.238q-11.537.024-23.074.007c-3.4,0-5.919-1.777-6.781-4.785a6.866,6.866,0,0,1-.236-1.874q-.018-28.512,0-57.025a14.9,14.9,0,0,1,13.978-14.9A63.326,63.326,0,0,1,1303.57.54c6.056.709,11.418,6.431,12.144,12.486a23.991,23.991,0,0,1,.176,2.836q.019,13.78.008,27.562m-9.506,3q0-4.448,0-8.894c0-1.413-.4-1.829-1.766-1.83q-7.341-.007-14.682,0c-1.261,0-1.7.445-1.7,1.719q-.008,9.024,0,18.047c0,1.316.436,1.743,1.765,1.745q7.3.006,14.595,0c1.373,0,1.788-.422,1.79-1.807q.008-4.49,0-8.98m-25.051-19.2c3.888-5.876,9.178-9.013,15.979-9.013s12.084,3.146,15.938,8.961V16.562a3.332,3.332,0,0,0-.479-.169,15.376,15.376,0,0,1-12.6-12.943c-.077-.494-.29-.608-.734-.6-1.238.018-2.477.022-3.715,0-.49-.009-.7.131-.771.658a15.4,15.4,0,0,1-11.718,12.706c-.631.147-1.266.27-1.9.4Zm31.911,38.98c-1.908,1.427-4.051,1.3-6.176,1.3q-9.719-.009-19.438,0c-2.152,0-4.327.147-6.26-1.3,0,2.293-.133,4.452.038,6.587a3.611,3.611,0,0,0,3.848,3.424q12.052.033,24.1,0a3.61,3.61,0,0,0,3.846-3.427c.17-2.134.038-4.292.038-6.584m-2.862-38.508a15.888,15.888,0,0,0-26.14.016c.963,1.369,1.992,2.72,2.893,4.152.6.95,1.178,1.647,2.422,1.17a2.286,2.286,0,0,1,.773-.019q6.825,0,13.65.006c.659,0,1.319.125,1.977.114a1.149,1.149,0,0,0,.82-.338c1.22-1.672,2.4-3.377,3.6-5.1m-28.553,35.414.316-.033c.991-1.411,1.973-2.828,2.977-4.229.5-.7,1.1-1.322.568-2.3a2.552,2.552,0,0,1-.05-1.109c0-5.96-.013-11.92.014-17.88a16.985,16.985,0,0,1,.329-2.192.988.988,0,0,0-.041-.623c-1.021-1.492-2.07-2.966-3.15-4.5a14.678,14.678,0,0,0-1.459,6.57q-.06,12.006.005,24.012a11.121,11.121,0,0,0,.491,2.287m30-32.877c-.982,1.394-1.867,2.7-2.813,3.969a1.439,1.439,0,0,0-.238,1.624,3.968,3.968,0,0,1,.193,1.524q.017,8.724,0,17.448c0,.852-.167,1.7-.236,2.556a.9.9,0,0,0,.107.543c1.211,1.744,2.438,3.477,3.695,5.261a3.8,3.8,0,0,0,.767-2.561c0-7.831.018-15.662-.008-23.494a15.59,15.59,0,0,0-1.463-6.87m-27.626,34.51h26.165c-.218-.344-.358-.583-.516-.808-.808-1.156-1.655-2.286-2.418-3.47-.413-.64-.787-1.029-1.629-.718a4.547,4.547,0,0,1-1.536.144q-6.135.015-12.271.006a6.661,6.661,0,0,1-2.315-.047c-1.776-.709-2.433.417-3.189,1.6-.69,1.079-1.46,2.107-2.291,3.294m8.151-61.767c-6.259.562-10.809,6.517-10.766,10.809,4.807-.356,10.11-5.009,10.766-10.809m10.493.148a12.723,12.723,0,0,0,10.211,10.61c-.24-5-5.123-10.162-10.211-10.61" transform="translate(6596 2497)" fill="#fff"/>
  </g>
</svg>
