<svg xmlns="http://www.w3.org/2000/svg" width="89.396" height="92.163" viewBox="0 0 89.396 92.163">
  <g id="Grupo_209" data-name="Grupo 209" transform="translate(-6596 -2976.292)">
    <path id="Caminho_734" data-name="Caminho 734" d="M41.6,512.376c1.586-2.718,3.1-5.309,4.611-7.9.208-.355.415-.71.631-1.06.94-1.518,1.956-1.547,2.855-.019,1.941,3.3,3.9,6.588,5.741,9.944a90.126,90.126,0,0,1,6.473,14.218,14.14,14.14,0,0,1-8.751,17.571,2.407,2.407,0,0,0-1.486,1.29,15.515,15.515,0,0,1-16.6,8.2,15.7,15.7,0,0,1-12.593-13.178c-.437-3.224.464-6.209,1.61-9.142a147.889,147.889,0,0,1,10.838-21.164c.531-.9,1.067-1.8,1.624-2.678.783-1.239,1.883-1.235,2.673.02s1.546,2.536,2.373,3.9m-3.663-.915a5.712,5.712,0,0,0-.351.451,154.57,154.57,0,0,0-10.3,19.643A24.646,24.646,0,0,0,25.18,538.5c-.785,8.507,7.385,15.194,15.7,13.218a12.7,12.7,0,0,0,8.9-16.878,130.469,130.469,0,0,0-8.26-17.155c-1.147-2.064-2.358-4.092-3.59-6.223m10.33-5.332c-1.7,3.018-3.276,5.792-4.8,8.6a1.383,1.383,0,0,0,.115,1.079c2.11,4.137,4.336,8.218,6.357,12.4a32.041,32.041,0,0,1,3.39,10.2,33.836,33.836,0,0,1,.022,3.766c.427-.237.844-.441,1.234-.688A11.466,11.466,0,0,0,59.141,527.6a112.869,112.869,0,0,0-7.5-15.617c-1.055-1.9-2.167-3.765-3.373-5.853" transform="translate(6596 2497)" fill="#fff"/>
    <path id="Caminho_735" data-name="Caminho 735" d="M78.45,545.847a35.514,35.514,0,0,0,2.773-8.016A39.744,39.744,0,0,0,55.99,491.638c-.444-.164-.9-.31-1.336-.481a1.332,1.332,0,1,1,.847-2.509,40.207,40.207,0,0,1,11.566,5.81,41.772,41.772,0,0,1,17.341,28.27A41.212,41.212,0,0,1,81.1,546.546c-.092.2-.176.406-.254.612a1.075,1.075,0,0,0,0,.264c2.209-.584,4.393-1.165,6.58-1.737.986-.259,1.666.047,1.914.842.234.747-.219,1.451-1.2,1.721q-4.748,1.311-9.508,2.57a1.4,1.4,0,0,1-1.952-1.1q-1.26-4.762-2.518-9.525c-.259-.986.067-1.7.847-1.9.834-.21,1.424.18,1.709,1.2.576,2.059,1.126,4.125,1.733,6.355" transform="translate(6596 2497)" fill="#fff"/>
    <path id="Caminho_736" data-name="Caminho 736" d="M7.365,552.932c-.59,2.185-1.122,4.159-1.654,6.133-.074.274-.127.556-.221.824a1.34,1.34,0,1,1-2.578-.728q1.3-5,2.637-9.982a1.375,1.375,0,0,1,1.729-.935q4.8,1.3,9.593,2.618c1.028.284,1.5.9,1.318,1.649-.206.864-.964,1.223-2.051.935-2.037-.539-4.072-1.095-6.279-1.691A39.612,39.612,0,0,0,37.914,568.5a39.22,39.22,0,0,0,30.066-9.017c.294-.241.575-.5.872-.735a1.308,1.308,0,0,1,2.009.056,1.344,1.344,0,0,1-.313,2c-1.377,1.116-2.736,2.266-4.2,3.26a40.98,40.98,0,0,1-26.873,7.258c-13.062-1.038-23.552-6.957-31.419-17.467-.186-.249-.374-.5-.691-.919" transform="translate(6596 2497)" fill="#fff"/>
    <path id="Caminho_737" data-name="Caminho 737" d="M39.3,486.653l-4.393-4.385c-.224-.224-.459-.439-.667-.677a1.327,1.327,0,1,1,1.9-1.853c1.343,1.3,2.653,2.637,3.978,3.957q1.55,1.542,3.1,3.08a1.423,1.423,0,0,1,.006,2.3q-3.427,3.429-6.864,6.851c-.816.811-1.516.893-2.15.282-.59-.569-.5-1.407.245-2.158,1.491-1.5,2.99-2.984,4.637-4.626a38.282,38.282,0,0,0-14.766,4.258C12.755,499.846,5.748,509.434,3.289,522.3A37.116,37.116,0,0,0,3.323,536c.184,1.012-.144,1.722-.907,1.906-.866.208-1.484-.241-1.691-1.313a39.543,39.543,0,0,1-.482-11.916A42.532,42.532,0,0,1,36,487.114c1.028-.167,2.063-.289,3.3-.461" transform="translate(6596 2497)" fill="#fff"/>
  </g>
</svg>
