<svg xmlns="http://www.w3.org/2000/svg" width="71.229" height="71.255" viewBox="0 0 71.229 71.255">
  <g id="Grupo_208" data-name="Grupo 208" transform="translate(-6600.069 -2811.401)">
    <path id="Caminho_797" data-name="Caminho 797" d="M45.323,365.249c1.121,0,2.143-.009,3.166,0,1.08.012,1.378.312,1.391,1.412.013,1.049,0,2.1,0,3.249h23.9c1.341,0,1.513.168,1.515,1.5q0,4.065,0,8.129c0,1.276-.252,1.531-1.522,1.531q-11.334,0-22.668,0H49.883c0,1.07.006,2.08,0,3.089-.01,1.276-.214,1.488-1.457,1.489q-8.76,0-17.52,0c-1.192,0-1.408-.222-1.419-1.433-.01-1.018,0-2.036,0-3.144H28.316q-11.289,0-22.578,0c-1.469,0-1.667-.2-1.667-1.656q0-4.02,0-8.04c0-1.278.191-1.467,1.458-1.467H29.483v-2.288c0-2.376,0-2.376,2.42-2.376h2.13v-7.86a21.877,21.877,0,0,1,7.334-42.926,21.866,21.866,0,0,1,3.956,42.888ZM19.87,337.107A19.913,19.913,0,0,0,24.983,349.6c.848-.877,1.64-1.7,2.436-2.52.458-.471.97-.652,1.485-.116s.3,1.03-.172,1.485c-.815.791-1.619,1.592-2.485,2.447a19.829,19.829,0,0,0,12.513,5.237c0-1.225.011-2.364,0-3.5-.009-.644.136-1.176.893-1.193.808-.019.975.526.964,1.213-.017,1.138-.005,2.276-.005,3.485a19.79,19.79,0,0,0,12.549-5.286c-.861-.822-1.657-1.592-2.465-2.351-.494-.464-.787-.969-.219-1.545s1.087-.286,1.549.2l2.353,2.471a19.874,19.874,0,0,0,5.109-12.512c-1.157,0-2.205,0-3.253,0-.659,0-1.282-.143-1.292-.922-.012-.822.588-1,1.312-.977,1.067.03,2.134.008,3.238.008a19.91,19.91,0,0,0-5.2-12.449c-.8.843-1.533,1.6-2.251,2.364-.463.494-.975.777-1.55.227s-.295-1.083.192-1.546l2.4-2.278a19.71,19.71,0,0,0-12.471-5.179c0,1.178-.014,2.254.006,3.33.012.653-.169,1.189-.892,1.209-.78.022-.98-.526-.967-1.222.021-1.075.006-2.15.006-3.323a19.558,19.558,0,0,0-12.413,5.155c.834.821,1.56,1.541,2.293,2.254.5.484.863,1.011.225,1.612-.581.546-1.082.231-1.55-.252-.743-.767-1.511-1.511-2.3-2.3a19.852,19.852,0,0,0-5.123,12.4c1.144,0,2.193.022,3.242-.008.683-.019,1.267.138,1.294.9.03.84-.611,1-1.308.995-1.047,0-2.095,0-3.248,0m11.544,46.627H47.922v-16.5H31.414ZM29.43,371.887H5.978V379.1H29.43Zm20.51,7.175H73.39v-7.176H49.94ZM36.085,365.178H43.28v-7.227H36.085Z" transform="translate(6596 2497)" fill="#fff"/>
    <path id="Caminho_798" data-name="Caminho 798" d="M40.608,328.657c0,.752.022,1.5-.005,2.257-.04,1.161-.065,2.113,1.225,2.911,1.566.968,1.465,3.355.108,4.67a3.242,3.242,0,0,1-4.791-.324,3.12,3.12,0,0,1,.73-4.645,1.682,1.682,0,0,0,.894-1.8c-.027-2.286,0-4.573-.013-6.86,0-.685.157-1.229.97-1.2.761.024.892.564.885,1.2-.012,1.264,0,2.527,0,3.791m-.9,6.165a1.278,1.278,0,0,0-1.36,1.33,1.337,1.337,0,1,0,2.673.048,1.28,1.28,0,0,0-1.313-1.378" transform="translate(6596 2497)" fill="#fff"/>
  </g>
</svg>
