<svg xmlns="http://www.w3.org/2000/svg" width="45.281" height="62.28" viewBox="0 0 45.281 62.28">
  <g id="Grupo_222" data-name="Grupo 222" transform="translate(-7896.848 -2779.939)">
    <path id="Caminho_748" data-name="Caminho 748" d="M1302.805,345.219a2.979,2.979,0,0,1-1.957-3.187q.043-24.9.012-49.81a2.6,2.6,0,0,1,2.845-2.867q6.57.012,13.139,0h.825v-1.286c0-.933-.01-1.865,0-2.8a2.21,2.21,0,0,1,2.377-2.334q3.437,0,6.874,0a2.217,2.217,0,0,1,2.381,2.393c.009,1.314,0,2.629,0,4.025h.762c4.379,0,8.76.045,13.138-.021a2.756,2.756,0,0,1,2.923,2.944q-.048,24.874,0,49.749a2.977,2.977,0,0,1-1.956,3.188Zm14.635-54.033h-.421q-6.6,0-13.2,0c-.96,0-1.138.176-1.138,1.125v49.927c0,.985.179,1.162,1.165,1.162q19.645,0,39.291,0c.974,0,1.153-.182,1.153-1.175V292.359c0-1-.168-1.172-1.151-1.173q-6.6,0-13.2,0h-.594l.12.129-1.037,2c.234,0,.533-.01.831,0a2.351,2.351,0,0,1,2.3,1.738,7.776,7.776,0,0,1,.091,1.265,2.493,2.493,0,0,1-2.762,2.768c-3.406-.048-6.814-.077-10.218.008-2.207.056-3.574-.674-3.352-3.467a2.34,2.34,0,0,1,1.935-2.242,12.089,12.089,0,0,1,1.271-.106l-1.086-2.093m6.085-6.431c-1.114,0-2.229.018-3.342-.008-.505-.012-.689.188-.687.675.011,1.883-.006,3.766.018,5.649a1.019,1.019,0,0,0,.3.674c1.075.954,2.182,1.871,3.27,2.811a.528.528,0,0,0,.8.01c1.088-.94,2.194-1.858,3.27-2.811a1.02,1.02,0,0,0,.31-.67c.024-1.883,0-3.767.019-5.65,0-.531-.219-.7-.736-.689-1.072.029-2.146.009-3.219.009m-.062,12.479h5.041c1.351,0,1.379-.043,1.33-1.41a.605.605,0,0,0-.669-.675c-.465-.011-.934.032-1.4-.011a3.354,3.354,0,0,0-2.909.941,1.9,1.9,0,0,1-2.7.026,3.454,3.454,0,0,0-3.024-.966c-.361.035-.728,0-1.092.006-.8.01-.892.123-.892,1.057s.08,1.028.911,1.03c1.8.005,3.6,0,5.405,0" transform="translate(6596 2497)" fill="#fff"/>
    <path id="Caminho_749" data-name="Caminho 749" d="M1308.893,302.489v28.28c.149-.252.241-.389.315-.535a6.592,6.592,0,0,1,4.088-3.479c1.758-.535,3.512-1.087,5.28-1.587a1.057,1.057,0,0,0,.868-1.07,1.864,1.864,0,0,0-.738-1.821,6.052,6.052,0,0,1-2.05-3.5,1.11,1.11,0,0,0-.5-.638,2,2,0,0,1-1.2-1.826c0-.937-.2-1.914.514-2.731.108-.123.08-.383.082-.581.012-1.439-.018-2.879.028-4.317a4.008,4.008,0,0,1,3.759-3.846q4.194-.117,8.392-.024a4.131,4.131,0,0,1,4.1,4.363c.019,1.3-.009,2.594.014,3.891a1.6,1.6,0,0,0,.237.779,3.2,3.2,0,0,1-1.059,4.362.655.655,0,0,0-.272.4,6.906,6.906,0,0,1-2.54,4.092.807.807,0,0,0-.246.5c-.04.3,0,.607-.013.911a.943.943,0,0,0,.8,1.04c1.8.521,3.6,1.076,5.392,1.629a6.259,6.259,0,0,1,3.91,3.364V302.52c-.2-.009-.411-.029-.623-.029-1.338,0-2.677,0-4.015-.005a2.705,2.705,0,0,1-.66-.072.812.812,0,0,1-.646-.9.782.782,0,0,1,.732-.826c.5-.052,1.011-.042,1.517-.044,1.156-.005,2.312-.015,3.467,0a1.91,1.91,0,0,1,2.086,2.13q0,15.63,0,31.258a1.951,1.951,0,0,1-2.175,2.176q-14.233,0-28.465,0a1.959,1.959,0,0,1-2.218-2.194q0-15.6,0-31.2a1.924,1.924,0,0,1,2.164-2.174q5.414-.012,10.827,0,4.135,0,8.271,0a3.992,3.992,0,0,1,.666.041.89.89,0,0,1,.068,1.733,3.468,3.468,0,0,1-.782.071q-9.306.006-18.612,0ZM1310,334.345h27.151c-.056-.526-.081-1.01-.163-1.484-.384-2.227-1.447-3.882-3.788-4.458a10.723,10.723,0,0,1-1.5-.478.739.739,0,0,0-.907.22c-.8.778-1.618,1.534-2.434,2.294a2,2,0,0,1-2.553.363c-.579-.289-1.138-.62-1.732-.873a1.092,1.092,0,0,0-.77,0c-.6.251-1.155.582-1.733.871a2.021,2.021,0,0,1-2.6-.388c-.813-.762-1.633-1.517-2.429-2.3a.708.708,0,0,0-.858-.188c-.547.207-1.118.348-1.677.523a5.965,5.965,0,0,0-4.005,5.9m6.775-19.506a7.421,7.421,0,0,0,.02,1.243.637.637,0,0,0,.429.4c.865.116,1.074.317,1.137,1.244a5.376,5.376,0,0,0,10.69-.214c.05-.785.283-.938,1.069-1.023.165-.018.438-.155.451-.263a11.8,11.8,0,0,0,.022-1.394,10.89,10.89,0,0,0-1.071.419c-1.028.546-1.889.057-1.895-1.1-.007-1.134-.017-2.269,0-3.4.01-.528-.208-.778-.722-.694a2.9,2.9,0,0,0-1.059.31,4.551,4.551,0,0,1-4.452-.075,2.181,2.181,0,0,0-1.374-.157c-.141.022-.262.61-.273.944-.035,1.072.005,2.148-.022,3.221a1.147,1.147,0,0,1-1.8,1.006c-.331-.173-.695-.285-1.156-.469m.972-1.468a1.86,1.86,0,0,0,.145-.258c.007-.851,0-1.7.02-2.553a2.214,2.214,0,0,1,1.739-2.27,3.606,3.606,0,0,1,2.849.488,1.95,1.95,0,0,0,2.292.043,3.73,3.73,0,0,1,2.294-.594,2.243,2.243,0,0,1,2.356,2.366c.006.868,0,1.736,0,2.6l.164.1c.127-.145.364-.288.365-.434.014-1.438.042-2.879-.044-4.314a2.133,2.133,0,0,0-2.055-1.9q-4.2-.042-8.393,0a2.2,2.2,0,0,0-2.072,2.028c-.05,1.377-.029,2.756-.008,4.134,0,.162.194.32.347.555m2.915,12.85c.885.424,1.859.9,2.842,1.353a.528.528,0,0,0,.4-.01c.966-.451,1.924-.918,2.8-1.337-.249-.778-.485-1.511-.743-2.316a7.26,7.26,0,0,1-4.518,0l-.773,2.308m-2.236,1.011-.057.1,1.308,1.243c.832.79.832.79,1.92.121l-3.171-1.459m10.557.118-.062-.1-3.176,1.461a6.313,6.313,0,0,0,.873.446.617.617,0,0,0,.513-.073c.633-.559,1.238-1.15,1.852-1.73" transform="translate(6596 2497)" fill="#fff"/>
    <path id="Caminho_750" data-name="Caminho 750" d="M1327.416,340.5h-11.007c-.223,0-.447,0-.668-.02a.807.807,0,0,1-.788-.779.833.833,0,0,1,.639-.968,2.062,2.062,0,0,1,.6-.063q11.25,0,22.5,0a2,2,0,0,1,.653.1.817.817,0,0,1,.559.961.807.807,0,0,1-.752.748,5.126,5.126,0,0,1-.668.025h-11.068" transform="translate(6596 2497)" fill="#fff"/>
    <path id="Caminho_751" data-name="Caminho 751" d="M1309.781,340.494c-.606,0-1.213.019-1.818,0a.847.847,0,0,1-.9-.857.869.869,0,0,1,.885-.948q1.848-.046,3.7,0a.871.871,0,0,1,.9.936.857.857,0,0,1-.945.876c-.6.02-1.212,0-1.818,0Z" transform="translate(6596 2497)" fill="#fff"/>
  </g>
</svg>
