<svg xmlns="http://www.w3.org/2000/svg" width="84.84" height="84.837" viewBox="0 0 84.84 84.837">
  <g id="Grupo_212" data-name="Grupo 212" transform="translate(-7023.955 -2970.651)">
    <path id="Caminho_738" data-name="Caminho 738" d="M476.505,473.651h3.314a1.642,1.642,0,0,0,.361.159,12.13,12.13,0,0,1,10.028,12.525,4.268,4.268,0,0,1-8.481.717,11.805,11.805,0,0,1-.078-1.567,3.562,3.562,0,0,0-3.476-3.333,3.453,3.453,0,0,0-3.5,3.361c-.032,3.423-.016,6.847-.006,10.271a.973.973,0,0,0,.2.671,7.725,7.725,0,0,1,2.485,4.044h.943q9.484,0,18.97,0a4.29,4.29,0,0,1,4.452,3.114q5.367,14.521,10.711,29.051a5.767,5.767,0,0,1,.354,1.931c.026,6.516.019,13.033.015,19.549a4.175,4.175,0,0,1-4.313,4.341q-38.1,0-76.209,0a4.736,4.736,0,0,1-1.063-.108,4.5,4.5,0,0,1-3.251-3.2V533.468a1.4,1.4,0,0,0,.168-.259q5.468-14.826,10.929-29.652a4.282,4.282,0,0,1,4.408-3.057q9.191,0,18.381,0h1.035c-.288-.313-.46-.515-.646-.7-1.578-1.584-3.165-3.158-4.735-4.75a4.045,4.045,0,0,1-1.067-4.261,4.247,4.247,0,0,1,6.967-1.825c.878.81,1.7,1.676,2.7,2.659,0-2.092-.051-3.963.01-5.831a11.83,11.83,0,0,1,5.783-10.269,28.907,28.907,0,0,1,4.62-1.869m33.462,64.983H430.781v.717q0,7.165,0,14.331c0,1.518.46,1.98,1.977,1.98q37.608,0,75.218,0c1.523,0,1.988-.46,1.989-1.969q0-7.207,0-14.414Zm-15.609-29.549H446.39v13.987h47.968Zm-18.15-2.944h19.024c1.361,0,1.668.213,2.137,1.478q4.265,11.5,8.528,22.993c.607,1.636.059,2.46-1.668,2.46q-33.84.006-67.678,0c-1.746,0-2.312-.816-1.713-2.432q4.273-11.533,8.55-23.066c.447-1.2.784-1.434,2.088-1.434h19.1a16.913,16.913,0,0,1-.948-2.15c-.159-.557-.43-.652-.935-.651q-9.567.02-19.135.011a1.572,1.572,0,0,0-1.848,1.285c-3.541,9.607-7.056,19.223-10.645,28.812-.573,1.53.191,2.422,1.65,2.4,5.576-.072,11.155-.029,16.732-.029q29.325,0,58.649,0c1.586,0,2.167-.758,1.644-2.18q-5.358-14.565-10.726-29.127a1.581,1.581,0,0,0-1.611-1.165q-9.775,0-19.55.016a.816.816,0,0,0-.617.364c-.366.756-.663,1.545-1.023,2.412m-4.463-11.262v-.933c0-2.705-.035-5.411.011-8.116a6.372,6.372,0,0,1,12.591-1.56,19.548,19.548,0,0,1,.221,2.217,1.326,1.326,0,0,0,1.454,1.259,1.287,1.287,0,0,0,1.262-1.36,14.2,14.2,0,0,0-.165-2.467,9.168,9.168,0,0,0-8.9-7.441c-4.211-.044-8.414,3.172-8.938,7.375a89.514,89.514,0,0,0-.242,10.408c0,.2.413.554.669.59a15.706,15.706,0,0,0,2.039.028m24.18,35.258c-.332-1.158-.685-2.253-.949-3.37a.844.844,0,0,0-1-.783c-5.131.027-10.263.015-15.394.017-.2,0-.407.027-.717.049a4.549,4.549,0,0,1,.809,4.087Zm-51.1,0h17.245a4.639,4.639,0,0,1,.817-4.136c-5.564,0-10.969-.007-16.374.022a.9.9,0,0,0-.646.519c-.376,1.146-.68,2.316-1.042,3.595m21.35-28.215a4.2,4.2,0,1,0,8.393-.027,4.2,4.2,0,1,0-8.393.027m4.2,28.251c1.378,0,2.756-.031,4.131.015a1.257,1.257,0,0,0,1.311-.768,1.234,1.234,0,0,0-.244-1.584,6.469,6.469,0,0,0-1.682-1.153,8.438,8.438,0,0,0-5.965-.341,10.82,10.82,0,0,0-2.713,1.453,1.175,1.175,0,0,0-.322,1.562,1.28,1.28,0,0,0,1.353.831c1.376-.049,2.754-.015,4.131-.015m-28.541-.036a35.88,35.88,0,0,0,1.589-5.893c.274-2.718.068-5.485.068-8.23l-.156-.039c-1.743,4.7-3.487,9.4-5.256,14.162ZM497.417,516c-.246,4.8-.576,9.6,1.667,14.129h3.574c-1.764-4.757-3.5-9.443-5.241-14.129m-31.143-20.122c-1.508-1.507-3.092-3.11-4.7-4.689a1.422,1.422,0,0,0-2.119-.07,1.385,1.385,0,0,0,.191,2.043c1.412,1.429,2.837,2.847,4.259,4.266.182.182.38.347.418.381l1.95-1.931" transform="translate(6596 2497)" fill="#fff"/>
    <path id="Caminho_739" data-name="Caminho 739" d="M436.438,550c1.387,0,2.624-.006,3.86,0,1.172.007,1.815.532,1.795,1.447-.018.891-.652,1.4-1.768,1.4q-2.478.006-4.957,0c-1.255,0-1.767-.5-1.773-1.735-.006-1.267-.012-2.534,0-3.8a1.453,1.453,0,0,1,1.44-1.571,1.414,1.414,0,0,1,1.4,1.522c.024.873,0,1.748,0,2.736" transform="translate(6596 2497)" fill="#fff"/>
  </g>
</svg>
