<svg xmlns="http://www.w3.org/2000/svg" width="82.835" height="82.836" viewBox="0 0 82.835 82.836">
  <g id="Grupo_223" data-name="Grupo 223" transform="translate(-7878.071 -2632.431)">
    <path id="Caminho_779" data-name="Caminho 779" d="M1299.214,166.916V204.73a7.358,7.358,0,0,1-.015.892,1.427,1.427,0,0,1-2.824,0,7.365,7.365,0,0,1-.015-.892q0-19.013-.016-38.026a3.96,3.96,0,0,0-.4-1.69q-5.207-10.491-10.466-20.955a1.988,1.988,0,0,0-.546-.725v72.791a6.533,6.533,0,0,1-.022.981,1.381,1.381,0,0,1-1.464,1.158,1.344,1.344,0,0,1-1.348-1.187,4.109,4.109,0,0,1-.019-.8q0-39.411,0-78.82c0-1.657.372-2.026,2.046-2.026h78.713c1.707,0,2.059.36,2.059,2.1v78.642a6.6,6.6,0,0,1-.017.891,1.427,1.427,0,0,1-2.824-.039,7.812,7.812,0,0,1-.011-.892q0-35.928,0-71.857v-.938l-.141-.031c-.133.248-.274.492-.4.744q-5.242,10.476-10.468,20.961a3.956,3.956,0,0,0-.4,1.689q-.033,19.147-.017,38.294c0,1.227-.482,1.843-1.429,1.842a1.384,1.384,0,0,1-1.41-1.219,7.365,7.365,0,0,1-.015-.892V166.916Zm-13.308-28.6c.1.249.163.412.24.566q6.127,12.269,12.246,24.543a.966.966,0,0,0,1.04.585q24.042-.015,48.085.008a1.086,1.086,0,0,0,1.137-.724q6.03-12.114,12.093-24.213c.115-.229.2-.474.317-.765Z" transform="translate(6596 2497)" fill="#fff"/>
    <path id="Caminho_780" data-name="Caminho 780" d="M1323.471,141.145q15.126,0,30.253,0c1.775,0,2.359.932,1.568,2.519q-4.053,8.13-8.107,16.262a1.937,1.937,0,0,1-1.946,1.226q-21.731-.033-43.462,0a1.941,1.941,0,0,1-1.965-1.2c-2.7-5.454-5.43-10.892-8.145-16.338-.764-1.532-.17-2.472,1.55-2.473q15.127,0,30.254,0m-1.449,2.929h-26.9c.841,1.68,1.669,3.254,2.416,4.866a1.19,1.19,0,0,0,1.28.79c7.433-.024,14.866-.016,22.3-.016h.905Zm29.838-.013h-26.871v5.653h4.172q9.546,0,19.09-.012c.314,0,.8-.1.912-.3.931-1.742,1.792-3.522,2.7-5.337m-52.482,8.526c.869,1.735,1.71,3.331,2.466,4.967a1.126,1.126,0,0,0,1.218.743c6.035-.021,12.07-.012,18.106-.015.284,0,.569-.025.821-.037v-5.658Zm25.58,5.7h1.037c5.53,0,11.062-.076,16.59.046,1.657.037,2.613-.36,3.173-1.967a34.092,34.092,0,0,1,1.817-3.748h-22.617Z" transform="translate(6596 2497)" fill="#fff"/>
  </g>
</svg>
