<svg xmlns="http://www.w3.org/2000/svg" width="65.052" height="64.977" viewBox="0 0 65.052 64.977">
  <g id="Grupo_207" data-name="Grupo 207" transform="translate(-6603.802 -2646.578)">
    <path id="Caminho_719" data-name="Caminho 719" d="M7.8,165.579a1.676,1.676,0,0,1,1.255-.813c1.516-.273,3.02-.607,4.531-.9a1.031,1.031,0,0,1,1.4.737c.633,1.587,1.261,3.177,1.87,4.774.345.9-.14,1.667-1,1.521a1.318,1.318,0,0,1-.822-.654c-.452-.925-.81-1.9-1.238-2.931-.138.208-.26.364-.35.535a28.692,28.692,0,0,0-3.5,15.373c.688,11.14,5.863,19.62,15.423,25.362a27.459,27.459,0,0,0,11.919,3.749c1.011.088,2.027.107,3.04.167a.888.888,0,0,1,.935.707,1.429,1.429,0,0,1-.25,1.034,1.386,1.386,0,0,1-.971.319,30.836,30.836,0,0,1-11.8-2.31c-10.831-4.621-17.378-12.8-19.884-24.254-.229-1.048-.287-2.133-.43-3.2-.025-.184-.079-.363-.12-.545v-4.571a1.607,1.607,0,0,0,.114-.35,31.721,31.721,0,0,1,3.8-12.607c.055-.1.09-.217.165-.4-.833.165-1.594.309-2.351.468-.972.2-1.228.105-1.723-.7Z" transform="translate(6596 2497)" fill="#fff"/>
    <path id="Caminho_720" data-name="Caminho 720" d="M41.582,149.578c1.109.124,2.223.224,3.329.375a31.053,31.053,0,0,1,15.568,6.694,32.315,32.315,0,0,1,11.785,19.558,31.364,31.364,0,0,1-3.186,20.943c-.106.2-.209.409-.36.705.776-.16,1.468-.311,2.162-.442a7.643,7.643,0,0,1,.816-.083.916.916,0,0,1,1.072.839,1.037,1.037,0,0,1-.847,1.163c-.865.195-1.736.353-2.606.526-.765.153-1.535.284-2.294.464a.985.985,0,0,1-1.3-.59c-.7-1.72-1.384-3.443-2.037-5.179a.938.938,0,0,1,.583-1.239.961.961,0,0,1,1.311.543c.38.87.717,1.758,1.074,2.637.045.109.1.211.25.5.647-1.429,1.278-2.684,1.794-3.985a28.94,28.94,0,0,0,1.945-13.236,30.5,30.5,0,0,0-23.586-27.34c-2.066-.459-4.228-.488-6.342-.745a2.229,2.229,0,0,1-1.152-.376c-.549-.479-.3-1.229.493-1.737Z" transform="translate(6596 2497)" fill="#fff"/>
    <path id="Caminho_721" data-name="Caminho 721" d="M7.8,166.087c.495.8.751.9,1.723.7.757-.159,1.518-.3,2.351-.468-.075.185-.11.3-.165.4a31.726,31.726,0,0,0-3.8,12.607,1.607,1.607,0,0,1-.114.35V166.087" transform="translate(6596 2497)" fill="#fff"/>
    <path id="Caminho_722" data-name="Caminho 722" d="M41.552,186.087H39.077a13,13,0,0,1-2.524,4.83,19.246,19.246,0,0,1-7.774,5.839,7.976,7.976,0,0,1-10.556-5.648,7.78,7.78,0,0,1,2.325-7.81,8.046,8.046,0,0,1,8.366-1.795c1.574.472,3.105,1.091,4.69,1.519a17.035,17.035,0,0,0,2.708.3v-2.471a13.616,13.616,0,0,1-5.606-3.179,19.224,19.224,0,0,1-5.065-7.118A7.971,7.971,0,0,1,31.288,160a7.755,7.755,0,0,1,7.81,2.322,8.045,8.045,0,0,1,1.774,8.424c-.478,1.55-1.076,3.065-1.5,4.63a17.539,17.539,0,0,0-.307,2.711h2.476a13.474,13.474,0,0,1,3.133-5.558,19.278,19.278,0,0,1,7.161-5.113A7.969,7.969,0,0,1,62.4,173.064a7.755,7.755,0,0,1-2.321,7.811,8.045,8.045,0,0,1-8.365,1.8c-1.573-.472-3.1-1.092-4.689-1.52a17.274,17.274,0,0,0-2.71-.308v2.476a12.94,12.94,0,0,1,4.828,2.523,19.272,19.272,0,0,1,5.84,7.773A7.967,7.967,0,0,1,49.4,204.161a7.76,7.76,0,0,1-7.873-2.311,8.035,8.035,0,0,1-1.774-8.423c.476-1.551,1.076-3.066,1.495-4.631a17.408,17.408,0,0,0,.308-2.709m-4.569-7.2a20.324,20.324,0,0,1,.255-3.258c.427-1.775,1.038-3.506,1.592-5.25a7.02,7.02,0,0,0,.294-3.858,6.068,6.068,0,0,0-7.494-4.488,5.655,5.655,0,0,0-4.045,7.558,15.016,15.016,0,0,0,8.145,8.9,8.994,8.994,0,0,0,1.253.393m6.65,6.411a19.605,19.605,0,0,1-.248,3.221c-.425,1.776-1.034,3.508-1.588,5.251a7.024,7.024,0,0,0-.287,3.919,6.067,6.067,0,0,0,7.523,4.436,5.708,5.708,0,0,0,4-7.593,15.485,15.485,0,0,0-5.762-7.521,8.925,8.925,0,0,0-3.642-1.713m-6.532.117a22.739,22.739,0,0,1-3.278-.267c-1.534-.346-3.029-.871-4.529-1.356a8.744,8.744,0,0,0-4.144-.594,6.089,6.089,0,0,0-5,7.107,5.727,5.727,0,0,0,7.28,4.63,14.681,14.681,0,0,0,7.165-4.883,10.214,10.214,0,0,0,2.507-4.637m6.368-6.532a16.292,16.292,0,0,1,8,1.541c.215.085.436.157.658.224a7.011,7.011,0,0,0,3.741.252,6.076,6.076,0,0,0,4.491-7.494,5.658,5.658,0,0,0-7.557-4.048,15.033,15.033,0,0,0-8.9,8.143,10.792,10.792,0,0,0-.432,1.382m-1.133,3.188a2.026,2.026,0,1,0-2,2.013,1.968,1.968,0,0,0,2-2.013" transform="translate(6596 2497)" fill="#fff"/>
  </g>
</svg>
