<svg xmlns="http://www.w3.org/2000/svg" width="77.766" height="76.332" viewBox="0 0 77.766 76.332">
  <g id="Grupo_210" data-name="Grupo 210" transform="translate(-6597.445 -3144.251)">
    <path id="Caminho_740" data-name="Caminho 740" d="M1.445,647.251H79.211V722.3H70.039c-.042.457-.079.849-.12,1.282h-30.2v-66.2H13.266v64.886H1.445ZM68.469,657.4H41.2v64.73H68.469Zm1.552,63.394h7.745V648.708H2.876v72.106h8.85v-63.5H5.737v-4.78H74.943v4.8H70.021ZM7.2,655.812H73.482v-1.829H7.2Z" transform="translate(6596 2497)" fill="#fff"/>
    <path id="Caminho_741" data-name="Caminho 741" d="M27.63,695.872v-4.033H19v-4.147h8.63v-4.058l5.945,6.465-5.947,5.773m-7.212-5.445H29.1v2.1l2.368-2.737L29.053,687.2v1.88H20.418Z" transform="translate(6596 2497)" fill="#fff"/>
    <rect id="Retângulo_100" data-name="Retângulo 100" width="1.345" height="10.506" transform="translate(6659.065 3184.398)" fill="#fff"/>
  </g>
</svg>
