<svg xmlns="http://www.w3.org/2000/svg" width="37.072" height="72.02" viewBox="0 0 37.072 72.02">
  <g id="Grupo_214" data-name="Grupo 214" transform="translate(-7050.664 -2640.35)">
    <path id="Caminho_723" data-name="Caminho 723" d="M479.733,197.685c0,1.442,0,2.779,0,4.116,0,.963-.351,1.318-1.322,1.352-.38.013-.76,0-1.14,0h-1.183v.834q0,5.013,0,10.027c0,1.01-.345,1.346-1.369,1.349s-2.077.006-3.115,0c-.92-.006-1.284-.363-1.285-1.28q-.006-5.015,0-10.027v-.9c-.8,0-1.527.011-2.253,0-1.059-.019-1.39-.366-1.393-1.434,0-1.312,0-2.623,0-4.033-.89,0-1.716,0-2.542,0-3.128-.02-5.2-1.956-5.062-5.059a21.874,21.874,0,0,0-1.611-9.3c-.974-2.434-1.742-4.95-2.582-7.436a3.8,3.8,0,0,1-.2-1.181q-.018-8.28-.008-16.56c0-1.116.315-1.425,1.443-1.427h2.918V155.8q0-5.432,0-10.863c0-1.331.259-1.583,1.6-1.583h25.22c1.235,0,1.522.278,1.524,1.509q.006,5.471,0,10.939v.923c1.068,0,2.07,0,3.073,0,.923.006,1.286.36,1.287,1.276q0,8.433-.007,16.864a3.3,3.3,0,0,1-.2,1.031c-1.278,3.723-2.581,7.438-3.843,11.167a6.226,6.226,0,0,0-.3,1.774c-.044,1.29,0,2.582-.017,3.873a4.735,4.735,0,0,1-4.953,4.976c-.859.016-1.719,0-2.687,0m-22.914-38.809c-.013.181-.027.281-.027.38q0,7.595.006,15.188a3.063,3.063,0,0,0,.188.955c.8,2.341,1.505,4.717,2.436,7a22.505,22.505,0,0,1,1.788,10.4,2.421,2.421,0,0,0,2.621,2.676q9.378.012,18.757,0a2.5,2.5,0,0,0,2.622-2.624c.011-1.442-.027-2.886.017-4.328a6.463,6.463,0,0,1,.306-1.844c1.266-3.752,2.577-7.489,3.854-11.237a3.952,3.952,0,0,0,.214-1.252c.015-4.835.009-9.67.009-14.5v-.817Zm4.425-2.214H485.17V145.509H461.244Zm7.594,44.246h8.712v-3.184h-8.712Zm3.655,12.3h1.415V203.2h-1.415Z" transform="translate(6596 2497)" fill="#fff"/>
    <path id="Caminho_724" data-name="Caminho 724" d="M472.137,174.479c0-2.9,0-5.629,0-8.361,0-.937.595-1.446,1.378-1.2.615.192.751.661.749,1.246q-.014,5.81,0,11.617v.956c1.35-.81,2.567-1.616,3.856-2.284a1.606,1.606,0,0,0,1.024-1.832,14.719,14.719,0,0,1-.013-2.048,1.023,1.023,0,0,1,1.028-1.089,1.046,1.046,0,0,1,1.088,1.1c.017,1.265.07,2.536-.033,3.793a1.806,1.806,0,0,1-.8,1.146c-1.85,1.185-3.74,2.311-5.636,3.423a.867.867,0,0,0-.524.958,3.172,3.172,0,0,1,0,.682,1.8,1.8,0,0,0,.817,1.89,2.78,2.78,0,0,1,.2,4.157,2.867,2.867,0,0,1-4.243-.085,2.806,2.806,0,0,1,.372-4.154,1.578,1.578,0,0,0,.74-1.546c-.039-1.695-.036-3.392,0-5.087a1.1,1.1,0,0,0-.624-1.137c-1.859-1.077-3.675-2.226-5.53-3.31a1.522,1.522,0,0,1-.861-1.532c.048-1.112.007-2.227.015-3.341a1.07,1.07,0,1,1,2.121-.018c.01.885-.015,1.772.015,2.657a.85.85,0,0,0,.27.62c1.472.92,2.967,1.8,4.581,2.776M473.17,185.6c-.327.466-.72.792-.667,1.01.07.29.487.5.755.739.229-.256.626-.5.639-.771s-.373-.53-.727-.978" transform="translate(6596 2497)" fill="#fff"/>
    <path id="Caminho_725" data-name="Caminho 725" d="M485.964,165.151c0-1.163,0-2.326,0-3.489,0-.84.365-1.282,1.041-1.293s1.079.435,1.081,1.252q.009,3.6,0,7.206a1.11,1.11,0,0,1-1.04,1.24c-.634.014-1.077-.5-1.081-1.275-.007-1.214,0-2.427,0-3.641" transform="translate(6596 2497)" fill="#fff"/>
    <path id="Caminho_726" data-name="Caminho 726" d="M469.687,151.071c0,.582.018,1.164-.005,1.745a1.094,1.094,0,0,1-1.044,1.165c-.664.025-1.1-.379-1.118-1.151q-.049-1.744,0-3.489a1.023,1.023,0,0,1,1.064-1.128,1.092,1.092,0,0,1,1.1,1.189c.021.556,0,1.113,0,1.669" transform="translate(6596 2497)" fill="#fff"/>
    <path id="Caminho_727" data-name="Caminho 727" d="M478.881,151.171c0,.582.026,1.164-.007,1.744a1.007,1.007,0,0,1-1.047,1.065,1.056,1.056,0,0,1-1.1-1.1q-.045-1.782,0-3.566a1.055,1.055,0,0,1,1.1-1.1,1,1,0,0,1,1.051,1.059c.035.63.007,1.264.007,1.9" transform="translate(6596 2497)" fill="#fff"/>
  </g>
</svg>
