<svg xmlns="http://www.w3.org/2000/svg" width="92.191" height="92.203" viewBox="0 0 92.191 92.203">
  <g id="Grupo_211" data-name="Grupo 211" transform="translate(-7014.652 -3148.577)">
    <path id="Caminho_765" data-name="Caminho 765" d="M421.627,702.14V653.662c0-1.683.4-2.084,2.062-2.084H490.97c1.609,0,2.029.418,2.029,2.025v42.589h1.035q6.087,0,12.173,0a4.4,4.4,0,0,1,4.635,4.673q0,19.146,0,38.292a4.4,4.4,0,0,1-4.6,4.619q-10.268.006-20.537,0a4.4,4.4,0,0,1-4.6-4.617q0-13.43,0-26.86v-1.239H420.791c-1.749,0-2.137-.382-2.138-2.1q0-2.463,0-4.925c0-1.424.463-1.886,1.881-1.892.333,0,.666,0,1.092,0m55.054-14.871c.533,0,.966-.012,1.4,0a1.413,1.413,0,0,1,1.529,1.493q.033,2.973,0,5.948a1.381,1.381,0,0,1-1.456,1.467q-2.973.038-5.948,0a1.4,1.4,0,0,1-1.5-1.518q-.029-2.926,0-5.855a1.427,1.427,0,0,1,1.578-1.538c.449-.012.9,0,1.343,0v-2.918H430.616v17.742h50.49c0-.317.014-.589,0-.858a4.6,4.6,0,0,1,2.577-4.656,1.177,1.177,0,0,0,.382-.894c.031-2.448.018-4.9.018-7.343v-3.989h-7.4Zm31.19,32.81q0-9.432,0-18.863c0-1.54-.517-2.051-2.069-2.051q-9.8,0-19.6,0c-1.619,0-2.119.492-2.119,2.094q0,18.723,0,37.448c0,1.605.5,2.1,2.115,2.1q9.756,0,19.511,0c1.681,0,2.166-.48,2.166-2.142q0-9.293,0-18.585m-80.3-17.984V659.666c0-1.752.38-2.14,2.1-2.14h55.291c1.683,0,2.086.4,2.086,2.061q0,17.751,0,35.5v1.053h2.916V654.618H424.644v47.477Zm-5.913,5.924h59.4v-2.853h-59.4Zm62.376-47.456H430.623v2.862h53.415Zm-53.448,8.8h53.415v-2.866H430.59Zm.035,5.949h53.382v-2.9H430.625Zm53.416,3.1H430.593v2.856h53.448Zm-7.466,11.874h-2.854v2.894h2.854Z" transform="translate(6596 2497)" fill="#fff"/>
    <path id="Caminho_766" data-name="Caminho 766" d="M439.471,725.933c-1.484,0-2.842-.02-4.2.008a1.526,1.526,0,0,1-1.646-.932,1.593,1.593,0,0,1,.511-1.832c2.854-2.836,5.69-5.69,8.542-8.527a1.521,1.521,0,0,1,2.492-.012c2.875,2.859,5.732,5.735,8.605,8.595a1.547,1.547,0,0,1,.464,1.762,1.519,1.519,0,0,1-1.637.946c-1.358-.028-2.718-.008-4.213-.008v1.021q0,5.988,0,11.977c0,1.4-.475,1.87-1.9,1.873q-2.6,0-5.2,0c-1.34,0-1.818-.492-1.819-1.858q0-5.943,0-11.884Zm9.444-2.972-4.936-4.921-4.922,4.921c.419,0,1,0,1.588,0,1.3.008,1.794.5,1.8,1.792q.006,5.622,0,11.246v1.777h2.977v-1.059q0-6,0-11.99c0-1.246.5-1.753,1.727-1.766.612-.006,1.224,0,1.768,0" transform="translate(6596 2497)" fill="#fff"/>
    <path id="Caminho_767" data-name="Caminho 767" d="M469.208,728.91c1.487,0,2.846.02,4.2-.009a1.522,1.522,0,0,1,1.643.937,1.6,1.6,0,0,1-.517,1.832c-2.852,2.837-5.688,5.691-8.541,8.528a1.524,1.524,0,0,1-2.494,0c-2.852-2.837-5.688-5.691-8.542-8.527a1.6,1.6,0,0,1-.52-1.831,1.522,1.522,0,0,1,1.642-.939c1.358.029,2.716.009,4.206.009v-1.027q0-5.943,0-11.885c0-1.53.438-1.958,2-1.96q2.46,0,4.92,0c1.585,0,2,.427,2,2.05q0,5.848,0,11.7v1.123m-5.948-11.86c0,4.441,0,8.777,0,13.112,0,1.18-.524,1.7-1.684,1.718-.633.009-1.267,0-1.864,0l5.012,5.01,5.019-5.009c-.509,0-1.087,0-1.665,0-1.353-.007-1.838-.487-1.839-1.842q0-5.994,0-11.989v-1Z" transform="translate(6596 2497)" fill="#fff"/>
    <path id="Caminho_768" data-name="Caminho 768" d="M495.976,728.909a4.46,4.46,0,1,1-4.461,4.457,4.417,4.417,0,0,1,4.461-4.457m1.472,4.428a1.475,1.475,0,1,0-1.466,1.507,1.558,1.558,0,0,0,1.466-1.507" transform="translate(6596 2497)" fill="#fff"/>
    <path id="Caminho_769" data-name="Caminho 769" d="M500.014,705.561l-2.2,2.067-1.521-1.985-.44.035-1.588,2.219-2.222-2.4c.961-.978,1.942-2.05,3.007-3.03a1.34,1.34,0,0,1,1.935.069c1.009.954,1.968,1.961,3.026,3.025" transform="translate(6596 2497)" fill="#fff"/>
    <path id="Caminho_770" data-name="Caminho 770" d="M497.665,711.4l2.326,2.2c-1.038,1.047-2.01,2.084-3.047,3.051a1.335,1.335,0,0,1-1.935,0c-1.037-.968-2.008-2.007-3.047-3.057l2.265-2.047,1.619,2.011,1.819-2.159" transform="translate(6596 2497)" fill="#fff"/>
    <rect id="Retângulo_101" data-name="Retângulo 101" width="2.867" height="2.884" transform="translate(7084.585 3219.996)" fill="#fff"/>
    <rect id="Retângulo_102" data-name="Retângulo 102" width="2.874" height="2.858" transform="translate(7090.545 3220.009)" fill="#fff"/>
    <rect id="Retângulo_103" data-name="Retângulo 103" width="2.824" height="2.89" transform="translate(7096.514 3219.98)" fill="#fff"/>
  </g>
</svg>
