<svg xmlns="http://www.w3.org/2000/svg" width="66.136" height="66.283" viewBox="0 0 66.136 66.283">
  <g id="Grupo_218" data-name="Grupo 218" transform="translate(-7470.827 -2786.083)">
    <path id="Caminho_744" data-name="Caminho 744" d="M931.028,349.975h.788q3.834,0,7.666,0c.25,0,.561-.065.738.055.307.209.713.522.741.822s-.3.709-.579.94c-.189.157-.563.12-.855.12-4.106.007-8.216-.082-12.319.038-2.4.07-4.8.431-7.192.729-3.207.4-6.4.865-9.607,1.3q-4.872.663-9.743,1.322a6.5,6.5,0,0,1-.681.063.945.945,0,0,1-1.117-1.049c-.014-.771,0-1.543,0-2.4h-.849q-10.883,0-21.765-.005c-.291,0-.667.035-.853-.123-.277-.235-.6-.646-.568-.948s.442-.607.751-.812c.179-.119.488-.053.738-.054q3.832,0,7.666,0h.822V293.924c0-.228-.008-.457,0-.684.041-.827.361-1.132,1.2-1.133q6.024,0,12.046,0h.808c0-.669-.006-1.279,0-1.888.01-.829.353-1.2,1.171-1.126,2.156.185,4.309.406,6.462.621q4.42.439,8.839.893t8.837.9c1.927.2,3.853.392,5.779.593.791.082,1.072.391,1.072,1.2q0,7.5,0,14.991c0,.8-.35,1.213-.982,1.2-.6-.013-.927-.413-.928-1.178q0-6.777,0-13.554v-.81l-28.294-2.863v62.246l28.294-3.84v-.766q0-7.257,0-14.512c0-.73.369-1.165.956-1.161s.942.442.953,1.171c0,.16,0,.32,0,.479v15.272Zm-38.86-.047H898.8V299.567h-6.637Zm6.659-55.862H886.8v55.863h3.366V299.741c0-.274,0-.548,0-.822.018-.983.343-1.312,1.319-1.315,1.551-.005,3.1,0,4.653,0h2.687Z" transform="translate(6596 2497)" fill="#fff"/>
    <path id="Caminho_745" data-name="Caminho 745" d="M909.816,322.27a3.423,3.423,0,1,1-3.376-3.465,3.381,3.381,0,0,1,3.376,3.465m-1.915-.029a1.509,1.509,0,1,0-3.018.007,1.53,1.53,0,0,0,1.483,1.488,1.511,1.511,0,0,0,1.535-1.495" transform="translate(6596 2497)" fill="#fff"/>
    <path id="Caminho_746" data-name="Caminho 746" d="M929.119,325.959c0-.477-.02-.954.005-1.43a.905.905,0,0,1,.909-.917.927.927,0,0,1,.984.913c.027.952.025,1.906,0,2.859a.962.962,0,0,1-.947.965.983.983,0,0,1-.953-.96c0-.045,0-.091,0-.136v-1.294Z" transform="translate(6596 2497)" fill="#fff"/>
    <path id="Caminho_747" data-name="Caminho 747" d="M929.118,316.527c0-.455-.018-.911.005-1.364a.912.912,0,0,1,.96-.935.887.887,0,0,1,.932.894c.033.954.03,1.911,0,2.865a.913.913,0,0,1-.926.911.941.941,0,0,1-.966-.939c-.024-.476-.005-.954-.005-1.432" transform="translate(6596 2497)" fill="#fff"/>
  </g>
</svg>
