<svg xmlns="http://www.w3.org/2000/svg" width="63.676" height="75.331" viewBox="0 0 63.676 75.331">
  <g id="Grupo_219" data-name="Grupo 219" transform="translate(-7472.057 -2964.758)">
    <path id="Caminho_783" data-name="Caminho 783" d="M911.338,493.791q0,8.559-.009,17.117a1.2,1.2,0,0,0,.541,1.11c5.791,4.3,8.376,10.075,7.013,17.153-1.4,7.258-6.013,11.845-13.232,13.488A17.047,17.047,0,0,1,892.034,512.1a1.355,1.355,0,0,0,.68-1.271c-.021-11.161.033-22.322-.045-33.482a9.53,9.53,0,0,1,7.414-9.378,9.346,9.346,0,0,1,11.251,8.933c.017,5.631,0,11.261,0,16.891m-2.705.809c0-5.781.019-11.562-.006-17.343a6.6,6.6,0,1,0-13.206-.2q-.012,17.268.021,34.536a2.507,2.507,0,0,1-1.338,2.421,14.223,14.223,0,0,0-6.123,15.526,14.456,14.456,0,0,0,16.325,10.6,14.243,14.243,0,0,0,12.1-12.687,13.969,13.969,0,0,0-6.692-13.586,2.121,2.121,0,0,1-1.1-2.007c.036-5.756.018-11.512.018-17.268" transform="translate(6596 2497)" fill="#fff"/>
    <path id="Caminho_784" data-name="Caminho 784" d="M921.765,483.671l-4.422,6.389c-.114.165-.218.336-.334.5a1.359,1.359,0,0,1-2,.484,1.379,1.379,0,0,1-.238-2.046c.648-.979,1.3-1.957,1.975-2.917q1.876-2.669,3.785-5.313a1.387,1.387,0,0,1,2.474-.054c5.367,7.265,10.4,14.739,14.207,22.97a26.519,26.519,0,0,1,2.332,7.008,16.232,16.232,0,0,1-1.625,9.822,17.7,17.7,0,0,1-14.256,10.255,1.424,1.424,0,0,1-1.629-1.112,1.37,1.37,0,0,1,1.139-1.58,25.95,25.95,0,0,0,3.42-.773c6.069-2.3,9.462-6.734,10.308-13.165.378-2.88-.545-5.482-1.619-8.044a90.65,90.65,0,0,0-7.934-14.331c-1.636-2.511-3.377-4.955-5.073-7.428-.139-.2-.3-.389-.513-.663" transform="translate(6596 2497)" fill="#fff"/>
    <path id="Caminho_785" data-name="Caminho 785" d="M883.139,491.771c-1.849,0-3.7.006-5.547,0-.963-.005-1.537-.523-1.535-1.351a1.356,1.356,0,0,1,1.538-1.354q5.585-.008,11.169,0a1.364,1.364,0,1,1,0,2.7c-1.874.009-3.748,0-5.622,0" transform="translate(6596 2497)" fill="#fff"/>
    <path id="Caminho_786" data-name="Caminho 786" d="M925.227,523.6a1.4,1.4,0,0,1-1.39-.955,1.362,1.362,0,0,1,.6-1.626,37.374,37.374,0,0,0,3.234-2.41,14.167,14.167,0,0,0,3.507-4.99,1.332,1.332,0,0,1,1.418-.884,1.225,1.225,0,0,1,1.169,1,1.749,1.749,0,0,1-.1,1.006,18.011,18.011,0,0,1-7.743,8.58,5.076,5.076,0,0,1-.69.281" transform="translate(6596 2497)" fill="#fff"/>
    <path id="Caminho_787" data-name="Caminho 787" d="M886.112,483.226c.875,0,1.751-.014,2.626,0a1.406,1.406,0,0,1,1.571,1.359,1.381,1.381,0,0,1-1.522,1.4q-2.739.039-5.478,0a1.422,1.422,0,0,1-1.513-1.351,1.45,1.45,0,0,1,1.54-1.407c.925-.021,1.851,0,2.776,0" transform="translate(6596 2497)" fill="#fff"/>
    <path id="Caminho_788" data-name="Caminho 788" d="M886.1,494.868c.9,0,1.8-.016,2.7,0a1.365,1.365,0,0,1,1.505,1.326,1.385,1.385,0,0,1-1.516,1.4q-2.738.024-5.476,0a1.375,1.375,0,1,1,.01-2.735c.05,0,.1,0,.15,0H886.1" transform="translate(6596 2497)" fill="#fff"/>
    <path id="Caminho_789" data-name="Caminho 789" d="M905.928,495.548c0,6.156.008,12.312-.012,18.468a1.057,1.057,0,0,0,.648,1.1,13.13,13.13,0,0,1,6.4,6.482,11.771,11.771,0,1,1-22.508,6.579c-.943-4.833.714-8.751,4.7-11.646a16.8,16.8,0,0,1,2.3-1.394,1.1,1.1,0,0,0,.673-1.165q-.028-18.316-.027-36.634a3.82,3.82,0,0,1,2.161-3.724,3.883,3.883,0,0,1,5.651,3.47c.017,6.156.005,12.312.005,18.467m-2.72.854q0-9.345,0-18.691a4.078,4.078,0,0,0-.044-.821,1.072,1.072,0,0,0-1.177-.927c-.783.013-1.157.494-1.157,1.5q0,18.766.021,37.532a2.107,2.107,0,0,1-1.249,2.082,27.043,27.043,0,0,0-3.138,1.891,8.194,8.194,0,0,0-3.387,8.366,9,9,0,0,0,10.857,7.363,8.523,8.523,0,0,0,6.871-6.656,8.213,8.213,0,0,0-3.008-8.839,19.9,19.9,0,0,0-3.218-2.039,2.283,2.283,0,0,1-1.392-2.3c.049-6.154.023-12.31.023-18.465" transform="translate(6596 2497)" fill="#fff"/>
  </g>
</svg>
