<svg xmlns="http://www.w3.org/2000/svg" width="61.905" height="66.03" viewBox="0 0 61.905 66.03">
  <g id="Grupo_206" data-name="Grupo 206" transform="translate(-6605.376 -2505.619)">
    <path id="Caminho_762" data-name="Caminho 762" d="M59.42,8.619A2.445,2.445,0,0,1,60.985,11.2c-.032,9.951-.018,19.9-.018,29.852a5.985,5.985,0,0,1-.013.709,1.026,1.026,0,0,1-2.034.014,5.579,5.579,0,0,1-.015-.709V10.728H21.756V40.941c0,.172,0,.344,0,.516-.013.762-.4,1.208-1.037,1.2s-1.022-.448-1.023-1.217q0-15.345,0-30.69a2.238,2.238,0,0,1,1.551-2.134Z" transform="translate(6596 2497)" fill="#fff"/>
    <path id="Caminho_763" data-name="Caminho 763" d="M54.778,26.188H41.362v.721q0,7.124,0,14.248a4.317,4.317,0,0,1-.017.644,1,1,0,0,1-1.043.857.975.975,0,0,1-.981-.852,3.617,3.617,0,0,1-.02-.707q0-12.733,0-25.467v-.79H25.933v9.253h.675q4.74,0,9.479,0a1.018,1.018,0,0,1,1.143,1.03c0,.617-.437,1.008-1.148,1.027-.151,0-.3,0-.452,0H25.884v.723q0,7.156,0,14.313a2.8,2.8,0,0,1-.023.642,1.029,1.029,0,0,1-2.016,0,2.467,2.467,0,0,1-.022-.578q0-13.539,0-27.078c0-1.139.3-1.431,1.458-1.431H55.394c1.149,0,1.445.3,1.446,1.443q0,13.508,0,27.014a4.136,4.136,0,0,1-.014.579,1,1,0,0,1-1.028.875.978.978,0,0,1-1.006-.9,3.945,3.945,0,0,1-.013-.644q0-7.092,0-14.183v-.745m-.043-11.332H41.392v9.207H54.735Z" transform="translate(6596 2497)" fill="#fff"/>
    <path id="Caminho_764" data-name="Caminho 764" d="M13.24,46.851c-1.234-.156-1.535.041-1.818,1.166a1.032,1.032,0,0,1-2.045-.238,3.106,3.106,0,0,1,2.772-3.039c.171-.013.343-.01.515-.01H67.99a3.071,3.071,0,0,1,3.218,2.408,2.127,2.127,0,0,1,.032.951.936.936,0,0,1-.989.759.99.99,0,0,1-1.009-.825c-.3-1.133-.572-1.321-1.857-1.172.154.965.3,1.929.464,2.891.659,3.975,1.372,7.942,1.963,11.927a7.982,7.982,0,0,1-1.315,5.84,7.164,7.164,0,0,0-1.343,5.124,5.328,5.328,0,0,1,0,.838,1.148,1.148,0,0,1-1.189,1.173c-.172.008-.344,0-.516,0H15.218c-1.405,0-1.8-.312-1.7-1.684a8.414,8.414,0,0,0-1.441-5.621c-1.531-2.26-1.464-4.837-.989-7.452.766-4.216,1.437-8.45,2.145-12.677a2.38,2.38,0,0,0,0-.362M65.052,70.568H15.6v1.987H65.052ZM46.6,46.811c.065,7.245.13,14.421.195,21.619h3.041a15.092,15.092,0,0,0,1.07-6.5c-.163-1.406-.258-2.82-.369-4.231-.234-2.973-.456-5.946-.688-8.918-.051-.655-.123-1.307-.185-1.967Zm-12.538.01H31.025a2.651,2.651,0,0,0-.091.385q-.208,2.6-.409,5.2c-.229,2.952-.368,5.914-.714,8.852a15.249,15.249,0,0,0,1.046,7.2c.952,0,1.917,0,2.882,0,.08,0,.161-.027.1-.015.075-7.217.149-14.379.225-21.618M23.3,68.458c-.12-.317-.225-.57-.314-.829-.28-.809-.6-1.608-.819-2.432a11.859,11.859,0,0,1-.019-4.541c.3-2.557.574-5.116.857-7.675.226-2.042.449-4.085.676-6.16H20.61c-.05.218-.106.423-.141.632Q19.385,53.92,18.3,60.388a7.99,7.99,0,0,0,.119,4.5,34.963,34.963,0,0,0,1.761,3.35.549.549,0,0,0,.411.209c.877.019,1.754.01,2.7.01m34.114,0a4.774,4.774,0,0,1,.893.008c1.584.323,2.464-.376,3.176-1.783a8.8,8.8,0,0,0,.969-5.7c-.612-3.461-1.158-6.933-1.735-10.4-.209-1.259-.429-2.516-.638-3.744H56.98c.169,1.5.334,2.945.5,4.395q.493,4.413.982,8.826a13.581,13.581,0,0,1,.035,5.181c-.3,1.067-.7,2.1-1.084,3.219m-5.364,0c.961,0,1.861.01,2.761-.011a.494.494,0,0,0,.371-.243,36.241,36.241,0,0,0,1.268-3.5c.469-1.745.005-3.5-.169-5.243-.3-2.966-.649-5.927-.981-8.89-.14-1.25-.287-2.5-.429-3.732H51.784c.137,1.7.272,3.347.4,4.994.244,3.059.461,6.121.74,9.178a13.527,13.527,0,0,1-.472,5.974c-.166.458-.265.94-.411,1.468m-23.429,0c-.133-.466-.246-.875-.368-1.28a11.951,11.951,0,0,1-.634-4.748c.147-1.365.229-2.737.34-4.107q.3-3.658.592-7.317c.111-1.383.214-2.766.323-4.173H25.793c-.188,1.656-.376,3.273-.555,4.891-.32,2.9-.514,5.82-.986,8.695a12.234,12.234,0,0,0,1.2,7.725.587.587,0,0,0,.4.3c.9.027,1.8.014,2.763.014m10.638-.019v-21.6H36.13c0,1.4.013,2.757,0,4.109-.056,4.7-.139,9.406-.173,14.109-.008,1.124.136,2.248.211,3.378Zm2.118-.034H44.52c.441-7.193-.077-14.386-.05-21.56h-3.1ZM15.451,46.791c-.056.275-.109.5-.148.734-.672,4.011-1.364,8.02-2,12.037a24.3,24.3,0,0,0-.339,3.755c0,1.894,1.122,3.375,2.049,4.912a.438.438,0,0,0,.281.213c.818.017,1.637.01,2.549.01-.237-.4-.4-.674-.563-.949a8.812,8.812,0,0,1-1.267-5.859c.6-3.981,1.305-7.944,1.964-11.914.159-.96.307-1.921.465-2.916-.194-.011-.3-.022-.4-.022H15.451M62.9,68.458c.207,0,.357,0,.506,0,.706-.016,1.543.2,2.081-.113s.781-1.137,1.146-1.741a7.846,7.846,0,0,0,.97-5.622c-.612-3.479-1.16-6.969-1.739-10.454-.206-1.239-.426-2.475-.638-3.706H62.264a2.63,2.63,0,0,0,0,.41c.707,4.223,1.4,8.448,2.137,12.666a10.7,10.7,0,0,1-.231,5.891c-.348.887-.817,1.727-1.27,2.669" transform="translate(6596 2497)" fill="#fff"/>
  </g>
</svg>
