<svg xmlns="http://www.w3.org/2000/svg" width="90.094" height="77.839" viewBox="0 0 90.094 77.839">
  <g id="Grupo_213" data-name="Grupo 213" transform="translate(-7024.153 -2801.497)">
    <path id="Caminho_728" data-name="Caminho 728" d="M518.247,362.948a2.488,2.488,0,0,0-.186.372,5.928,5.928,0,0,1-5.74,4.346c-1.519.03-3.038.005-4.674.005,0,1.677.015,3.278,0,4.88a3.361,3.361,0,0,1-2.621,3.493,4.5,4.5,0,0,1-1.045.088q-3.96.011-7.918,0c-1.881,0-2.042-.144-2.216-2a8.8,8.8,0,0,0-17.516-.193c-.008.087-.018.175-.027.262-.184,1.763-.365,1.929-2.1,1.929h-7.479q-4.705,0-9.413,0c-1.362,0-1.785-.318-1.81-1.666a8.807,8.807,0,0,0-17.5-.94c-.029.233-.068.464-.1.7-.215,1.813-.323,1.909-2.187,1.909-1.994,0-3.988,0-5.982,0-1.166,0-1.571-.415-1.572-1.59,0-3.489-.014-6.979,0-10.469a12.186,12.186,0,0,1,11.327-11.85,2.326,2.326,0,0,0,1.91-.949c2.223-2.761,4.367-5.612,6.833-8.144a29.479,29.479,0,0,1,18.718-8.888,32.063,32.063,0,0,1,20.336,4.274,34.353,34.353,0,0,1,9.279,8.512c1.189,1.526,2.383,3.05,3.63,4.528a1.885,1.885,0,0,0,1.151.571c.842.087,1.7.019,2.549.028,2.431.027,3.743,1.338,3.75,3.764.009,2.727,0,5.455,0,8.182v.956c1.914,0,3.761.128,5.582-.04a3.157,3.157,0,0,0,2.556-3.243c.017-2.581.005-5.162.005-7.742q0-11.219,0-22.435a13.2,13.2,0,0,0-10.63-13.244,10.784,10.784,0,0,0-2.262-.267q-15.088-.027-30.176-.013c-.145,0-.29.012-.29.012a30.8,30.8,0,0,1-1.738,4.422,11.024,11.024,0,0,1-9.9,5.768c-1.729.032-3.461-.02-5.19.027a1.642,1.642,0,0,0-1.018.463,2.9,2.9,0,0,1-3.277.823,2.806,2.806,0,0,1-1.884-2.707c-.01-.525,0-1.05,0-1.677-.369-.018-.679-.045-.988-.046-2.346-.009-4.692.011-7.037-.028a2.765,2.765,0,0,1-2.612-1.992,2.708,2.708,0,0,1,1.119-3.084,4.076,4.076,0,0,1,1.9-.526c2.489-.058,4.981-.024,7.542-.024v-5.279c-.3-.015-.61-.042-.92-.043-2.287,0-4.575.018-6.862-.012a2.9,2.9,0,0,1-2.806-2.128,2.747,2.747,0,0,1,1.37-3.141,4.287,4.287,0,0,1,1.771-.368c2.14-.042,4.282-.017,6.422-.017h1.039c.025-.441.052-.808.064-1.175a2.756,2.756,0,0,1,1.619-2.525,2.955,2.955,0,0,1,3.009.2,2.546,2.546,0,0,0,1.2.365c1.671.04,3.346.08,5.014.005a11.562,11.562,0,0,1,11.952,10.228h1.022c9.619,0,19.239.1,28.856-.031a15.852,15.852,0,0,1,16.005,13.524,1.8,1.8,0,0,0,.153.407Zm-60.3,10.688h15.842a11.368,11.368,0,0,1,22.585.039c2.617,0,5.249.015,7.881-.01.654-.006.881-.475.881-1.084q0-8.445,0-16.889c0-.724-.333-1.063-1.081-1.047a31.141,31.141,0,0,1-3.6-.028,2.562,2.562,0,0,1-1.557-.746c-1.2-1.359-2.315-2.8-3.421-4.241a34.734,34.734,0,0,0-9.214-8.831,29.6,29.6,0,0,0-18.863-4.107,27.534,27.534,0,0,0-18.215,9.009c-2.234,2.436-4.242,5.084-6.291,7.684a2.99,2.99,0,0,1-2.579,1.3,9.7,9.7,0,0,0-9.691,9.742c-.015,2.7,0,5.4,0,8.093v1.164c1.459,0,2.8-.023,4.147.01.549.014.731-.147.817-.717a11.3,11.3,0,0,1,22.367.66m-2.607-47.958a61.286,61.286,0,0,0,6.88-.047,8.714,8.714,0,0,0,7.467-7.535,8.979,8.979,0,0,0-5.8-9.681c-2.783-1.009-5.666-.363-8.551-.571Zm-2.525-8.569q0-4.482,0-8.965a2.058,2.058,0,0,0-.03-.7c-.068-.179-.283-.3-.433-.451-.149.15-.351.277-.43.458a1.629,1.629,0,0,0-.027.608q0,9.1,0,18.192a2.28,2.28,0,0,0,.05.694.49.49,0,0,0,.366.288.624.624,0,0,0,.45-.3,1.86,1.86,0,0,0,.052-.692q0-4.57,0-9.14m-3.474,5.565.125-.324c-.238-.125-.474-.354-.715-.359-1.641-.032-3.283-.017-4.925-.017-.675,0-1.351-.027-2.022.018-.209.014-.4.224-.608.344.2.112.4.315.6.321,1.025.034,2.052.016,3.078.016h4.467m-4.024-10.991c1.2,0,2.4.014,3.6-.016.165,0,.325-.221.487-.34-.166-.107-.331-.3-.5-.307q-3.553-.03-7.106,0c-.2,0-.4.206-.6.316.2.116.4.325.611.33,1.169.033,2.339.016,3.509.016" transform="translate(6596 2497)" fill="#fff"/>
    <path id="Caminho_729" data-name="Caminho 729" d="M446.617,382.31a7.421,7.421,0,1,1,7.544-7.4,7.419,7.419,0,0,1-7.544,7.4m.137-12.353a4.947,4.947,0,1,0,4.9,4.931,4.917,4.917,0,0,0-4.9-4.931" transform="translate(6596 2497)" fill="#fff"/>
    <path id="Caminho_730" data-name="Caminho 730" d="M485.2,367.473a7.434,7.434,0,1,1-.562,14.853,7.561,7.561,0,0,1-7.019-7.58,7.454,7.454,0,0,1,7.581-7.273m-.1,2.484a4.947,4.947,0,1,0,4.952,4.986,4.954,4.954,0,0,0-4.952-4.986" transform="translate(6596 2497)" fill="#fff"/>
    <path id="Caminho_731" data-name="Caminho 731" d="M483.545,354.651q-4.925,0-9.851,0c-1.328,0-1.721-.4-1.722-1.729q0-6.157,0-12.314c0-1.5.5-1.866,2.024-1.69,8.076.938,14.311,4.952,19.127,11.368.527.7,1.155,1.339,1.611,2.083.262.427.515,1.138.33,1.485a1.873,1.873,0,0,1-1.4.764c-3.37.065-6.743.034-10.115.034m7.794-2.553c-4.237-5.87-9.66-9.607-16.872-10.611V352.1Z" transform="translate(6596 2497)" fill="#fff"/>
    <path id="Caminho_732" data-name="Caminho 732" d="M457.7,354.652c-3.283,0-6.567-.006-9.851,0-.677,0-1.327-.062-1.651-.746-.3-.646.029-1.163.432-1.674,2.507-3.178,4.989-6.366,8.375-8.709a26.89,26.89,0,0,1,12.711-4.654c1.1-.115,1.611.378,1.612,1.529q.006,6.333,0,12.666c0,1.141-.435,1.577-1.6,1.58-3.342.009-6.684,0-10.027,0m9.141-13.167c-7.235,1.026-12.648,4.757-16.864,10.6h16.864Z" transform="translate(6596 2497)" fill="#fff"/>
    <path id="Caminho_733" data-name="Caminho 733" d="M460.71,316.145c1,0,1.792-.015,2.58,0a1.214,1.214,0,0,1,1.057,2c-1.013,1.468-2.078,2.9-3.146,4.329a1.256,1.256,0,0,1-1.771.352,1.237,1.237,0,0,1-.22-1.788c.525-.772,1.087-1.52,1.756-2.448a15.592,15.592,0,0,1-2.341-.03,2.048,2.048,0,0,1-1.348-.7,1.649,1.649,0,0,1,.2-1.415c1.1-1.656,2.28-3.258,3.453-4.864a1.21,1.21,0,0,1,1.809-.431,1.249,1.249,0,0,1,.2,1.855c-.69,1-1.412,1.986-2.229,3.13" transform="translate(6596 2497)" fill="#fff"/>
  </g>
</svg>
