<svg xmlns="http://www.w3.org/2000/svg" width="59.342" height="74.582" viewBox="0 0 59.342 74.582">
  <g id="Grupo_217" data-name="Grupo 217" transform="translate(-7474.224 -2642.357)">
    <path id="Caminho_743" data-name="Caminho 743" d="M935.57,145.357a3.047,3.047,0,0,1,2,3.261c-.041,5.243-.015,10.487-.017,15.73a5.744,5.744,0,0,1-.028.8,1.093,1.093,0,0,1-1.119,1.024,1.11,1.11,0,0,1-1.091-1.066,4.456,4.456,0,0,1-.012-.654q0-7.976,0-15.949c0-.959,0-.961-.982-.961H918.562v8.9c1.059,0,2.144-.069,3.216.026a4.3,4.3,0,0,1,1.811.6,2.364,2.364,0,0,1,.992,2.154c.007,2.014.025,4.03,0,6.044a2.646,2.646,0,0,1-2.916,2.806c-1.015,0-2.031,0-3.093,0v10.55H935.3v-.8c0-2.5,0-5,0-7.5,0-.841.353-1.31,1-1.361a1,1,0,0,1,1.179.83,4.038,4.038,0,0,1,.067.867q.006,20.172.008,40.345a3.129,3.129,0,0,1-1.094,2.719.906.906,0,0,0-.236.628c-.026.922,0,1.845-.015,2.767a2.587,2.587,0,0,1-2.858,2.828q-19.918,0-39.835,0a2.738,2.738,0,0,1-.581-.015,1.093,1.093,0,0,1,0-2.15,3.519,3.519,0,0,1,.727-.017H932.91c1.071,0,1.071,0,1.071-1.094,0-.774,0-1.548,0-2.382h-52.16c0,1.015-.029,2.051.033,3.081.009.145.459.373.708.378,1.868.032,3.738.018,5.607.019a1.088,1.088,0,0,1,.536,2.041,1.424,1.424,0,0,1-.624.134c-1.99.01-3.981.017-5.971,0a2.466,2.466,0,0,1-2.483-2.28c-.079-1.087-.019-2.184-.064-3.274a1.13,1.13,0,0,0-.318-.731,2.84,2.84,0,0,1-1-2.1c-.01-.218-.007-.437-.007-.655q0-31.132-.017-62.266a3.066,3.066,0,0,1,2-3.26Zm-36.048,46.125c1.122,0,2.207-.02,3.291,0a2.6,2.6,0,0,1,2.742,2.811c.007,1.894,0,3.787,0,5.68,0,2.139-.959,3.088-3.119,3.092-.961,0-1.923,0-2.913,0v8.82h16.724v-31c-2.2,0-4.329.006-6.464,0-.848,0-1.32-.416-1.321-1.115,0-.716.431-1.1,1.319-1.1,1.893-.012,3.786,0,5.68-.006.259,0,.517-.023.792-.035V147.583H899.534v8.855c1.119,0,2.185-.006,3.25,0a2.632,2.632,0,0,1,2.771,2.794c.008,1.893,0,3.786,0,5.68,0,2.176-.974,3.15-3.15,3.15h-2.885v10.6h.817c1.359,0,2.719-.01,4.078.006.8.01,1.276.432,1.283,1.083.007.677-.5,1.123-1.322,1.132-1.093.011-2.185,0-3.277,0h-1.579Zm-2.3-12.856V147.58a2.308,2.308,0,0,0-.264-.035c-5.243,0-10.486,0-15.729-.013-.589,0-.747.236-.74.784.022,1.845.008,3.689.008,5.534v2.588c1.124,0,2.162,0,3.2,0a2.6,2.6,0,0,1,2.82,2.8q.024,3.022,0,6.044a2.6,2.6,0,0,1-2.848,2.777c-1.036,0-2.072,0-3.123,0v10.563Zm-16.689,24.443c-.015.314-.034.55-.035.786q0,3.568,0,7.137c0,.956,0,.959.967.959H897.22V180.938H880.553v10.543c1.076,0,2.093-.01,3.109,0a2.576,2.576,0,0,1,2.851,2.832q.018,2.949,0,5.9a2.581,2.581,0,0,1-2.9,2.854c-1.013.007-2.026,0-3.087,0m38.026,8.882h15.8c.942,0,.944,0,.944-.983V180.935H918.575V191.48c1.044,0,2.035,0,3.026,0a2.65,2.65,0,0,1,2.981,2.948q.018,2.838,0,5.678a2.645,2.645,0,0,1-2.96,2.961c-1.012.006-2.024,0-3.068,0ZM899.52,165.816c1.157,0,2.244.025,3.326-.026a.748.748,0,0,0,.474-.552q.052-2.978,0-5.955c0-.206-.284-.576-.449-.584-1.1-.053-2.21-.027-3.352-.027Zm.019,27.889v7.153c1.1,0,2.141-.011,3.182.006.442.007.62-.2.62-.61q0-2.982,0-5.965c0-.364-.141-.593-.561-.588-1.064.011-2.129,0-3.24,0m19.012-35.037v7.144c1.136,0,2.245.017,3.351-.021a.622.622,0,0,0,.411-.446q.042-3.086,0-6.17a.684.684,0,0,0-.456-.485c-1.082-.044-2.166-.022-3.3-.022m-38.019,7.151h3.237c.4,0,.544-.206.542-.6-.011-1.988.008-3.976-.026-5.964,0-.2-.292-.553-.46-.561-1.083-.052-2.169-.027-3.293-.027Zm-.015,35.038c1.134,0,2.2.025,3.256-.023a.733.733,0,0,0,.508-.5q.055-3.05,0-6.1c0-.177-.275-.495-.433-.5-1.1-.044-2.207-.024-3.335-.024Zm38.053-7.152v7.152c1.112,0,2.175.025,3.236-.023a.728.728,0,0,0,.5-.5q.052-3.052,0-6.106a.728.728,0,0,0-.5-.5c-1.061-.047-2.125-.023-3.237-.023" transform="translate(6596 2497)" fill="#fff"/>
  </g>
</svg>
