<svg xmlns="http://www.w3.org/2000/svg" width="89.66" height="72.963" viewBox="0 0 89.66 72.963">
  <g id="Grupo_221" data-name="Grupo 221" transform="translate(-7874.658 -2970.962)">
    <path id="Caminho_790" data-name="Caminho 790" d="M1323.49,473.963q20.1,0,40.194,0c2.383,0,3.94,1.065,4.492,3.073a4.235,4.235,0,0,1,.13,1.112c0,8.315.033,16.63-.017,24.945a9.412,9.412,0,0,1-8.85,9.163c-.658.034-1.317.056-1.975.056q-34.217,0-68.433.015a10.093,10.093,0,0,1-7.467-2.718,9.035,9.035,0,0,1-2.889-6.62q-.03-12.426-.008-24.85a4.047,4.047,0,0,1,3.971-4.162c.344-.021.69-.015,1.035-.015h39.817m-32.25,3.215c0,3.466-.011,6.819,0,10.172.014,3.322,2.074,5.367,5.419,5.368q26.821.008,53.644,0c3.349,0,5.408-2.04,5.424-5.364.015-3.106.005-6.212,0-9.317,0-.273-.033-.545-.054-.859Zm67.453-.3v1.087c0,3.169.008,6.338,0,9.507a8.009,8.009,0,0,1-8.21,8.2q-27.015.011-54.03,0a8.01,8.01,0,0,1-8.168-8.15c-.012-3.2,0-6.4,0-9.6v-1.062h-4.63c-1.793,0-2.083.287-2.084,2.068q0,11.531,0,23.062a15.893,15.893,0,0,0,.1,1.783,6.484,6.484,0,0,0,6.606,5.524c0-.991,0-1.99,0-2.989a6.119,6.119,0,0,1,6.234-6.271q28.992-.02,57.983,0a6.115,6.115,0,0,1,6.194,6.216c.007,1.028,0,2.057,0,3.188.7-.123,1.29-.176,1.853-.335,3.086-.876,4.852-3.365,4.857-6.876q.018-11.719,0-23.438a7.249,7.249,0,0,0-.028-.752,1.155,1.155,0,0,0-1.157-1.148c-1.809-.047-3.621-.016-5.528-.016m-67.4,32.46h64.441c0-.9-.06-1.751.011-2.586.206-2.439-1.524-3.79-3.8-3.782-18.979.059-37.959.033-56.939.034-.314,0-.628-.01-.941.013a3.007,3.007,0,0,0-2.745,2.44c-.125,1.266-.027,2.553-.027,3.881" transform="translate(6596 2497)" fill="#fff"/>
    <path id="Caminho_791" data-name="Caminho 791" d="M1301.068,533.764a5.946,5.946,0,0,1-6.332-5.189,5.776,5.776,0,0,1,4.345-6.209,5.618,5.618,0,0,1,3.855.337,1.516,1.516,0,0,1,.909,2,1.438,1.438,0,0,1-2.045.7,2.875,2.875,0,0,0-4.142,2.915,2.987,2.987,0,0,0,3.039,2.526,6.5,6.5,0,0,0,5.481-2.959,23.163,23.163,0,0,0,3.748-9.034c.272-1.179.882-1.7,1.849-1.512.9.172,1.3.991,1.05,2.152a24.715,24.715,0,0,1-4.694,10.736,8.923,8.923,0,0,1-7.063,3.534" transform="translate(6596 2497)" fill="#fff"/>
    <path id="Caminho_792" data-name="Caminho 792" d="M1345.866,533.75c-3.159.036-5.54-1.547-7.406-4.015a25.934,25.934,0,0,1-4.388-10.666,1.475,1.475,0,0,1,1.127-1.709,1.532,1.532,0,0,1,1.823,1.22c.571,1.945,1.064,3.921,1.776,5.813a11.5,11.5,0,0,0,3.61,5.181,5.374,5.374,0,0,0,4.75,1.161,2.876,2.876,0,0,0,2.075-3.647,2.909,2.909,0,0,0-3.705-1.823c-.148.049-.288.123-.435.175a1.474,1.474,0,0,1-1.958-.751,1.489,1.489,0,0,1,.911-1.992,5.768,5.768,0,0,1,7.938,6.948,5.914,5.914,0,0,1-6.118,4.1" transform="translate(6596 2497)" fill="#fff"/>
    <path id="Caminho_793" data-name="Caminho 793" d="M1325.434,519.062a1.869,1.869,0,0,1,1.565-1.651,1.529,1.529,0,0,1,1.566,1.527A45.667,45.667,0,0,0,1332,533.1c1.684,3.822,3.919,7.232,7.674,9.34a21.4,21.4,0,0,0,3.456,1.417c1.024.356,1.572.977,1.382,1.785a1.615,1.615,0,0,1-2.146,1.111,16.663,16.663,0,0,1-8.6-5.256c-3.518-3.893-5.447-8.592-6.659-13.6-.7-2.91-1.123-5.889-1.67-8.837" transform="translate(6596 2497)" fill="#fff"/>
    <path id="Caminho_794" data-name="Caminho 794" d="M1304.109,546.925c-.961-.213-1.6-.693-1.669-1.473a1.344,1.344,0,0,1,1.062-1.561c5.828-1.294,9.012-5.45,11.333-10.495a44.386,44.386,0,0,0,3.559-14.329c.117-1.18.708-1.824,1.644-1.717.92.106,1.349.87,1.251,2.051a45.568,45.568,0,0,1-4.073,15.917c-2,4.227-4.776,7.82-9.038,10a42.919,42.919,0,0,1-4.069,1.6" transform="translate(6596 2497)" fill="#fff"/>
    <path id="Caminho_795" data-name="Caminho 795" d="M1302.771,489.461c-1.409,0-2.819.009-4.228,0a1.515,1.515,0,0,1-1.7-1.474,1.5,1.5,0,0,1,1.616-1.478q4.321-.042,8.644,0a1.553,1.553,0,0,1,1.666,1.539c-.037.855-.715,1.408-1.77,1.416-1.409.009-2.819,0-4.228,0" transform="translate(6596 2497)" fill="#fff"/>
    <path id="Caminho_796" data-name="Caminho 796" d="M1315.6,489.46c-.937,0-1.876.02-2.812-.006a1.447,1.447,0,0,1-1.536-1.426,1.406,1.406,0,0,1,1.372-1.5q3.044-.092,6.092,0a1.387,1.387,0,0,1,1.38,1.567,1.416,1.416,0,0,1-1.5,1.358c-1,.027-2,.006-3,.006" transform="translate(6596 2497)" fill="#fff"/>
  </g>
</svg>
