<svg xmlns="http://www.w3.org/2000/svg" width="84.76" height="69.848" viewBox="0 0 84.76 69.848">
  <g id="Grupo_215" data-name="Grupo 215" transform="translate(-7026.82 -2503.71)">
    <path id="Caminho_771" data-name="Caminho 771" d="M484.529,6.75h2.32a3.519,3.519,0,0,1-1.038,2.773,18.994,18.994,0,0,1-2.049,1.657c-.527.4-1.117.715-1.627,1.131a1.478,1.478,0,0,0-.038,2.522c.523.443,1.133.78,1.691,1.184a16.589,16.589,0,0,1,1.705,1.3,4.1,4.1,0,0,1,0,6.21c-.739.689-1.67,1.167-2.446,1.822-.588.495-1.061,1.126-1.6,1.68a.758.758,0,0,1-.46.232c-.739.024-1.48.011-2.294.011a3.593,3.593,0,0,1,1.23-2.983,26.2,26.2,0,0,1,2.717-2.007c1.985-1.346,1.984-2.37-.008-3.71a21.319,21.319,0,0,1-2.6-1.9,4.051,4.051,0,0,1-.019-6.138c.8-.745,1.793-1.274,2.646-1.967.615-.5,1.144-1.107,1.869-1.822" transform="translate(6596 2497)" fill="#fff"/>
    <path id="Caminho_772" data-name="Caminho 772" d="M461.9,27.227h-2.372a3.67,3.67,0,0,1,1.157-2.836,26.139,26.139,0,0,1,2.211-1.72c.484-.363,1.019-.667,1.468-1.067a1.407,1.407,0,0,0,0-2.344c-.782-.647-1.668-1.166-2.5-1.757a5.222,5.222,0,0,1-2.13-2.559,3.868,3.868,0,0,1,.989-4.257c.867-.827,1.955-1.419,2.9-2.178a24.348,24.348,0,0,0,1.748-1.75h2.338a3.367,3.367,0,0,1-.908,2.606,14.553,14.553,0,0,1-1.867,1.614c-.522.4-1.119.708-1.65,1.1-1.362,1.006-1.357,2.033.022,3.034.734.533,1.525.99,2.256,1.528,2.948,2.169,2.955,5.392.02,7.558-.642.473-1.361.846-1.98,1.345-.557.45-1.027,1.009-1.7,1.683" transform="translate(6596 2497)" fill="#fff"/>
    <path id="Caminho_773" data-name="Caminho 773" d="M474.907,6.757h2.386a3.556,3.556,0,0,1-1.021,2.726,18.77,18.77,0,0,1-2.037,1.672c-.547.417-1.166.743-1.692,1.183a1.472,1.472,0,0,0,0,2.519c.506.42,1.1.739,1.628,1.13a16.133,16.133,0,0,1,1.885,1.47,4.045,4.045,0,0,1,.011,5.913c-.843.814-1.912,1.389-2.834,2.127-.577.463-1.07,1.029-1.787,1.731h-2.344a3.719,3.719,0,0,1,1.148-2.843,15.746,15.746,0,0,1,1.8-1.447c.487-.36,1.029-.646,1.513-1.008,1.321-.988,1.327-2.015.008-3-1.014-.757-2.123-1.4-3.073-2.228a3.731,3.731,0,0,1-1.2-4.335A7.261,7.261,0,0,1,471.1,9.974c.641-.624,1.522-.994,2.228-1.562a17.87,17.87,0,0,0,1.581-1.655" transform="translate(6596 2497)" fill="#fff"/>
    <path id="Caminho_774" data-name="Caminho 774" d="M449.988,27.274a3.562,3.562,0,0,1,1.034-2.78,16.88,16.88,0,0,1,1.774-1.475c.392-.3.833-.538,1.245-.813,1.843-1.232,1.85-2.3.029-3.534-.752-.509-1.527-.989-2.249-1.54a4.348,4.348,0,0,1-1.789-2.689,4.2,4.2,0,0,1,1.677-4.3c.777-.611,1.666-1.083,2.435-1.7a12.014,12.014,0,0,0,1.216-1.385.868.868,0,0,1,.479-.323c.738-.035,1.479-.015,2.28-.015a3.592,3.592,0,0,1-1.257,3.064c-.777.692-1.67,1.253-2.515,1.868-.2.145-.418.267-.618.414-1.356,1-1.37,2.043-.007,3.045.732.538,1.528.987,2.26,1.524,2.978,2.184,2.964,5.444-.031,7.617-.691.5-1.429.934-2.127,1.425-.29.2-.68.431-.768.725-.3,1.012-1.059.9-1.82.879-.406-.015-.812,0-1.248,0" transform="translate(6596 2497)" fill="#fff"/>
    <path id="Caminho_775" data-name="Caminho 775" d="M494.075,6.761h2.318a3.418,3.418,0,0,1-1.157,2.917c-.832.752-1.794,1.361-2.7,2.031-.309.229-.646.427-.929.684a1.447,1.447,0,0,0-.016,2.355c.734.616,1.575,1.1,2.361,1.661a4.994,4.994,0,0,1,2.441,3.37,3.921,3.921,0,0,1-1.257,3.668c-.795.711-1.75,1.241-2.569,1.929a21.639,21.639,0,0,0-1.54,1.631.766.766,0,0,1-.453.252c-.739.026-1.479.012-2.267.012a3.29,3.29,0,0,1,1.014-2.8,14.672,14.672,0,0,1,1.845-1.516c.483-.364,1.022-.653,1.509-1.011,1.358-1,1.359-2.038-.008-3.034-.823-.6-1.711-1.113-2.514-1.737-2.585-2.008-2.623-5.036-.085-7.09.725-.587,1.572-1.022,2.3-1.6a21.787,21.787,0,0,0,1.706-1.716" transform="translate(6596 2497)" fill="#fff"/>
    <path id="Caminho_776" data-name="Caminho 776" d="M430.82,38.64a16.879,16.879,0,0,1,1.627-2.316,3.539,3.539,0,0,1,2.847-.854c.355.018.712,0,1.075,0a6.853,6.853,0,0,1,4.712-5.15,8.365,8.365,0,0,1,2.44-.316c19.78-.016,39.561.008,59.341-.034a7.135,7.135,0,0,1,7.179,5.5c.5,0,1.024-.013,1.544,0a4.028,4.028,0,0,1,3.99,4.1q.013,5.339,0,10.677a4.137,4.137,0,0,1-4.244,4.393c-.378.014-.758,0-1.218,0,0,1.043.019,2-.008,2.961a6.029,6.029,0,0,1-.174,1.716,69.647,69.647,0,0,1-3.084,8.777,14.253,14.253,0,0,1-13.484,8.388c-13.434.1-26.87.071-40.3.015a14.981,14.981,0,0,1-14.455-10.571c-.553-1.641-1.072-3.294-1.658-4.923a10.474,10.474,0,0,1-.67-4.207c.04-.682.007-1.369.007-2.177-2.647.25-4.586-.646-5.464-3.242Zm9.672,24.185h57.3V65.6H441.519a2.427,2.427,0,0,0,.059.354,6.328,6.328,0,0,0,.251.609c2.285,4.591,6.016,7.1,11.116,7.139,13.489.093,26.98.041,40.471.024A11.964,11.964,0,0,0,501.126,71a11.726,11.726,0,0,0,3.817-5.423h-4.372V62.812h5.341c.3-.9.576-1.755.873-2.659H439.611l.881,2.672m15.1-24.549v-.043c-2.455,0-4.911-.039-7.365.013a3.655,3.655,0,0,0-1.556,6.993,6.712,6.712,0,0,1,3.872,4.447,2.775,2.775,0,0,0,2.43,2.083,18.723,18.723,0,0,0,2.639.1c2.59-.028,5.2.077,7.766-.17a6.753,6.753,0,0,0-.5-13.4c-2.423-.1-4.853-.021-7.281-.021M491,51.728c0,.048,0,.1,0,.146,2.289,0,4.581.058,6.867-.031a4.956,4.956,0,0,0,2.407-.683,3.618,3.618,0,0,0-.571-6.335,6.813,6.813,0,0,1-3.83-4.384,2.915,2.915,0,0,0-3.049-2.194c-3.116-.033-6.236-.063-9.348.055a6.693,6.693,0,0,0-6.145,6.278c-.15,3.544,2.242,6.791,5.573,7.1,2.677.246,5.4.05,8.1.05m-20.492,5.557h5.379c0-2.266.015-4.47-.014-6.674a3.1,3.1,0,0,0-.3-1.25,8.877,8.877,0,0,1-.395-7.587,9.588,9.588,0,0,0,.715-4.238c-.032-1.019-.006-2.04-.006-3.06V32.835h-5.377c0,2.415-.007,4.756.01,7.1a1.707,1.707,0,0,0,.235.691,9.367,9.367,0,0,1,.013,8.8,1.9,1.9,0,0,0-.249.769c-.019,2.342-.011,4.685-.011,7.09m36.823.062v-.995q0-5.959,0-11.918c0-2.621.027-5.242-.021-7.862a3.813,3.813,0,0,0-3.929-3.714.886.886,0,0,0-.061.231c-.006,3.586-.013,7.172,0,10.759a1.569,1.569,0,0,0,.26.753,6.322,6.322,0,0,1,0,7.09,1.183,1.183,0,0,0-.251.5c-.019,1.7-.011,3.4-.011,5.152h4.012ZM443.083,32.859a1.924,1.924,0,0,0-.311-.053,3.953,3.953,0,0,0-3.7,4.1q-.022,9.891,0,19.782a5.685,5.685,0,0,0,.063.606h3.955c0-3.751.006-7.445-.013-11.139a1.615,1.615,0,0,0-.3-.741,6.32,6.32,0,0,1-.014-6.951,1.533,1.533,0,0,0,.307-.653c.026-1.65.014-3.3.014-4.947m-6.834,19.007V38.24c-.459,0-.9-.029-1.327.006a1.258,1.258,0,0,0-1.316,1.378q-.021,5.418,0,10.835a1.3,1.3,0,0,0,1.317,1.4c.408.038.823.007,1.325.007m73.9-.007a10.7,10.7,0,0,0,1.4-.011c.687-.1,1.227-.458,1.231-1.216q.033-5.582,0-11.164a1.124,1.124,0,0,0-1.053-1.179,12.533,12.533,0,0,0-1.579-.013ZM495.072,32.816c0,.932-.022,1.811.018,2.686a.78.78,0,0,0,.377.54,6.238,6.238,0,0,1,3.242,4.066,2.675,2.675,0,0,0,1.783,1.911v-9.2ZM445.917,57.289h5.41c0-.935.021-1.813-.016-2.689a.773.773,0,0,0-.352-.555,6.168,6.168,0,0,1-3.259-4.05,2.748,2.748,0,0,0-1.783-1.944ZM467.685,37.1V32.822h-5.361v2.659a9.721,9.721,0,0,1,5.361,1.618m11.016.024a9.8,9.8,0,0,1,5.382-1.661V32.811H478.7Zm.016,16.114v4.052h5.365V54.923l-5.365-1.686m-11.008-.008-5.384,1.681v2.378h5.384Zm-16.459-20.4h-5.3v2.8h5.3Zm43.86,24.483h5.369V54.423l-5.369.325ZM454.147,35.414h5.284V32.805h-5.284Zm38.118-2.609h-5.28v2.611h5.28ZM459.428,54.719h-5.27v2.6h5.27Zm32.821-.009H486.96v2.6h5.289Z" transform="translate(6596 2497)" fill="#fff"/>
    <path id="Caminho_777" data-name="Caminho 777" d="M464.187,50.255l-4.654-3.478-4.656,3.478-1.656-2.211,3.992-3-3.987-3.007,1.648-2.215,4.66,3.481,4.648-3.475,1.653,2.2-3.974,3.009,3.975,3.007-1.649,2.212" transform="translate(6596 2497)" fill="#fff"/>
    <path id="Caminho_778" data-name="Caminho 778" d="M484.55,45.039l-3.981-3.01,1.652-2.208L486.87,43.3l4.658-3.476c.544.728,1.068,1.428,1.65,2.205l-3.976,3.01,3.978,3.01-1.654,2.206-4.651-3.475-4.657,3.479-1.653-2.213,3.985-3" transform="translate(6596 2497)" fill="#fff"/>
  </g>
</svg>
