<?xml version="1.0" encoding="UTF-8"?>
<svg id="Camada_2" data-name="Camada 2" xmlns="http://www.w3.org/2000/svg" viewBox="0 0 63.62 30.87">
  <defs>
    <style>
      .cls-1 {
        fill: #0b2739;
        stroke-width: 0px;
      }
    </style>
  </defs>
  <g id="Camada_1-2" data-name="Camada 1">
    <g>
      <path class="cls-1" d="m10.95,3.85c-.67.12-1.19.15-1.66.33-.34.13-.84.43-.85.68-.07,1.69-.04,3.38-.04,5.03h2.55V3.85Zm9.17,6.09V2.43c-.9.13-1.67.24-2.41.34v7.17h2.41Zm-4.53-6.87c-.73.09-1.38.11-1.99.29-.26.08-.61.47-.61.72-.05,1.94-.03,3.87-.03,5.8h2.63V3.08Zm11.35,6.82h2.38V2.02h-2.38v7.87Zm-4.65-7.64v7.62h2.5V2.13c-.89.04-1.66.08-2.5.12m7.05,9.77h-2.43v16.72h2.43V12.03Zm-11.64,16.76h2.43V11.98h-2.43v16.81Zm-6.79-16.76h-2.39v16.84h2.39V12.03Zm11.38,16.71h2.52V12.01h-2.52v16.73Zm-6.72-16.68h-2.51v16.79h2.51V12.05Zm15.83,3.38c0,4.52-.04,9.04.03,13.55.02,1.35-.44,1.78-1.78,1.78-7.13-.02-14.25.05-21.38.08-1.71,0-1.8-.09-1.8-1.83,0-8.15.02-16.3-.05-24.45-.01-1.34.44-1.87,1.72-2.14C15.18.92,22.28.1,29.47.02c1.8-.02,1.93.1,1.93,1.86,0,4.52,0,9.03,0,13.55"/>
      <path class="cls-1" d="m52.69,3.89v6.03h2.53c0-1.13,0-2.18,0-3.23q0-2.36-2.53-2.79m-6.7-1.12c-.92-.11-1.71-.2-2.54-.3v7.41h2.54V2.77Zm1.95.45c0,1.94,0,3.89,0,5.83,0,.27.06.54.09.85h2.62v-4.1q0-2.41-2.37-2.72s-.09.03-.35.13m-11.26-1.21h-2.41v7.93h2.41V2.01Zm2.15,7.91h2.48V2.24h-2.48v7.68Zm-4.55,18.79h2.41V12h-2.41v16.72Zm18.45.15h2.4V11.99h-2.4v16.88Zm-6.78-16.83h-2.5v16.76h2.5V12.04Zm-7.17,16.7h2.57V12.01h-2.57v16.74Zm11.81-16.72h-2.57v16.81h2.57V12.02Zm-18.38,3.36c0-4.56.04-9.13-.02-13.69-.02-1.31.48-1.7,1.73-1.69,7.33.09,14.57.91,21.74,2.46,1.08.23,1.54.68,1.53,1.87-.05,8.29-.06,16.58-.02,24.87,0,1.33-.51,1.68-1.74,1.66-7.17-.07-14.34-.12-21.52-.1-1.39,0-1.74-.54-1.73-1.83.06-4.52.02-9.03.02-13.55"/>
      <path class="cls-1" d="m.02,16.77C.02,12.62.04,8.48,0,4.34c-.01-1.18.35-1.69,1.6-1.67,4.64.09,4.04-.57,4.05,3.97.02,7.45,0,14.9,0,22.35,0,1.69-.16,1.86-1.82,1.86-4.48-.02-3.78.46-3.82-3.74-.03-3.45,0-6.89,0-10.34"/>
      <path class="cls-1" d="m63.6,16.83c0,4.1-.04,8.2.02,12.3.02,1.26-.38,1.83-1.67,1.73-.83-.06-1.68-.03-2.51,0-1.07.04-1.5-.43-1.49-1.51.03-3.77.01-7.55.01-11.32,0-4.52.03-9.04-.02-13.55-.02-1.32.41-1.84,1.77-1.81,4.49.1,3.86-.56,3.89,3.82.02,3.45,0,6.89,0,10.34"/>
    </g>
  </g>
</svg>