<?xml version="1.0" encoding="UTF-8"?>
<svg id="Camada_2" data-name="Camada 2" xmlns="http://www.w3.org/2000/svg" viewBox="0 0 62.98 56.86">
  <defs>
    <style>
      .cls-1 {
        fill: #0b2739;
        stroke-width: 0px;
      }
    </style>
  </defs>
  <g id="Camada_1-2" data-name="Camada 1">
    <g>
      <path class="cls-1" d="m5.34,22.21c-2.07,0-3.76,1.65-3.76,3.67v20.76c0,2.03,1.68,3.67,3.76,3.67h52.3c2.07,0,3.76-1.65,3.76-3.67v-20.76c0-2.03-1.68-3.67-3.76-3.67H5.34Zm52.3,29.65H5.34c-2.94,0-5.34-2.34-5.34-5.22v-20.76c0-2.88,2.39-5.22,5.34-5.22h52.3c2.94,0,5.34,2.34,5.34,5.22v20.76c0,2.88-2.39,5.22-5.34,5.22"/>
      <rect class="cls-1" x="30.7" y="21.44" width="1.58" height="29.65"/>
      <path class="cls-1" d="m9.22,55.32h.41l1.18-3.46h-2.98l1.4,3.46Zm1.55,1.55h-2.62l-2.65-6.55h7.5l-2.23,6.55Z"/>
      <path class="cls-1" d="m53.1,55.32h.41l1.18-3.46h-2.98l1.4,3.46Zm1.55,1.55h-2.62l-2.65-6.55h7.5l-2.23,6.55Z"/>
      <path class="cls-1" d="m27.04,37.5h0c-.4,0-.73-.32-.73-.71v-2.53c0-.39.33-.71.73-.71s.73.32.73.71v2.53c0,.39-.33.71-.73.71"/>
      <path class="cls-1" d="m35.06,37.5h0c-.4,0-.73-.32-.73-.71v-2.53c0-.39.33-.71.73-.71s.73.32.73.71v2.53c0,.39-.33.71-.73.71"/>
      <path class="cls-1" d="m25.25,20.66h11.5c4.74-3.56,4.35-7.41,4.03-8.74h-18.77c-.99,5,2.37,8.05,3.24,8.74m12.02,1.55h-12.55l-.21-.14c-.06-.04-5.72-4.09-3.91-11.11l.15-.58h21.14l.2.48c.02.06,2.42,6.08-4.62,11.2l-.21.15Z"/>
      <path class="cls-1" d="m32.19,11.15h-1.58V3.18c0-.13,0-1.4.93-2.32.58-.57,1.36-.86,2.32-.86,3.08,0,4.16,4.12,4.21,4.29l-1.53.38s-.86-3.12-2.67-3.12c-1.55,0-1.67,1.25-1.67,1.63v7.97Z"/>
    </g>
  </g>
</svg>