<?xml version="1.0" encoding="UTF-8"?>
<svg id="Camada_2" data-name="Camada 2" xmlns="http://www.w3.org/2000/svg" viewBox="0 0 47.75 53.51">
  <defs>
    <style>
      .cls-1 {
        fill: #0b2739;
        stroke-width: 0px;
      }
    </style>
  </defs>
  <g id="Camada_1-2" data-name="Camada 1">
    <g>
      <path class="cls-1" d="m1.99,17.63c-.4,2.01-.25,2.19,1.7,2.15.13,0,.25,0,.38,0,13.2,0,26.4,0,39.6,0,.45,0,.91.02,1.36-.02.17-.01.45-.15.46-.26.07-.61.08-1.22.11-1.87H1.99Zm31.38,20.2c-.55.13-1.03.21-1.49.35-1.21.38-2.39.89-3.62,1.14-1.33.27-2.71.38-4.07.43-.88.03-1.76-.18-2.64-.29-1-.13-1.99-.08-3.01-.38-1.35-.39-2.77-.55-3.99-1.32-.11-.07-.58.13-.64.29-.23.62-.39,1.26-.53,1.91-.19.84-.34,1.69-.51,2.54,0,.05-.03.09-.06.13-.15.29-.3.58-.5.96h22.62c-.1-.55-.15-1.02-.28-1.48-.2-.7-.48-1.39-.69-2.09-.22-.75-.4-1.51-.58-2.19M2.44,21.92c.26.97.4,1.89.74,2.73.3.73.92,1.33,1.21,2.06.64,1.59,1.82,2.84,2.9,4.11,1.37,1.61,3.16,2.86,5.07,3.91,1.01.55,2.01,1.14,3.07,1.6.87.38,1.8.68,2.74.87,1.26.25,2.55.41,3.83.5,1.08.08,2.17.09,3.25,0,1.45-.11,2.89-.33,4.34-.51.05,0,.1-.01.15-.03,1.01-.4,2.03-.78,3.03-1.22.97-.43,1.94-.88,2.86-1.4.78-.44,1.53-.96,2.24-1.5.61-.47,1.2-.98,1.7-1.54.79-.89,1.52-1.82,2.22-2.77.53-.71,1.04-1.45,1.47-2.22.45-.8.82-1.65,1.18-2.49.27-.65.48-1.32.75-2.1H2.44ZM.05,15.93h47.44c.11.39.17.63.24.88.02.07.03.14.02.21-.12.81-.24,1.62-.36,2.43-.17,1.19-.24,2.42-.55,3.57-.26.94-.82,1.81-1.23,2.71-.35.76-.61,1.57-1.02,2.3-.39.7-.89,1.36-1.41,1.98-.85,1.03-1.7,2.08-2.67,3-.96.91-2.07,1.68-3.13,2.49-.43.32-.91.59-1.37.87-.75.46-.98,1.47-.49,2.17.05.08.14.15.16.23.2.87.36,1.74.58,2.6.2.79.46,1.56.7,2.34.04.14.1.27.14.41.28.93.59,1.85.82,2.79.23.91.36,1.84.59,2.75.18.72.49,1.41.65,2.13.09.4.05.85-.06,1.25-.14.49-.67.57-1.02.37-.38-.22-.77-.61-.9-1.01-.37-1.12-.62-2.29-.9-3.44-.2-.84-.43-1.68-.53-2.53-.06-.54-.3-.71-.8-.7-.63,0-1.26,0-1.89,0-6.8,0-13.6,0-20.4,0-.73,0-1.05.32-1.11.99-.08.88-.15,1.76-.35,2.62-.16.66-.56,1.26-.77,1.91-.12.36-.07.76-.1,1.14-.06.72-.5,1.11-1.22,1.08-.59-.03-.89-.49-.67-1.02,0-.02.02-.05.02-.07.18-.92.14-1.96.6-2.72.55-.9.11-1.91.74-2.79.41-.58.36-1.44.56-2.17.26-.93.61-1.83.84-2.77.18-.71.22-1.45.36-2.17.14-.72.27-1.44.49-2.13.28-.9-.39-1.25-.95-1.65-1.12-.79-2.32-1.49-3.39-2.34-.91-.73-1.77-1.55-2.5-2.44-.8-.99-1.4-2.13-2.15-3.15-.57-.77-.84-1.65-1.2-2.5-.41-.96-.62-1.96-.98-2.9C.04,20.57,0,18.48,0,16.34c0-.14.03-.28.05-.42"/>
      <path class="cls-1" d="m24.95,8.73c-1.03-.66-2.01-1.31-3.02-1.94-.89-.55-1.45-1.69-1.12-2.68.31-.93.59-1.79,1.37-2.48.27-.24.42-.65.52-1,.13-.48.47-.61.9-.56.3.03.81.13.83.26.06.37.03.82-.16,1.15-.44.79-1.05,1.51-1.49,2.3-.34.62.01,1.5.65,1.91.86.56,1.77,1.05,2.57,1.68.95.74,1.01,1.53.45,2.58-.23.44-.28.97-.56,1.37-.58.85-1.23,1.65-1.9,2.43-.09.11-.57.05-.75-.09-.33-.24-.72-.59-.48-1.03.43-.78.97-1.51,1.42-2.28.27-.47.46-.99.75-1.63"/>
      <path class="cls-1" d="m16.45.69c-.46.81-.88,1.54-1.3,2.28-.29.51-.65,1-.85,1.54-.23.6.33.91.75,1.15,1.1.65,2.25,1.24,3.14,2.16.12.12.16.34.17.52.08,1.06-.21,1.96-.77,2.94-.46.82-1.22,1.4-1.59,2.25-.07.16-.55.23-.83.22-.16,0-.42-.26-.44-.43-.06-.49-.14-.93.32-1.41.61-.65.98-1.5,1.42-2.28.34-.61-.08-1.1-.5-1.41-.75-.56-1.58-1.03-2.42-1.47-1.01-.53-1.55-2.3-.76-3.35.23-.31.31-.72.52-1.04.44-.67.89-1.33,1.39-1.97.42-.54,1.06-.48,1.46.08.06.09.19.14.3.22"/>
      <path class="cls-1" d="m31.01,12.81c.22-.31.37-.51.51-.73.36-.58.71-1.17,1.06-1.76.15-.25.32-.49.42-.76.36-.97-.52-1.35-1.08-1.77-.84-.64-1.79-1.11-2.48-1.98-.56-.7-.39-1.37-.22-1.99.21-.75.69-1.43,1.09-2.13.24-.41.58-.77.82-1.18.38-.63.97-.6,1.45-.3.68.41.4.96.01,1.47-.49.65-.95,1.32-1.37,2.02-.61,1-.45,1.27.64,2.03.91.63,2.08.96,2.67,1.97.15.25.3.52.34.79.13,1.08-.13,2.05-.84,2.93-.51.63-.9,1.36-1.41,1.99-.17.21-.67.44-.81.35-.32-.2-.51-.59-.79-.95"/>
    </g>
  </g>
</svg>