<?xml version="1.0" encoding="UTF-8"?>
<svg id="Camada_2" data-name="Camada 2" xmlns="http://www.w3.org/2000/svg" viewBox="0 0 32.33 49.48">
  <defs>
    <style>
      .cls-1 {
        fill: #0b2739;
        stroke-width: 0px;
      }
    </style>
  </defs>
  <g id="Camada_1-2" data-name="Camada 1">
    <g>
      <path class="cls-1" d="m.81,26.92s-.05,0-.07,0c-.44-.04-.77-.43-.74-.88.04-.44.99-10.78,10.67-17.51.37-.26.87-.16,1.12.21.25.37.16.88-.21,1.14C2.56,16.15,1.62,26.07,1.61,26.17c-.04.43-.39.75-.8.75"/>
      <path class="cls-1" d="m3.73,18.27c1.68,1.9,5.17,3.31,8.22,2.43,2.68-.78,4.39-3.19,4.95-6.96,1.17-7.92,2.14-10.45,2.95-11.97-3.65.39-12.95,1.88-16.2,7.19-1.54,2.52-1.51,5.65.08,9.31m6.24,4.34c-3.07,0-6-1.53-7.55-3.36-.05-.06-.09-.13-.13-.2-1.86-4.24-1.87-7.93-.02-10.95C6.79.72,20.69.03,21.28,0c.29-.01.56.13.72.38.15.25.17.56.03.82-.12.24-.25.45-.38.68-.77,1.32-1.82,3.13-3.15,12.1-.65,4.39-2.81,7.33-6.1,8.29-.8.23-1.62.34-2.43.34"/>
      <path class="cls-1" d="m25.2,33.05h0,0Zm-3.89,4.04h-7.85s-.07,0-.11,0c-1.05-.15-3.03-1.08-3.03-3.6s-1.96-7.16-2.95-7.5c-.42-.14-.65-.61-.51-1.03.14-.43.6-.66,1.02-.52,2.14.72,4.05,6.59,4.05,9.05,0,1.59,1.32,1.92,1.59,1.97h7.78c2.6,0,3.03-2.14,3.08-2.46,0-.5.1-3.77,1.39-6.43.05-.1.11-.18.19-.25,3.04-2.7,4.63-5.8,4.73-9.23.2-7.07-6-13.32-6.07-13.38-.32-.32-.32-.83-.01-1.16.31-.32.82-.33,1.14-.01.28.27,6.77,6.8,6.55,14.59-.1,3.86-1.84,7.32-5.15,10.31-1.14,2.47-1.16,5.59-1.16,5.62s0,.07,0,.1c-.16,1.36-1.36,3.94-4.69,3.94"/>
      <path class="cls-1" d="m22.27,40.74h-8.91c-.45,0-.81-.37-.81-.82s.36-.82.81-.82h8.91c.45,0,.81.37.81.82s-.36.82-.81.82"/>
      <path class="cls-1" d="m21.99,45.4h-8.91c-.45,0-.81-.37-.81-.82s.36-.82.81-.82h8.91c.45,0,.81.37.81.82s-.36.82-.81.82"/>
      <path class="cls-1" d="m20.55,49.48h-5.48c-.45,0-.81-.37-.81-.82s.36-.82.81-.82h5.48c.45,0,.81.37.81.82s-.36.82-.81.82"/>
    </g>
  </g>
</svg>