<?xml version="1.0" encoding="UTF-8"?>
<svg id="Camada_2" data-name="Camada 2" xmlns="http://www.w3.org/2000/svg" viewBox="0 0 47.03 47.34">
  <defs>
    <style>
      .cls-1 {
        fill: #0b2739;
        stroke-width: 0px;
      }
    </style>
  </defs>
  <g id="Camada_1-2" data-name="Camada 1">
    <g>
      <path class="cls-1" d="m14.73,40.5c-1.23-.69-2.07-1.05-2.76-1.59-.42-.33-.83-.94-.85-1.44-.08-2.58-.03-5.17-.03-7.75,0-.66,0-1.31,0-2.21,1.17.65,2.32,1.02,3.03,1.79.51.55.56,1.63.58,2.48.07,2.78.02,5.55.02,8.73m29.47-15.52c-.03-.43-.03-.82,0-1.18v-.45c-.47.31-.93.62-1.4.93v1.07c0,.17-.01.34-.04.5,0,2.75.01,5.49-.02,8.24,0,.41-.23,1.02-.55,1.2-5.69,3.35-11.42,6.65-17.28,10.04v-16.77c-.51-.64-1.04-1.32-1.54-2.01,0,.06,0,.11,0,.17-.2,6.12-.06,12.25-.06,18.71-2.48-1.42-4.69-2.64-6.85-3.96-.29-.18-.42-.83-.43-1.26-.03-3.44-.06-6.89,0-10.33.02-1.05-.32-1.64-1.25-2.09-1.09-.52-2.11-1.17-3.17-1.75-1.79-.99-2.09-.83-2.08,1.16.01,2.77.05,5.54.06,8.31,0,.62-.06,1.23-.1,2.05-1.47-.84-2.82-1.57-4.12-2.4-.24-.16-.33-.7-.34-1.06-.03-5.33-.04-10.66-.01-15.99-.41.31-.82.62-1.23.93-.08.06-.16.12-.24.18v.24c0,5.01.03,10.01-.03,15.02-.01,1.09.35,1.72,1.3,2.2,1.35.68,2.64,1.48,3.95,2.23,4.7,2.69,9.4,5.36,14.08,8.08.78.45,1.39.53,2.21.05,6.05-3.55,12.13-7.06,18.22-10.55.72-.41.97-.9.96-1.7-.04-3.26.16-6.54-.07-9.78"/>
      <path class="cls-1" d="m.67,20.09c-.2,0-.41-.09-.54-.27-.22-.3-.16-.72.13-.94l1.61-1.21c.3-.22.72-.16.94.13.22.3.16.72-.13.94l-1.61,1.21c-.12.09-.26.13-.4.13"/>
      <path class="cls-1" d="m1.75,18.61c-.09-.12-.13-.26-.13-.4,0-.2.09-.41.27-.54.3-.22.72-.16.94.14.09.12.13.26.13.4,0,.2-.09.41-.27.54-.12.09-.26.13-.4.13-.2,0-.41-.09-.54-.27"/>
      <path class="cls-1" d="m5.09,16.79c-.22,0-.41-.1-.54-.27-.11-.14-.15-.32-.13-.5.03-.18.12-.34.26-.44l2.81-2.1c.29-.22.72-.15.94.13.09.12.13.25.13.4,0,.22-.1.41-.27.54l-2.81,2.1c-.12.09-.26.13-.4.13"/>
      <path class="cls-1" d="m13.59,12.95c-.2,0-.39-.09-.52-.25l-.86-1.06-1.1.82c-.3.22-.72.16-.94-.13-.22-.3-.16-.72.13-.94l2.13-1.6,1.68,2.07c.23.29.19.71-.1.94-.12.1-.27.15-.42.15"/>
      <path class="cls-1" d="m13.06,12.7c-.1-.13-.15-.28-.15-.43,0-.19.09-.38.25-.52.29-.23.71-.19.95.1.1.13.15.28.15.43,0,.19-.09.38-.25.51-.12.1-.27.15-.42.15-.2,0-.39-.08-.52-.25"/>
      <path class="cls-1" d="m18.96,19.58c-.2,0-.4-.09-.52-.25l-2.69-3.31c-.23-.29-.19-.71.1-.94.28-.23.72-.18.95.1l2.69,3.31c.1.12.15.27.15.43,0,.2-.09.39-.25.52-.12.1-.27.15-.42.15m5.38,6.63c-.2,0-.4-.09-.52-.25l-2.69-3.31c-.23-.29-.19-.71.1-.94.28-.23.72-.18.94.1l2.69,3.32c.1.12.15.27.15.43,0,.2-.09.39-.25.52-.12.1-.27.15-.42.15"/>
      <path class="cls-1" d="m28.13,31.28l-1.62-2c-.23-.29-.19-.71.1-.94.29-.23.71-.19.95.1l.91,1.13,1.27-.71c.33-.18.73-.06.91.26.18.32.06.73-.26.91l-2.26,1.26Z"/>
      <path class="cls-1" d="m29.48,29.77c-.06-.1-.08-.21-.09-.32,0-.24.12-.47.34-.6.33-.18.73-.06.91.26.06.1.09.21.09.32,0,.24-.12.47-.34.59-.1.06-.22.09-.33.09-.23,0-.46-.12-.59-.34"/>
      <path class="cls-1" d="m38.57,25.37c-.24,0-.47-.13-.59-.34-.18-.32-.06-.73.26-.91l2.84-1.58c.31-.17.74-.05.91.26.06.1.09.21.09.32,0,.25-.13.47-.34.6l-2.84,1.58c-.1.05-.21.08-.33.08m-5.67,3.16c-.24,0-.47-.13-.59-.35-.09-.16-.11-.34-.06-.51.05-.17.16-.31.32-.4l2.84-1.58c.31-.17.74-.05.92.26.05.1.08.21.08.32,0,.25-.13.48-.34.6l-2.84,1.58c-.1.06-.21.09-.33.09"/>
      <path class="cls-1" d="m44.24,22.22c-.24,0-.47-.12-.59-.34-.18-.32-.06-.73.26-.91l1.06-.59-.77-.93c-.24-.29-.2-.71.09-.94.29-.24.71-.2.95.09l1.8,2.17-2.47,1.37c-.1.06-.22.09-.33.09"/>
      <path class="cls-1" d="m44.19,19.45c-.1-.13-.15-.28-.15-.43,0-.19.08-.38.24-.52.29-.24.71-.2.95.09.1.12.15.28.16.43,0,.19-.08.38-.24.52-.13.1-.28.16-.43.16-.19,0-.38-.08-.52-.24"/>
      <path class="cls-1" d="m36.43,9.73c-.2,0-.39-.09-.52-.24l-2.76-3.32c-.1-.12-.15-.27-.15-.43,0-.2.09-.39.24-.52.28-.23.72-.19.95.09l2.76,3.32c.24.29.2.71-.09.94-.12.1-.27.16-.43.16m5.52,6.64c-.2,0-.39-.09-.52-.24l-2.76-3.32c-.1-.12-.15-.27-.15-.43,0-.2.09-.39.24-.52.27-.23.72-.19.95.09l2.76,3.32c.24.28.2.71-.09.94-.12.1-.27.16-.43.16"/>
      <path class="cls-1" d="m30.91,3.08c-.19,0-.38-.08-.52-.24l-.93-1.11-1.26.72c-.32.18-.73.07-.92-.25-.19-.32-.07-.73.25-.92l2.24-1.29,1.65,1.99c.24.29.2.71-.09.94-.13.1-.28.15-.43.15"/>
      <path class="cls-1" d="m27.29,2.2c-.06-.1-.09-.22-.09-.33,0-.23.12-.46.34-.59.32-.18.73-.07.92.25.06.1.09.22.09.33,0,.23-.12.46-.34.58-.11.06-.22.09-.34.09-.23,0-.46-.12-.58-.34"/>
      <path class="cls-1" d="m19.1,7.58c-.24,0-.47-.13-.58-.34-.06-.1-.09-.22-.09-.33,0-.24.13-.46.34-.58l4.39-2.52c.31-.18.74-.06.92.24.19.32.07.73-.25.92l-4.39,2.52c-.1.06-.22.09-.33.09"/>
      <path class="cls-1" d="m12.96,11.1c-.23,0-.46-.12-.58-.34-.19-.32-.07-.73.25-.92l1.75-1c.32-.18.73-.07.92.25.19.32.07.73-.25.92l-1.75,1c-.11.06-.22.09-.33.09"/>
    </g>
  </g>
</svg>