<svg xmlns="http://www.w3.org/2000/svg" width="47.518" height="47.334" viewBox="0 0 47.518 47.334">
  <g id="Grupo_208" data-name="Grupo 208" transform="translate(-3308.013 -1533.8)">
    <path id="Caminho_736" data-name="Caminho 736" d="M430.634,166.505h3.956v-5.3h-3.956ZM400.88,161.2h-3.918v5.34h3.918ZM434.6,147.772h-3.934v5.354H434.6Zm-33.7.019h-3.958v5.318H400.9Zm23.57,20.153H416.5v5.287h7.966Zm-9.4,0h-7.991v5.264h7.991Zm14.155-6.709H421.2v5.309h8.021Zm-18.862,0h-8.014v5.306h8.014Zm9.443-.016h-8.058v5.3H419.8Zm-3.306-1.407h7.99v-5.33h-7.99Zm-9.4-.014h7.95V154.47H407.1Zm22.121-12.03H421.2v5.345h8.02Zm-9.409.01h-8.068V153.1h8.068Zm-17.481,5.312h8.032v-5.3h-8.032Zm32.24,14.857h-8.659v5.275h8.659Zm-28.926.015h-8.664v5.278h8.664ZM425.9,159.8h8.689v-5.328H425.9Zm-28.945,0h8.683v-5.325h-8.683Zm-.012-20.17h22.862v-3.887H396.945Zm30.946,1.463H396.96v5.266h30.931Zm-6.764-1.384c2.4,0,4.628,0,6.859,0,1.129,0,1.248.125,1.252,1.268.005,1.774,0,3.549,0,5.459h5.112c1.633,0,1.633,0,1.633,1.647v24.99c0,1.493-.034,1.529-1.479,1.529H396.97c-1.344,0-1.41-.066-1.41-1.407q0-18.742,0-37.484c0-1.289.086-1.376,1.344-1.376q11.442,0,22.885,0c1.262,0,1.334.074,1.337,1.364s0,2.6,0,4.01" transform="translate(2916 1403)" fill="#fff"/>
    <path id="Caminho_737" data-name="Caminho 737" d="M394.887,131.946a1.722,1.722,0,0,0-1.724,1.717v41.608a1.723,1.723,0,0,0,1.724,1.718h41.771a1.722,1.722,0,0,0,1.724-1.718V133.663a1.721,1.721,0,0,0-1.724-1.717Zm41.771,46.188H394.887a2.872,2.872,0,0,1-2.874-2.863V133.663a2.873,2.873,0,0,1,2.874-2.863h41.771a2.871,2.871,0,0,1,2.873,2.863v41.608a2.871,2.871,0,0,1-2.873,2.863" transform="translate(2916 1403)" fill="#fff"/>
  </g>
</svg>
