<svg xmlns="http://www.w3.org/2000/svg" width="52.648" height="51.144" viewBox="0 0 52.648 51.144">
  <g id="Grupo_214" data-name="Grupo 214" transform="translate(-3704.19 -1604.952)">
    <path id="Caminho_757" data-name="Caminho 757" d="M821.151,209.844h2.979v-4.75h-2.979Zm-3.281-5.087c-1.233.311-2.9.294-3.171.9-.479,1.078-.112,2.533-.1,3.83,1.054.207,2.107.418,3.27.648Zm5.218,38.845a3.227,3.227,0,0,0,0,6.453,3.227,3.227,0,1,0,0-6.453m-18.913,0a3.227,3.227,0,1,0,3.184,3.238,3.319,3.319,0,0,0-3.184-3.238m-.34-13.952v-9.194c-3.142.5-6.262,4.864-6.6,9.194Zm3.217-9.7v9.677h21.669a2.462,2.462,0,0,0-.212-.375,51.62,51.62,0,0,0-10.389-8.8,2.613,2.613,0,0,0-1.278-.483c-3.229-.039-6.458-.021-9.79-.021m6.058,12.831c-6.122,0-12.244.014-18.367-.017-.927,0-1.369.291-1.414,1.242-.073,1.516-.336,3.031-.285,4.539a28.849,28.849,0,0,0,.619,5.193c.292,1.323,3.292,2.211,4.315,1.406.162-.128.214-.4.309-.609a6.3,6.3,0,0,1,11.718.048,1.36,1.36,0,0,0,1,.653c1.752.067,3.51.067,5.262,0a1.362,1.362,0,0,0,.961-.682,6.171,6.171,0,0,1,5.82-3.981,6.091,6.091,0,0,1,5.925,3.977,1.36,1.36,0,0,0,.973.685c1.791.067,3.587.056,5.38.022a2.318,2.318,0,0,0,2.45-2.522q.043-3.57-.011-7.138c-.005-.323-.211-.853-.439-.927-2.093-.676-4.192-1.715-6.323-1.8-5.957-.245-11.929-.084-17.9-.084m27.728,1.207v9.829c-1.362,3.6-2.724,4.525-6.64,4.525-1.364,0-2.727.038-4.088-.014a1.068,1.068,0,0,0-1.189.811,6.236,6.236,0,0,1-11.6.028,1.128,1.128,0,0,0-1.281-.836c-1.557.037-3.117.062-4.671-.007a1.368,1.368,0,0,0-1.522,1.015,5.935,5.935,0,0,1-5.576,3.757,5.705,5.705,0,0,1-5.656-3.4,2,2,0,0,0-2.371-1.362c-1.694.147-3.31-.116-4.376-1.619-.532-.747-.864-1.635-1.323-2.441a1.982,1.982,0,0,0-.631-.66c-.557-.352-1.15-.645-1.728-.961v-1.171c.575-.4,1.15-.807,1.874-1.315,0-1.461-.024-3.1,0-4.732.043-2.548.737-4.755,3.2-6.045a2.105,2.105,0,0,0,.95-.978c.533-1.406.959-2.854,1.437-4.323-.351-.129-.676-.243-1-.365a9.094,9.094,0,0,1-5.786-10.171,8.91,8.91,0,0,1,8.518-7.441c4.168-.109,8.341-.039,12.511-.046h1.325c.657-2.954,2.075-4.094,4.955-4.1,2.963-.008,5.925-.016,8.888.01.491,0,1.154.009,1.436.3a2.438,2.438,0,0,0,2.041.56c.7.007,1.4,0,2.1,0,1.218.012,1.961.586,1.964,1.508s-.763,1.534-1.952,1.548c-1.112.013-2.226,0-3.334,0v3.263h3.075c1.465,0,2.2.5,2.21,1.489s-.821,1.519-2.286,1.586c-1.389.063-2.878-.429-4.118.662-.143.126-.452.087-.683.087-3.43,0-6.862.029-10.291-.018a3.9,3.9,0,0,1-3.677-2.75c-.123-.353-.231-.71-.351-1.078-4.585,0-9.106-.047-13.624.017a6.01,6.01,0,0,0-5.826,5.626,6.241,6.241,0,0,0,4.474,6.254,1.542,1.542,0,0,0,1.824-.556,8.815,8.815,0,0,1,6.443-3.358q5.894-.277,11.8-.181a7.17,7.17,0,0,1,3.492,1,44.355,44.355,0,0,1,10.778,9.072,12.329,12.329,0,0,0,6.991,4.451,4.546,4.546,0,0,1,3.28,2.528" transform="translate(2916 1403)" fill="#fff"/>
    <path id="Caminho_758" data-name="Caminho 758" d="M831.453,239.482c0-1.784.437-2.483,1.541-2.461,1.081.021,1.522.751,1.521,2.52,0,.271.012.543-.005.814-.072,1.065-.634,1.663-1.569,1.624-1.059-.045-1.489-.682-1.488-1.684q0-.406,0-.813" transform="translate(2916 1403)" fill="#fff"/>
    <path id="Caminho_759" data-name="Caminho 759" d="M810.365,238.917c-1.219-.009-1.931-.563-1.942-1.51-.011-.977.742-1.556,2.023-1.554,1.253,0,2.04.622,2.009,1.58s-.776,1.494-2.09,1.484" transform="translate(2916 1403)" fill="#fff"/>
  </g>
</svg>
