<svg xmlns="http://www.w3.org/2000/svg" width="56.602" height="39.604" viewBox="0 0 56.602 39.604">
  <g id="Grupo_210" data-name="Grupo 210" transform="translate(-3305.415 -1780.521)">
    <path id="Caminho_720" data-name="Caminho 720" d="M417.728,400.184q12.316,0,24.633,0c1.584,0,1.818-.225,1.82-1.809q.01-8.61,0-17.221c0-1.566-.245-1.792-1.837-1.792q-24.633,0-49.264,0c-1.562,0-1.827.256-1.829,1.817q-.011,8.611,0,17.221c0,1.565.24,1.783,1.845,1.784q12.316,0,24.632,0m-28.313-20.6a3.461,3.461,0,0,1,3.615-2.063q24.686.064,49.372,0a3.461,3.461,0,0,1,3.615,2.063v20.38a3.475,3.475,0,0,1-3.609,2.069q-24.691-.063-49.384,0a3.475,3.475,0,0,1-3.609-2.069Z" transform="translate(2916 1403)" fill="#fff"/>
    <path id="Caminho_721" data-name="Caminho 721" d="M407.172,417.125c-.176-.157-.57-.349-.648-.629a1.154,1.154,0,0,1,.276-.96c1.89-1.824,1.9-1.811-.313-3.416-2.664-1.928-2.591-4.656.2-6.04.334-.164.866.071,1.306.122a5.946,5.946,0,0,1-.313,1.293c-.132.276-.488.441-.732.668a1.14,1.14,0,0,0,.116,1.986,18.06,18.06,0,0,1,2.032,1.443c2.049,2.044.769,4.432-1.38,5.444a2.7,2.7,0,0,1-.546.089" transform="translate(2916 1403)" fill="#fff"/>
    <path id="Caminho_722" data-name="Caminho 722" d="M417.567,415.263c-.216-.2-.587-.394-.7-.687-.088-.236.094-.613.238-.883.086-.164.333-.239.5-.363,1.4-1.036,1.379-1.652-.08-2.646-.346-.235-.7-.464-1.027-.72-2.28-1.777-2.049-4.464.537-5.754.339-.168.874.059,1.317.1a5.731,5.731,0,0,1-.3,1.293c-.131.275-.5.43-.737.664a1.161,1.161,0,0,0,.139,2c.6.446,1.295.785,1.852,1.279a3.217,3.217,0,0,1-1.132,5.552c-.156.055-.321.086-.615.162" transform="translate(2916 1403)" fill="#fff"/>
    <path id="Caminho_723" data-name="Caminho 723" d="M430.906,413.694a3.831,3.831,0,0,1-2.464,3.321,1.322,1.322,0,0,1-1.129-.452c-.136-.223.145-.789.37-1.115.2-.293.6-.444.876-.694a1,1,0,0,0-.03-1.7c-.546-.452-1.167-.809-1.724-1.247a3.237,3.237,0,0,1,.784-5.81c.3-.122.96-.025,1.06.171a1.325,1.325,0,0,1-.062,1.189c-1.747,2.108-1.769,2.1.538,3.621a3.564,3.564,0,0,1,1.781,2.718" transform="translate(2916 1403)" fill="#fff"/>
    <path id="Caminho_724" data-name="Caminho 724" d="M417.716,394.459H395.092a2.715,2.715,0,0,1-1.115-.058c-.32-.158-.719-.558-.718-.853s.4-.7.717-.854a2.721,2.721,0,0,1,1.116-.057q22.624,0,45.247,0h.251c.72-.007,1.6-.094,1.605.911s-.885.914-1.6.914H417.716" transform="translate(2916 1403)" fill="#fff"/>
    <path id="Caminho_725" data-name="Caminho 725" d="M417.579,398.234h-22.5a2.657,2.657,0,0,1-1.114-.061c-.318-.159-.711-.566-.707-.86s.408-.672.728-.848a2.236,2.236,0,0,1,.989-.053q22.751,0,45.5,0a2.194,2.194,0,0,1,.988.057c.316.182.711.57.708.864s-.406.69-.728.845a2.741,2.741,0,0,1-1.116.056H417.579" transform="translate(2916 1403)" fill="#fff"/>
    <path id="Caminho_726" data-name="Caminho 726" d="M417.749,385.962c-1.169,0-2.337.007-3.506,0-.629,0-1.306-.143-1.145-.922a1.466,1.466,0,0,1,1.079-.878q3.565-.12,7.135,0c.367.014.713.6,1.069.921-.376.291-.73.8-1.13.835-1.158.113-2.333.04-3.5.041" transform="translate(2916 1403)" fill="#fff"/>
  </g>
</svg>
