<svg xmlns="http://www.w3.org/2000/svg" width="52.716" height="42.222" viewBox="0 0 52.716 42.222">
  <g id="Grupo_207" data-name="Grupo 207" transform="translate(-3305.414 -1410.057)">
    <path id="Caminho_731" data-name="Caminho 731" d="M432.137,16.142h1.056a2.278,2.278,0,0,1,2.267,2.335V27.6q0,6.034,0,12.069a4.07,4.07,0,0,0,2.869,4.038,5.679,5.679,0,0,0,1.908.143c0-.537,0-1.05-.007-1.56a.211.211,0,0,0-.148-.143c-.219-.017-.437-.007-.655-.008a2.278,2.278,0,0,1-2.275-2.329q0-5.927,0-11.854c0-3.2,0-6.4-.009-9.6a3.879,3.879,0,0,0-.995-2.574,4.366,4.366,0,0,0-3.97-1.35c-.013,0-.022.02-.04.034ZM399.418,41.891c0-.541.005-1.067-.007-1.593,0-.043-.112-.116-.174-.119a6.818,6.818,0,0,0-.8,0,2.321,2.321,0,0,1-2.365-2.407c.024-4.687.01-9.374.01-14.061,0-2.367.006-4.735,0-7.1a4,4,0,0,0-3.465-4.1,9.376,9.376,0,0,0-1.311-.01c0,.524,0,1.027,0,1.531,0,.128.053.165.166.165.267,0,.533-.009.8.007a2.277,2.277,0,0,1,2.125,2.307q0,8.963,0,17.924c0,1.192-.031,2.385.013,3.575a3.951,3.951,0,0,0,1.956,3.35,4.992,4.992,0,0,0,3.056.539m1.889-13.718h0q0,1.056,0,2.111,0,6.346,0,12.692a4.281,4.281,0,0,0,4.237,4.353q10.273,0,20.544,0a3.417,3.417,0,0,0,.7-.072,4.306,4.306,0,0,0,3.448-4.325q0-10.005,0-20.01c0-3.206.006-6.414,0-9.621a4.279,4.279,0,0,0-4.212-4.306q-10.248,0-20.5,0a3.711,3.711,0,0,0-.605.047,4.3,4.3,0,0,0-3.608,4.33q0,7.4,0,14.8M432.091,12.48h1.1A5.9,5.9,0,0,1,439,17.737a7.321,7.321,0,0,1,.046.838q0,10.521,0,21.044c0,.482.1.581.56.582.756,0,1.514.006,2.272,0,.193,0,.253.056.251.256q-.009,2.544,0,5.087c0,.188-.038.27-.242.267-.9-.014-1.8.008-2.694-.021a5.889,5.889,0,0,1-5.615-5.935q-.006-10.595,0-21.189c0-.474-.1-.579-.561-.579h-.878c-.005.1-.013.181-.013.258q0,12.357,0,24.715A6.231,6.231,0,0,1,427,49.186a6.988,6.988,0,0,1-1.051.08c-6.676.005-13.354,0-20.033.013a6.33,6.33,0,0,1-3.928-1.172,6.162,6.162,0,0,1-2.482-4.056,1.172,1.172,0,0,0-.023-.118.5.5,0,0,0-.037-.088c-.325,0-.66-.006-.994,0A5.854,5.854,0,0,1,392.66,39.2a8.066,8.066,0,0,1-.159-1.665q-.014-10.425-.005-20.853c0-.455-.107-.564-.552-.564h-2.506c-.008-.087-.02-.163-.02-.239,0-1.7,0-3.407,0-5.11,0-.2.048-.262.247-.258,1.016.022,2.034-.023,3.043.053a5.835,5.835,0,0,1,5.154,4.789,7.871,7.871,0,0,1,.108,1.336q.008,10.427,0,20.852c0,.1-.005.208,0,.312.017.195.111.358.306.37.37.022.744.006,1.142.006v-.349q0-12.249,0-24.5a6.21,6.21,0,0,1,5.548-6.31,4.729,4.729,0,0,1,.491-.016H426.03a6.152,6.152,0,0,1,6.005,5.171c.014.078.034.155.056.252" transform="translate(2916 1403)" fill="#fff"/>
    <path id="Caminho_732" data-name="Caminho 732" d="M411.054,16.525h1.9v.281q0,6.73.006,13.46a.641.641,0,0,1-.284.595,6.376,6.376,0,0,0-1.606,1.66,5.89,5.89,0,0,0,.806,7.312,5.545,5.545,0,0,0,8.549-.92,5.8,5.8,0,0,0-1.193-7.751,1.5,1.5,0,0,1-.652-1.355c.029-4.335.015-8.669.015-13v-.272h1.9v.307q0,6.288,0,12.573a.534.534,0,0,0,.2.447,7.767,7.767,0,0,1-3.643,13.42,7.712,7.712,0,0,1-6.2-13.406.569.569,0,0,0,.213-.465q-.009-6.286-.005-12.573Z" transform="translate(2916 1403)" fill="#fff"/>
    <path id="Caminho_733" data-name="Caminho 733" d="M414.276,19.967h3v.352q0,5.807-.006,11.613a.384.384,0,0,0,.239.4,3.871,3.871,0,0,1,2,3.956A3.771,3.771,0,1,1,414.1,32.3a.32.32,0,0,0,.18-.338q0-5.818,0-11.637Z" transform="translate(2916 1403)" fill="#fff"/>
  </g>
</svg>
