<svg xmlns="http://www.w3.org/2000/svg" width="40.32" height="48.115" viewBox="0 0 40.32 48.115">
  <g id="Grupo_211" data-name="Grupo 211" transform="translate(-3312.826 -1861.776)">
    <path id="Caminho_734" data-name="Caminho 734" d="M434.8,465.006c-.188-.089-.229-.125-.268-.123-5.989.334-11.734-.438-17-3.469a1.585,1.585,0,0,0-1.111.117c-2.08.8-4.093,1.794-6.226,2.412a29.807,29.807,0,0,1-11.017.907v1.616c0,6.673.119,13.349-.041,20.018a13.4,13.4,0,0,0,5.3,11.175,42.56,42.56,0,0,0,12.046,6.619,1.627,1.627,0,0,0,1.067.01,42.653,42.653,0,0,0,11.928-6.542,13.512,13.512,0,0,0,5.357-11.3c-.164-6.669-.041-13.345-.041-20.018Zm2.3,11.307c0,3.382-.12,6.769.028,10.144.242,5.508-2.149,9.75-6.38,13.18a47.87,47.87,0,0,1-13.365,7.161,2.022,2.022,0,0,1-1.36-.057,52.078,52.078,0,0,1-12.727-7.158c-4.291-3.45-6.622-7.691-6.464-13.275.2-7.22.05-14.451.051-21.678,0-2.23.156-2.361,2.5-2.075a27.531,27.531,0,0,0,13.1-1.631c1.273-.473,2.374-1.368,3.626-1.917a2.344,2.344,0,0,1,1.866-.062c4.876,3.361,10.4,4.029,16.134,3.665,3.01-.19,3-.337,3,2.585Z" transform="translate(2916 1403)" fill="#fff"/>
    <path id="Caminho_735" data-name="Caminho 735" d="M410.976,488.82h3.484c.882-1.467-1.13-4.309,2.4-4.261.693.009,1.858.036,1.99.364a23.024,23.024,0,0,1,.915,3.892h3.42c0-2.288.011-4.544-.017-6.8a1.041,1.041,0,0,0-.372-.7c-1.875-1.491-3.773-2.956-5.705-4.461-1.952,1.511-3.822,2.945-5.665,4.409a1.2,1.2,0,0,0-.429.8c-.034,2.214-.019,4.427-.019,6.755m-3.058-4.775c-.209.128-.443.392-.66.379-.64-.037-1.574.015-1.828-.343a1.767,1.767,0,0,1,.23-1.774q5.17-4.2,10.527-8.17a2.092,2.092,0,0,1,1.907.082c3.493,2.593,6.908,5.285,10.341,7.954a1.279,1.279,0,0,1,.369,1.944,1.348,1.348,0,0,1-2.015.262c-.187-.123-.387-.228-.815-.477,0,2.018.008,3.844,0,5.67-.01,1.665-.392,2.046-2.111,2.052q-6.82.017-13.643,0c-1.6-.005-2.044-.443-2.071-1.981-.031-1.8-.044-3.609-.067-5.413,0-.032-.054-.064-.161-.183" transform="translate(2916 1403)" fill="#fff"/>
  </g>
</svg>
