<svg xmlns="http://www.w3.org/2000/svg" width="51.382" height="36.796" viewBox="0 0 51.382 36.796">
  <g id="Grupo_209" data-name="Grupo 209" transform="translate(-3306.082 -1662.627)">
    <path id="Caminho_738" data-name="Caminho 738" d="M440.888,296.423h-50.23a.582.582,0,0,1,0-1.164h50.23a.582.582,0,0,1,0,1.164" transform="translate(2916 1403)" fill="#fff"/>
    <path id="Caminho_739" data-name="Caminho 739" d="M392.472,296.423a.579.579,0,0,1-.576-.581V275.126a.584.584,0,0,1,.274-.5c.169-.105,17.261-10.51,47.894-12.1a.574.574,0,0,1,.606.55.58.58,0,0,1-.546.611c-28.237,1.468-44.782,10.448-47.076,11.771v20.382a.579.579,0,0,1-.576.581" transform="translate(2916 1403)" fill="#fff"/>
    <path id="Caminho_740" data-name="Caminho 740" d="M421.7,296.423a.574.574,0,0,1-.485-.267l-2.636-4.119a2.128,2.128,0,0,1-.3-1.55,2.406,2.406,0,0,1,1.205-1.539,2.981,2.981,0,0,1,3.124.3l-1.3-4.89a2.67,2.67,0,0,1,1.007-2.783c1.2-.794,2.63.3,3.294,1.083l1.718,1.816c.082-2.116.547-5.9,2.763-7.4a.57.57,0,0,1,.321-.1c1.327,0,3.031,1.3,3.884,7.22,1.371-1.713,3.327-3.741,5.017-3.954a1.393,1.393,0,0,1,1.207.4c.967.975.727,3.413.669,3.892a32.39,32.39,0,0,1-4.937,11.621.574.574,0,0,1-.8.168.584.584,0,0,1-.167-.8,31.926,31.926,0,0,0,4.76-11.145c.109-.912.079-2.485-.341-2.908a.259.259,0,0,0-.25-.074c-1.194.151-3.1,1.877-5.092,4.617a.575.575,0,0,1-1.038-.282c-.7-6.455-2.24-7.427-2.76-7.569-2.363,1.871-2.09,7.673-2.087,7.733a.585.585,0,0,1-.347.565.571.571,0,0,1-.645-.132l-2.722-2.876-.022-.025c-.236-.279-1.236-1.247-1.8-.877a1.5,1.5,0,0,0-.519,1.526l1.739,6.549a.585.585,0,0,1-.274.658.577.577,0,0,1-.7-.1c-.018-.02-1.93-1.959-3.113-1.237a1.31,1.31,0,0,0-.675.784.983.983,0,0,0,.127.659l2.648,4.139a.584.584,0,0,1-.172.8.564.564,0,0,1-.312.094" transform="translate(2916 1403)" fill="#fff"/>
    <path id="Caminho_741" data-name="Caminho 741" d="M398.2,296.423a.579.579,0,0,1-.577-.581V279.475a.576.576,0,1,1,1.152,0v16.367a.578.578,0,0,1-.575.581" transform="translate(2916 1403)" fill="#fff"/>
    <path id="Caminho_742" data-name="Caminho 742" d="M401.429,296.423a.579.579,0,0,1-.576-.581V279.475a.576.576,0,1,1,1.152,0v16.367a.579.579,0,0,1-.576.581" transform="translate(2916 1403)" fill="#fff"/>
    <path id="Caminho_743" data-name="Caminho 743" d="M410.122,296.423a.579.579,0,0,1-.576-.581V279.475a.576.576,0,1,1,1.152,0v16.367a.579.579,0,0,1-.576.581" transform="translate(2916 1403)" fill="#fff"/>
    <path id="Caminho_744" data-name="Caminho 744" d="M438.846,280.057a.579.579,0,0,1-.576-.581V263.108a.576.576,0,1,1,1.152,0v16.368a.579.579,0,0,1-.576.581" transform="translate(2916 1403)" fill="#fff"/>
    <path id="Caminho_745" data-name="Caminho 745" d="M421.725,282.232a.579.579,0,0,1-.576-.581V265.283a.576.576,0,1,1,1.152,0v16.368a.579.579,0,0,1-.576.581" transform="translate(2916 1403)" fill="#fff"/>
    <path id="Caminho_746" data-name="Caminho 746" d="M427.848,285.894a.579.579,0,0,1-.576-.581V264.082a.576.576,0,1,1,1.152,0v21.231a.579.579,0,0,1-.576.581" transform="translate(2916 1403)" fill="#fff"/>
    <path id="Caminho_747" data-name="Caminho 747" d="M433.574,282.918a.579.579,0,0,1-.576-.581V263.68a.576.576,0,1,1,1.152,0v18.657a.579.579,0,0,1-.576.581" transform="translate(2916 1403)" fill="#fff"/>
    <path id="Caminho_748" data-name="Caminho 748" d="M411.52,280.057H396.78a.582.582,0,0,1,0-1.164h14.74a.582.582,0,0,1,0,1.164" transform="translate(2916 1403)" fill="#fff"/>
    <path id="Caminho_749" data-name="Caminho 749" d="M415.772,296.423a.579.579,0,0,1-.576-.581V266.513a.576.576,0,1,1,1.152,0v29.329a.579.579,0,0,1-.576.581" transform="translate(2916 1403)" fill="#fff"/>
    <path id="Caminho_750" data-name="Caminho 750" d="M425.014,265.27a.566.566,0,0,1-.2-.036,85.117,85.117,0,0,0-28.024-4.433h-.009a.582.582,0,0,1-.009-1.163,86.344,86.344,0,0,1,28.444,4.505.583.583,0,0,1,.339.748.576.576,0,0,1-.54.379" transform="translate(2916 1403)" fill="#fff"/>
    <path id="Caminho_751" data-name="Caminho 751" d="M398.2,264.263a.579.579,0,0,1-.577-.581v-3.473a.576.576,0,1,1,1.152,0v3.473a.578.578,0,0,1-.575.581" transform="translate(2916 1403)" fill="#fff"/>
    <path id="Caminho_752" data-name="Caminho 752" d="M398.2,272.847a.579.579,0,0,1-.577-.581v-3.473a.576.576,0,1,1,1.152,0v3.473a.578.578,0,0,1-.575.581" transform="translate(2916 1403)" fill="#fff"/>
  </g>
</svg>
