<svg xmlns="http://www.w3.org/2000/svg" width="56.183" height="56.516" viewBox="0 0 56.183 56.516">
  <g id="Grupo_215" data-name="Grupo 215" transform="translate(-3702.422 -1707.951)">
    <path id="Caminho_760" data-name="Caminho 760" d="M832.528,318.684a27.358,27.358,0,0,0,.1-6.25c-.073-1.226-1.27-.559-1.964-.682-.761-.136-1.114.153-1.255,1.051-.425,2.7.578,4.576,3.116,5.881M814.39,357.995c1.847,0,3.693-.03,5.538.012.937.022,1.3-.308,1.3-1.284-.041-3.566-.032-7.133,0-10.7.007-.871-.34-1.162-1.179-1.156q-5.536.039-11.076,0c-.834,0-1.173.285-1.164,1.165.036,3.566.047,7.133,0,10.7-.014.988.345,1.3,1.276,1.275,1.771-.043,3.544-.013,5.316-.013m24.87-28.246c-.148-.983-.932-1.489-1.6-2.059-7.087-6.1-14.2-12.161-21.264-18.285-1.239-1.075-2.2-1.134-3.466-.045q-10.893,9.35-21.871,18.6c-.911.772-1.741,1.654-.815,2.812,1.062,1.327,2.066.456,3.016-.358,6.536-5.6,13.1-11.166,19.609-16.8,1.229-1.064,2.19-1.2,3.458-.075,4.051,3.6,8.166,7.119,12.26,10.667q3.783,3.279,7.575,6.548a1.728,1.728,0,0,0,3.093-1.012M796.411,344.74c0,2.309-.068,4.621.021,6.928.078,2.046-.932,4.731.425,5.966,1.335,1.214,3.975.182,6.023.388,1.6.16,1.774-.61,1.75-1.94-.07-4.021.026-8.046-.049-12.067-.034-1.844.769-2.559,2.517-2.55,4.96.025,9.922.032,14.881,0,1.908-.015,2.648.877,2.6,2.747q-.106,3.795,0,7.6c.053,1.986-.869,4.611.381,5.791,1.338,1.262,3.952.229,6,.414,1.315.121,1.795-.277,1.781-1.706-.07-7.6-.048-15.2-.012-22.795a2.67,2.67,0,0,0-1.026-2.284q-8.064-6.834-16.049-13.761c-.735-.638-1.145-.789-1.978-.066q-7.988,6.923-16.1,13.705a3.084,3.084,0,0,0-1.186,2.686c.074,3.649.027,7.3.027,10.95M826,313.238c.157-4.969-.132-5.017,4.872-4.982,5.085.036,5.085.008,5.085,5.078a9.656,9.656,0,0,1-.008,1.34c-.7,4.848.373,8.823,4.931,11.475,2.032,1.184,1.949,3.493,1.346,5.44a4.332,4.332,0,0,1-4.654,3.089c-1.52-.1-1.65.432-1.641,1.7.051,7.376.033,14.753.021,22.128,0,2.7-.236,2.92-2.93,2.921-12.366,0-24.733-.038-37.1.04-2.141.015-2.866-.691-2.84-2.839.095-7.376.023-14.753.051-22.129,0-1.22.056-1.986-1.692-1.853a4.457,4.457,0,0,1-4.734-3.308,4.674,4.674,0,0,1,1.6-5.388q11.265-9.6,22.516-19.22c2.8-2.386,4.883-2.37,7.681.038,2.4,2.068,4.8,4.146,7.492,6.47" transform="translate(2916 1403)" fill="#fff"/>
    <path id="Caminho_761" data-name="Caminho 761" d="M817.939,331.427c0-3.224,0-3.224-2.62-3.225-4.1,0-4.1,0-4.1,2.886,0,3.56,0,3.56,2.767,3.561,3.955,0,3.955,0,3.956-3.222m-3.329-6.611h4.441c1.431,0,2.213.649,2.207,2.157q-.02,4.469,0,8.937c.009,1.477-.666,2.209-2.143,2.2q-4.553-.012-9.1,0c-1.438.006-2.221-.631-2.216-2.14.01-2.978.021-5.958,0-8.937a1.931,1.931,0,0,1,2.153-2.221c1.554-.018,3.109,0,4.663,0" transform="translate(2916 1403)" fill="#fff"/>
    <path id="Caminho_762" data-name="Caminho 762" d="M814.516,349.75c.251-.967.779-1.7,1.806-1.622a1.679,1.679,0,1,1-.146,3.355c-1.013-.036-1.508-.774-1.66-1.733" transform="translate(2916 1403)" fill="#fff"/>
  </g>
</svg>
