<svg xmlns="http://www.w3.org/2000/svg" width="29.545" height="40.443" viewBox="0 0 29.545 40.443">
  <g id="Grupo_206" data-name="Grupo 206" transform="translate(-2916 -1877.49)">
    <path id="Caminho_719" data-name="Caminho 719" d="M26.879,482.974h0c0-1.089.016-2.177,0-3.266-.018-.848-.566-1.376-1.27-1.275-.591.084-.956.593-.956,1.379-.007,2.1-.01,4.2,0,6.3a.94.94,0,0,1-.33.78,2.413,2.413,0,0,0-.159,3.412,2.124,2.124,0,0,0,3.194.008,2.423,2.423,0,0,0-.142-3.415.869.869,0,0,1-.339-.717c.016-1.069.006-2.138.006-3.208m1.1-2.174c0,1.261.011,2.522,0,3.783a1.774,1.774,0,0,0,.475,1.287,4.168,4.168,0,0,1-.042,5.668,3.637,3.637,0,0,1-5.28.021,4.137,4.137,0,0,1-.092-5.662,1.888,1.888,0,0,0,.5-1.336c-.011-2.6-.018-5.2,0-7.8a2.219,2.219,0,1,1,4.435.023c.015.592,0,1.185,0,1.777V480.8M4.262,504.3c0-.84-.451-1.383-1.132-1.367-.65.014-1.075.53-1.075,1.305,0,.871.412,1.391,1.1,1.392s1.105-.515,1.1-1.33m5.573,8.439h.217a1.166,1.166,0,1,0,.057-2.327,5.931,5.931,0,0,1-4.869-2.844,1.089,1.089,0,0,0-1.63-.409,1.225,1.225,0,0,0-.2,1.722,7.985,7.985,0,0,0,6.424,3.858m.413-29.451a34.33,34.33,0,0,0,3.207,6.5c1.3,2.067,2.659,4.092,3.972,6.15a19.276,19.276,0,0,1,2.737,5.818,10.809,10.809,0,0,1-7.622,12.9c-6.786,1.64-13.086-4.125-12.5-11.459a12.953,12.953,0,0,1,1.776-5.183c1.113-2.037,2.434-3.928,3.7-5.86a43.341,43.341,0,0,0,4.541-8.512c.031-.082.085-.155.194-.354" transform="translate(2916 1403)" fill="#fff"/>
  </g>
</svg>
