<svg xmlns="http://www.w3.org/2000/svg" width="52.44" height="50.734" viewBox="0 0 52.44 50.734">
  <g id="Grupo_213" data-name="Grupo 213" transform="translate(-3703.241 -1503.748)">
    <path id="Caminho_727" data-name="Caminho 727" d="M801.445,139.152h14.2a6.392,6.392,0,0,1-.194-.927c-.066-1.328-.691-1.68-1.948-1.647-3.843.1-7.689.034-11.534.039-.4,0-.8.039-1.261.063.278.935.506,1.7.735,2.472m13.217-4.636a3.282,3.282,0,0,1,2.36-3.1c1.852-.479,3.19.4,4.091,2.2.1-3.5.1-6.873.105-10.245,0-2.579,1.112-4.009,3.08-3.989,1.934.022,3.037,1.493,3.043,4.063,0,1.007,0,2.013,0,2.618,1.231.5,2.2.886,3.172,1.289.415.172.818.374,1.226.564a4.424,4.424,0,0,0,.4-1.251c.026-5.912.019-11.824.016-17.737,0-.4-.031-.794-.05-1.223H800.4v26.814Zm25.019,7.642c-.7,2.778-1.362,5.567-2.144,8.318a1.553,1.553,0,0,1-1.216.9c-.729-.079-.915-.763-.655-1.507.081-.228.145-.463.206-.7a38.489,38.489,0,0,0,1.51-6.13c.294-3.441.215-6.922.2-10.385,0-.372-.629-.742-.967-1.112-.358.4-.97.764-1.027,1.207a27.675,27.675,0,0,0-.057,3.542c0,.741-.061,1.465-.981,1.468s-.984-.731-.984-1.467c0-1.591,0-3.182,0-4.773,0-.785-.134-1.563-1.07-1.564-.958,0-1.032.788-1.03,1.572.005,1.59.013,3.182-.005,4.772-.008.728-.115,1.466-1.025,1.465s-1.02-.695-1.019-1.451c.005-2.081-.012-4.161.01-6.242.009-.788-.188-1.473-1.007-1.492-.9-.021-1.092.7-1.082,1.532.024,2,.011,4,.006,6,0,.8.014,1.682-1.058,1.651-.976-.027-.992-.873-.993-1.62-.011-4.161-.005-8.322-.008-12.483a3.049,3.049,0,0,0-.065-1.206c-.179-.375-.58-.856-.9-.871s-.8.4-1.009.755a2.563,2.563,0,0,0-.109,1.2q-.009,6.732,0,13.462a2.931,2.931,0,0,1-.022.971c-.169.444-.4,1.088-.727,1.177a1.408,1.408,0,0,1-1.182-.633c-.777-1.311-1.428-2.7-2.136-4.062-.349-.671-.757-1.315-1.628-.958-.848.349-.8,1.106-.632,1.858.509,2.215.888,4.479,1.595,6.623a24.7,24.7,0,0,0,2.259,4.5c.642,1.11,1.524,2.07,2.143,3.191.214.388-.044,1.063-.087,1.608-.477-.1-1.186-.02-1.395-.322-1.929-2.784-4.278-5.311-5.06-8.832a1.154,1.154,0,0,0-.847-.676c-1.239-.077-2.487.015-3.726-.05-.768-.041-1.033.269-1.263,1.022a14.2,14.2,0,0,1-7.046,8.688c-.1.056-.208.108-.312.164-.643.343-1.337.344-1.532-.429a1.694,1.694,0,0,1,.65-1.419,12.424,12.424,0,0,0,4.583-4.055c.741-1.167,1.3-2.461,2.036-3.879H801.51c-.018.278-.037.513-.046.749-.024.725-.381,1.282-1.055,1.108a1.753,1.753,0,0,1-.9-1.154,10.033,10.033,0,0,1-.058-1.946,5.715,5.715,0,0,0-5.088-5.7c-1.185-.122-1.638-.614-1.563-1.861.081-1.341.056-2.694.005-4.038-.084-2.175-1.482-3.733-3.33-3.792-.043.064-.125.13-.124.194.066,4.847-.058,9.709.3,14.533.164,2.237,1.378,4.371,1.9,6.607a22.475,22.475,0,0,1,.367,4.541c.005.241-.591.7-.9.691s-.629-.461-.938-.724c-.023-.018-.024-.08-.018-.118.475-2.815-1.226-5.042-1.838-7.563-.4-1.65-.652-3.338-.971-5.01V124.532c1.175-2.276,1.9-2.386,5.572-.767v-1.343c0-5.465-.014-10.931.009-16.4.011-2.736,2.043-5.16,4.6-5.216,4.851-.106,9.707-.057,14.56,0a1.49,1.49,0,0,1,1.077.941c.152.723-.412,1.057-1.088,1.074-.311.008-.622.006-.933.006-4.193,0-8.387-.019-12.581.008-2.366.016-3.658,1.22-3.671,3.6-.043,8.4-.023,16.8.005,25.2a1.168,1.168,0,0,0,.545.868c.939.429,1.925.747,3.018,1.154V132.34q0-12.543,0-25.085c0-1.581.189-1.786,1.663-1.787q16.193-.008,32.385,0c1.508,0,1.7.222,1.7,1.867,0,6.241.026,12.482-.019,18.721-.01,1.394.018,2.674,1.278,3.48l2.2-.172c.023-.306.065-.623.065-.939q.006-10.89,0-21.78c0-2.512-1.164-3.73-3.564-3.808-.272-.008-.543,0-.816,0H821.49c-.311,0-.621,0-.932,0-.649-.009-1.182-.205-1.181-1.014,0-.782.485-1.045,1.156-1.045q7.223,0,14.445.008a3.06,3.06,0,0,1,.686.117c2.21.532,3.353,2.166,4.017,4.295Z" transform="translate(2916 1403)" fill="#fff"/>
    <path id="Caminho_728" data-name="Caminho 728" d="M817.578,101.81c-.634.47-1.014.973-1.348.941-.361-.035-.68-.567-1.018-.883.335-.364.628-.929,1.021-1.023.287-.068.709.482,1.345.965" transform="translate(2916 1403)" fill="#fff"/>
    <path id="Caminho_729" data-name="Caminho 729" d="M837.136,121.037c-.632.5-1.039,1.051-1.325.987-.392-.087-.691-.639-1.03-.992.326-.32.629-.857.983-.9.334-.039.722.447,1.372.9" transform="translate(2916 1403)" fill="#fff"/>
    <path id="Caminho_730" data-name="Caminho 730" d="M810.388,125.745H812.3v-5.1h-1.913Zm-2.126,0c0-1.838-.007-3.622,0-5.4.008-1.577.253-1.823,1.781-1.834.971-.006,1.943.027,2.913-.008,1.051-.038,1.49.487,1.456,1.553-.019.571,0,1.143,0,1.714,0,1.325,0,2.651,0,3.96h1.943c.019-.271.042-.467.046-.664.055-2.725.116-5.451.14-8.176a1.022,1.022,0,0,0-.379-.666c-1.583-1.309-3.186-2.593-4.819-3.915l-4.994,4.064v9.376Zm-3.951-7.261c-.351-.026-.53.011-.656-.058-.411-.225-1.045-.417-1.137-.757a1.647,1.647,0,0,1,.555-1.293c2.144-1.817,4.339-3.567,6.516-5.338.245-.2.5-.387.73-.606a1.348,1.348,0,0,1,2.06,0c2.247,1.877,4.554,3.675,6.782,5.576a2.7,2.7,0,0,1,.968,1.687c.011.325-.906.687-1.657,1.207,0,2.108,0,4.587,0,7.066,0,1.7-.28,1.994-1.887,2q-5.241,0-10.482,0c-1.49,0-1.782-.294-1.788-1.834-.01-2.519,0-5.038,0-7.641" transform="translate(2916 1403)" fill="#fff"/>
  </g>
</svg>
