<svg xmlns="http://www.w3.org/2000/svg" width="48.23" height="49.944" viewBox="0 0 48.23 49.944">
  <g id="Grupo_212" data-name="Grupo 212" transform="translate(-3705.346 -1403)">
    <path id="Caminho_753" data-name="Caminho 753" d="M811.019,42.434h4.848v-4.56h-4.848Zm12.32-28.019c.214,1.835.328,3.389.621,4.908a1.565,1.565,0,0,0,1.09,1c2.164.1,4.336.046,6.791.046-.5-1.87-.838-3.453-1.386-4.957a1.919,1.919,0,0,0-1.421-.955c-1.794-.117-3.6-.046-5.7-.046M795.112,20.29h7.7c.248-1.915.493-3.8.761-5.873-2.117,0-3.933-.057-5.739.04a1.751,1.751,0,0,0-1.325.836c-.55,1.58-.916,3.225-1.392,5m19.464-5.827v5.814H822.2c-.3-2.017-.579-3.907-.862-5.814ZM804.7,20.24h7.644V14.523H805.53c-.282,1.944-.55,3.792-.829,5.717m2.829-7.825h11.9a6.123,6.123,0,0,0-6.116-5.262,5.971,5.971,0,0,0-5.782,5.262M792.867,28.166c2.881,0,5.446.025,8.008-.032a1.248,1.248,0,0,0,.954-.691c.272-1.692.424-3.4.636-5.3-.952,0-1.59-.018-2.226,0-1.858.063-4.227-.529-5.43.4s-1.254,3.393-1.942,5.615M824.4,22.15c.226,1.875.391,3.488.635,5.088.048.316.386.837.6.841,2.742.057,5.484.038,8.3.038-.47-1.811-.76-3.294-1.269-4.7a2.063,2.063,0,0,0-1.363-1.214c-2.191-.131-4.394-.057-6.906-.057m-1.223,6.024c-.217-1.909-.346-3.522-.623-5.109a1.379,1.379,0,0,0-.991-.868c-2.309-.079-4.622-.04-7.027-.04v5.866a10.246,10.246,0,0,0,1.175.144c2.385.013,4.768.007,7.466.007m-10.808,0V22.15c-2.38,0-4.64-.047-6.894.044a1.531,1.531,0,0,0-1.116.94c-.3,1.583-.421,3.2-.618,4.891a9.91,9.91,0,0,0,1.085.144c2.457.01,4.913,0,7.543,0m13.881,7.773c1.856,0,3.478-.012,5.1,0,5.44.047,4.785.4,3.3-5.186a1.454,1.454,0,0,0-1.114-.774c-2.655-.068-5.313-.036-8.146-.036.3,2.067.564,3.917.864,5.994M801.51,29.952c-2.858,0-5.449-.031-8.038.033a1.506,1.506,0,0,0-1.166.7,18.831,18.831,0,0,0-.965,3.777c-.057.428.519,1.345.832,1.357,2.828.107,5.662.063,8.508.063.286-2.051.537-3.85.829-5.935m22.825,5.909c-.335-2.129-.629-4.009-.908-5.786h-8.873v5.786Zm-21.686-.068h9.7V29.952c-2.709,0-5.287-.04-7.86.041a1.553,1.553,0,0,0-1.177.877c-.316,1.574-.449,3.185-.665,4.923m1.244,14.151c-1.031-4.169.468-6.462,5.021-7.586V37.784h-2.073c-4.681,0-9.363.01-14.043,0-2.777-.01-3.959-1.471-3.251-4.171,1.622-6.185,3.328-12.347,4.98-18.524a3.073,3.073,0,0,1,3.394-2.555c2.4.056,4.8.013,7.324.013,1.155-4.488,3.749-7.293,8.6-7.16,3.911.106,6.158,2.2,7.822,7.16,2.408,0,4.872.043,7.333-.013a3.075,3.075,0,0,1,3.4,2.553c1.652,6.177,3.358,12.34,4.98,18.524.708,2.7-.474,4.164-3.249,4.173-5.318.014-10.636,0-16.08,0v4.574c4.517,1.159,5.947,3.341,4.983,7.586h-5.858c-.518-1.461.027-2.056,1.523-1.965.882.055,1.77.011,2.724.011-.085-2.153-1.039-3.414-2.917-3.49-3.37-.136-6.752-.112-10.125-.009-1.9.057-2.846,1.4-2.65,3.5.826,0,1.667.043,2.5-.01,1.5-.094,2.04.5,1.523,1.964Z" transform="translate(2916 1403)" fill="#fff"/>
    <path id="Caminho_754" data-name="Caminho 754" d="M814.047,0c-.022,1.01-.035,2.019-.109,3.025a6.542,6.542,0,0,1-.98,0c-.065-1.006-.07-2.015-.082-3.025Z" transform="translate(2916 1403)" fill="#fff"/>
    <path id="Caminho_755" data-name="Caminho 755" d="M824.516,3.693l-3.229,2.83c-.265-.467-.863-1.194-.737-1.356a13.609,13.609,0,0,1,2.422-2.457c.241-.186.927.207,1.408.335.045.216.091.432.136.648" transform="translate(2916 1403)" fill="#fff"/>
    <path id="Caminho_756" data-name="Caminho 756" d="M807.245,5.721c-1.078.33-1.777.761-2.018.578a13.025,13.025,0,0,1-2.421-2.432c-.132-.173.449-.9.7-1.376l3.738,3.23" transform="translate(2916 1403)" fill="#fff"/>
  </g>
</svg>
