<svg xmlns="http://www.w3.org/2000/svg" xmlns:xlink="http://www.w3.org/1999/xlink" width="50.157" height="46.528" viewBox="0 0 50.157 46.528">
  <defs>
    <clipPath id="clip-path">
      <rect id="Retângulo_99" data-name="Retângulo 99" width="50.157" height="46.528" fill="#45c7ad"/>
    </clipPath>
  </defs>
  <g id="DESIGN_INTELIGENTE" data-name="DESIGN INTELIGENTE" transform="translate(2936 -511)">
    <g id="Grupo_205" data-name="Grupo 205" transform="translate(-2936 511)" clip-path="url(#clip-path)">
      <path id="Caminho_715" data-name="Caminho 715" d="M0,36.34c1.57-3.577,3.126-7.16,4.718-10.726a4.449,4.449,0,0,1,2.127-2.088q5.2-2.717,10.393-5.456a1.8,1.8,0,0,0,.68-.65q4.374-7.531,8.715-15.082A4.227,4.227,0,0,1,30.242.006,4.01,4.01,0,0,1,34.035,2a4.026,4.026,0,0,1,.087,4.324c-1.256,2.231-2.552,4.44-3.832,6.658q-1.748,3.03-3.5,6.061c-.088.153-.168.31-.273.505,1.525.371,3.008.734,4.492,1.092,1.727.416,3.457.82,5.181,1.247.309.077.478.061.653-.261a3.148,3.148,0,0,1,2.908-1.744c2.3-.014,4.6-.007,6.905,0A3.279,3.279,0,0,1,50.083,22.5a.528.528,0,0,0,.074.122V43.787a.5.5,0,0,0-.077.12,3.3,3.3,0,0,1-3.431,2.619q-3.4.005-6.806,0a3.24,3.24,0,0,1-2.827-1.468.622.622,0,0,0-.6-.3c-2.415.007-4.831-.019-7.246.011A8.9,8.9,0,0,1,23.2,42.719a6.5,6.5,0,0,0-4.3-1.485c-1.5.009-3-.01-4.5.013a1.37,1.37,0,0,0-.746.251q-3.19,2.354-6.353,4.744a.99.99,0,0,1-1.179.148,1.018,1.018,0,0,1-.476-1.135c.123-.872.218-1.748.318-2.623.048-.422.083-.846.127-1.3-.211.05-.337.081-.463.11A4.569,4.569,0,0,1,.1,37.933c-.024-.108-.067-.213-.1-.319V36.34M22.685,26.158a.923.923,0,0,0,.083.1c.122.081.249.156.368.241a4.291,4.291,0,0,1,1.934,4.219,3.685,3.685,0,0,1-3.78,3.148q-4.505.014-9.011,0a2.925,2.925,0,0,0-1.883.56,2.7,2.7,0,0,0,1.623,4.849c2.236.016,4.473.027,6.709,0a8.734,8.734,0,0,1,5.834,2.018,6.669,6.669,0,0,0,4.391,1.518c2.318-.009,4.636,0,6.954,0h.535v-.612c0-1.486,0-2.972,0-4.457a1.006,1.006,0,0,1,.79-1.087A.987.987,0,0,1,38.4,37.7c.009,1.747,0,3.494,0,5.241,0,1.108.511,1.625,1.608,1.626q3.281,0,6.562,0c1.116,0,1.625-.5,1.625-1.6q0-9.772,0-19.544A1.386,1.386,0,0,0,46.6,21.837q-3.306,0-6.611,0A1.386,1.386,0,0,0,38.4,23.42q0,2.474,0,4.947c0,.131,0,.261,0,.392a.992.992,0,0,1-.982,1.009.979.979,0,0,1-.97-1.019c-.013-1.469-.009-2.939,0-4.408,0-.259-.038-.4-.34-.471-3.441-.817-6.876-1.655-10.317-2.473a.493.493,0,0,0-.429.155c-.9,1.528-1.788,3.068-2.676,4.6M26.733,6.093l-14.9,25.814c1.645,0,3.191-.013,4.737.009a.788.788,0,0,0,.8-.458Q23.717,20.429,30.087,9.415c.194-.337.387-.675.6-1.039l-3.95-2.283M15.815,21.087c-.168.06-.23.073-.283.1q-3.984,2.088-7.966,4.18a2.663,2.663,0,0,0-1.2,1.312q-.753,1.671-1.51,3.341C3.971,31.981,3.075,33.937,2.2,35.9a2.591,2.591,0,0,0,.709,3.1,2.66,2.66,0,0,0,3.106.168.9.9,0,0,0,.452-.754,4.6,4.6,0,0,1,.218-1.443c.423-1,.946-1.959,1.437-2.93a3.572,3.572,0,0,1,.282-.4c.324-.467.667-.922.964-1.406.426-.695.817-1.411,1.225-2.117l5.219-9.038M31.666,6.678c.29-.508.588-.973.829-1.466a2.274,2.274,0,0,0-3.922-2.274c-.309.454-.562.945-.862,1.456l3.956,2.284m-12.3,25.227c.765,0,1.416.017,2.065,0a1.742,1.742,0,0,0,1.675-1.318,2.349,2.349,0,0,0-1.462-2.629l-2.278,3.951M8.3,39.589l-.455,3.8L10.757,41.2,8.3,39.589" transform="translate(0 0)" fill="#45c7ad"/>
      <path id="Caminho_716" data-name="Caminho 716" d="M379.874,335.3c0-.408.012-.817,0-1.224a.974.974,0,1,0-1.948-.019c-.019.832-.017,1.665,0,2.5a.98.98,0,0,0,.989,1,.994.994,0,0,0,.962-1.03c.012-.408,0-.816,0-1.224m-6.833-6.332a.98.98,0,0,0-1,.975.976.976,0,1,0,1.951,0,.978.978,0,0,0-.953-.97" transform="translate(-335.597 -296.738)" fill="#45c7ad"/>
      <path id="Caminho_717" data-name="Caminho 717" d="M433.9,373.186c0,.408.01.817,0,1.224a.994.994,0,0,1-.962,1.03.981.981,0,0,1-.989-1c-.016-.832-.018-1.665,0-2.5a.974.974,0,1,1,1.948.019c.015.408,0,.816,0,1.224" transform="translate(-389.617 -334.628)" fill="#45c7ad"/>
      <path id="Caminho_718" data-name="Caminho 718" d="M373.041,328.965a.978.978,0,0,1,.953.97.976.976,0,1,1-1.951,0,.98.98,0,0,1,1-.975" transform="translate(-335.597 -296.738)" fill="#45c7ad"/>
    </g>
  </g>
</svg>
