<svg id="PERSONALIZAÇÃO_" data-name="PERSONALIZAÇÃO " xmlns="http://www.w3.org/2000/svg" xmlns:xlink="http://www.w3.org/1999/xlink" width="50" height="46.428" viewBox="0 0 50 46.428">
  <defs>
    <clipPath id="clip-path">
      <rect id="Retângulo_81" data-name="Retângulo 81" width="50" height="46.428" fill="#45c7ad"/>
    </clipPath>
  </defs>
  <g id="Grupo_127" data-name="Grupo 127" clip-path="url(#clip-path)">
    <path id="Caminho_688" data-name="Caminho 688" d="M0,6.609a1.285,1.285,0,0,1,1.353-.731c.568.027,1.139-.007,1.709.009.293.009.412-.076.476-.389A6.862,6.862,0,0,1,16.7,4.5a3.413,3.413,0,0,1,.259.884c.034.438.242.508.633.508q15.427-.017,30.859-.007a4.947,4.947,0,0,1,.729.038.963.963,0,0,1,.145,1.87,2.968,2.968,0,0,1-.772.081q-15.4.007-30.81,0h-.667c-.043.19-.078.362-.116.532A6.869,6.869,0,0,1,3.541,8.265c-.063-.3-.157-.407-.465-.4-.584.025-1.172-.009-1.756.013A1.232,1.232,0,0,1,0,7.1Zm10.285-4.6A4.92,4.92,0,0,0,5.377,6.853a4.957,4.957,0,0,0,4.858,4.91,4.947,4.947,0,0,0,4.9-4.861,4.912,4.912,0,0,0-4.854-4.9" transform="translate(0 -0.001)" fill="#45c7ad"/>
    <path id="Caminho_689" data-name="Caminho 689" d="M0,13.985a1.221,1.221,0,0,1,1.34-.8q12.035.017,24.071.009h.622a6.908,6.908,0,0,1,13.665,0h8.856c.145,0,.293,0,.438,0A1,1,0,0,1,50,14.18a.982.982,0,0,1-1.009.98c-1.481.018-2.962.007-4.442.007H39.688a6.939,6.939,0,0,1-2.854,4.619,6.872,6.872,0,0,1-8.484-.445,6.906,6.906,0,0,1-2.286-4.174H25.41q-12.035,0-24.071.009a1.219,1.219,0,0,1-1.34-.8Zm28,.21A4.875,4.875,0,1,0,32.857,9.3,4.918,4.918,0,0,0,28,14.2" transform="translate(0 9.033)" fill="#45c7ad"/>
    <path id="Caminho_690" data-name="Caminho 690" d="M0,21.262a1.256,1.256,0,0,1,1.32-.785c3.141.013,6.281.007,9.424.007h.573a6.945,6.945,0,0,1,3.217-4.849,6.617,6.617,0,0,1,4.2-1,6.925,6.925,0,0,1,6.212,5.845H25.5q9.4,0,18.8,0a2.854,2.854,0,0,1,.769.089.963.963,0,0,1-.143,1.857,4.4,4.4,0,0,1-.729.043q-9.3,0-18.6,0h-.653a6.755,6.755,0,0,1-1.606,3.481,6.584,6.584,0,0,1-6.927,2.15,6.572,6.572,0,0,1-4.977-5.21c-.081-.342-.217-.429-.552-.427-3.172.011-6.346,0-9.52.013A1.32,1.32,0,0,1,0,21.75Zm13.262.2a4.875,4.875,0,0,0,9.75.038,4.875,4.875,0,1,0-9.75-.038" transform="translate(0 18.067)" fill="#45c7ad"/>
    <path id="Caminho_691" data-name="Caminho 691" d="M22.574,19.249c-.854,0-1.358-.347-1.311-.944a1.278,1.278,0,0,1,.438-.846,1.385,1.385,0,0,1,1.521-.027.873.873,0,0,1,.454.991.918.918,0,0,1-.763.785c-.143.027-.291.034-.34.04" transform="translate(26.296 21.295)" fill="#45c7ad"/>
  </g>
</svg>
