<svg id="PRIVACIDADE" xmlns="http://www.w3.org/2000/svg" xmlns:xlink="http://www.w3.org/1999/xlink" width="35" height="48.812" viewBox="0 0 35 48.812">
  <defs>
    <clipPath id="clip-path">
      <rect id="Retângulo_83" data-name="Retângulo 83" width="35" height="48.812" fill="#45c7ad"/>
    </clipPath>
  </defs>
  <g id="Grupo_131" data-name="Grupo 131" clip-path="url(#clip-path)">
    <path id="Caminho_695" data-name="Caminho 695" d="M4.129,23.425v-.7c0-3.126-.02-6.253,0-9.379A13.337,13.337,0,0,1,30.75,12.114c.254,3.509.091,7.049.117,10.573,0,.226,0,.449,0,.741.34,0,.619-.011.9,0a3.189,3.189,0,0,1,3.228,3.35c.011,3.126,0,6.253,0,9.381q0,4.6,0,9.207a3.186,3.186,0,0,1-3.412,3.443q-14.1.007-28.19,0A3.177,3.177,0,0,1,0,45.407Q0,36.2,0,26.992a3.238,3.238,0,0,1,3.533-3.566c.17,0,.34,0,.595,0M17.44,46.86H31.389c1.276,0,1.658-.387,1.658-1.683V27.049c0-1.265-.4-1.667-1.685-1.667q-13.866,0-27.728,0c-1.282,0-1.683.4-1.685,1.667V45.175c0,1.316.374,1.685,1.714,1.685H17.44M9.553,23.39c0-.272,0-.515,0-.761.011-3.3-.088-6.6.06-9.888a7.923,7.923,0,0,1,15.822.754c.022,3.069.007,6.138.007,9.2v.683h3.478c0-.8,0-1.554,0-2.313-.022-2.952.1-5.917-.106-8.855A11.391,11.391,0,0,0,6.084,13.423c-.022,3.146,0,6.29,0,9.434,0,.166.02.334.029.533Zm1.988,0h11.9a1.723,1.723,0,0,0,.042-.25c-.007-3.372.057-6.748-.035-10.118a5.973,5.973,0,0,0-11.933.57c-.013,3.067,0,6.135,0,9.2,0,.186.015.371.029.593" transform="translate(0.001 -0.001)" fill="#45c7ad"/>
    <path id="Caminho_696" data-name="Caminho 696" d="M9.425,22.466a3.694,3.694,0,0,1,.369-.526q3.731-3.748,7.473-7.482a2.677,2.677,0,0,1,.469-.416.9.9,0,0,1,1.2.146.888.888,0,0,1,.117,1.2,3.094,3.094,0,0,1-.42.467q-4.162,4.166-8.327,8.329c-.778.776-1.174.776-1.957-.007C7.23,23.058,6.1,21.946,5,20.819a.976.976,0,0,1,.27-1.709,1.024,1.024,0,0,1,1.128.347Q7.644,20.71,8.9,21.964c.135.133.274.261.526.5" transform="translate(5.585 16.807)" fill="#45c7ad"/>
  </g>
</svg>
