<?xml version="1.0" encoding="UTF-8"?>
<svg id="Camada_2" data-name="Camada 2" xmlns="http://www.w3.org/2000/svg" viewBox="0 0 135.85 36.8">
  <defs>
    <style>
      .cls-1 {
        fill: #fff;
        stroke-width: 0px;
      }
    </style>
  </defs>
  <g id="Camada_1-2" data-name="Camada 1">
    <g>
      <polygon class="cls-1" points="49.7 33.08 48.22 35.19 46.74 33.08 46.29 33.08 46.29 36.8 46.74 36.8 46.74 33.85 47.95 35.57 48.49 35.57 49.7 33.85 49.7 36.8 50.14 36.8 50.14 33.08 49.7 33.08"/>
      <polygon class="cls-1" points="23.04 33.08 23.04 34.72 20.82 34.72 20.82 33.08 20.38 33.08 20.38 36.8 20.82 36.8 20.82 35.16 23.04 35.16 23.04 36.8 23.49 36.8 23.49 33.08 23.04 33.08"/>
      <polygon class="cls-1" points="62.76 33.52 62.76 33.08 59.96 33.08 59.96 36.8 62.76 36.8 62.76 36.35 60.41 36.35 60.41 35.16 62.76 35.16 62.76 34.72 60.41 34.72 60.41 33.52 62.76 33.52"/>
      <path class="cls-1" d="m35.07,33.08c-1.03,0-1.86.83-1.86,1.86s.83,1.86,1.86,1.86,1.86-.83,1.86-1.86-.83-1.86-1.86-1.86m0,.45c.78,0,1.41.63,1.41,1.41s-.63,1.41-1.41,1.41-1.41-.63-1.41-1.41.63-1.41,1.41-1.41"/>
      <polygon class="cls-1" points="86.69 36.35 86.69 33.08 86.25 33.08 86.25 36.8 89.05 36.8 89.05 36.35 86.69 36.35"/>
      <path class="cls-1" d="m73.78,35.94c-.55-.55-.55-1.45,0-2,.55-.55,1.45-.55,2,0l.31-.31c-.73-.73-1.9-.73-2.63,0-.73.73-.73,1.9,0,2.63.73.73,1.9.73,2.63,0l-.31-.31c-.55.55-1.45.55-2,0"/>
      <path class="cls-1" d="m114.36,36.35h-1.51v-1.33h1.51c.37,0,.66.3.66.66s-.3.66-.66.66m-1.51-2.83h1.38c.29,0,.53.24.53.53s-.24.52-.53.52h-1.38v-1.05Zm2.07,1.21c.17-.17.28-.41.28-.68,0-.54-.44-.97-.98-.97h-1.82v3.72h1.96c.61,0,1.11-.5,1.11-1.11,0-.41-.22-.76-.55-.96"/>
      <path class="cls-1" d="m101.94,33.08v2.12c0,.63-.52,1.15-1.15,1.15s-1.15-.52-1.15-1.15v-2.12h-.45v2.12c0,.88.72,1.6,1.6,1.6s1.6-.72,1.6-1.6v-2.12h-.45Z"/>
      <path class="cls-1" d="m12.5,0H0v24.88h5.43V1.09h2.72c3.43,0,6.23,2.79,6.23,6.23s-2.79,6.23-6.23,6.23v1.09h4.35c4.04,0,7.31-3.27,7.31-7.31S16.54,0,12.5,0"/>
      <path class="cls-1" d="m59.67,21.19c-2.55,1.7-5.55,2.6-8.61,2.6V0h-5.43v24.88h14.11v-3.73l-.07.04Z"/>
      <path class="cls-1" d="m89.24,0h-4.98l-6.55,14.23L71.16,0h-5.98l1.36,2.97-2.86,21.92h3.74c-1.05-5.35-1.23-10.84-.52-16.25l.5-3.81,7.92,17.21,8.82-19.18,2.92,22.02h5.48L89.24,0Z"/>
      <path class="cls-1" d="m31.48.37L31.32,0h-.87l-10.66,24.88h3.83c0-4.09.84-8.13,2.45-11.89l2.45-5.72,7.55,17.61h5.91L31.48.37Z"/>
      <path class="cls-1" d="m107.14,5.09v.14l-5.26,14.53h-1.98l6.22-13.09h-2.39c-2.6,0-4.75.17-6.08.44l.38-2.02h9.13Z"/>
      <path class="cls-1" d="m131.71,10.8c-.63,0-1.22.14-1.75.4v.58c.3-.1.62-.16.93-.16,1.64,0,2.67,1.44,2.67,3.97s-.92,4-2.56,4c-1.81,0-2.97-1.91-2.97-5.4,0-4.34,1.85-7.79,5.4-8.95l-.1-.31c-4.41,1.09-7.59,4.75-7.59,9.19,0,3.52,2.02,5.84,5.16,5.84,2.87,0,4.96-1.95,4.96-4.78,0-2.63-1.88-4.37-4.14-4.37"/>
      <path class="cls-1" d="m117.8,11.69c-1.82-.75-4-1.61-3.93-3.62,0-1.61.99-2.8,2.6-2.8,2.88,0,3.35,3.77,1.59,5.55l.59.47c3.63-2.07,2.16-6.38-2.04-6.35-4.91.06-6.02,5.57-1.78,7.59,1.86.9,4.87,1.86,4.78,4.07,0,1.67-1.33,3.01-3.15,3.01-3.37,0-4.31-4.02-2.04-6.23l-.55-.44c-1.51.79-2.33,1.97-2.33,3.52,0,2.26,2.32,3.52,4.75,3.52,2.84,0,5.03-1.78,5.03-4.14,0-1.95-1.44-3.18-3.52-4.14"/>
      <path class="cls-1" d="m34.35,20.86h-6.68c-1.32,0-2.55-.35-3.62-.96-.59-.33-1.12-.75-1.59-1.22-1.3-1.32-2.1-3.13-2.1-5.13h3.13c.38,0,.74.08,1.08.22.36.15.68.38.94.66.25.27.44.6.56.97.79,2.53,3.16,4.38,5.95,4.38h1.87l.47,1.09Z"/>
    </g>
  </g>
</svg>