<svg xmlns="http://www.w3.org/2000/svg" width="49.222" height="45.12" viewBox="0 0 49.222 45.12">
  <g id="EMAIL" transform="translate(-784.344 -884.278)">
    <path id="envelope" d="M38.968,1H10.255A10.267,10.267,0,0,0,0,11.255V35.866A10.267,10.267,0,0,0,10.255,46.12H38.968A10.267,10.267,0,0,0,49.222,35.866V11.255A10.267,10.267,0,0,0,38.968,1ZM10.255,5.1H38.968a6.153,6.153,0,0,1,5.7,3.87L28.963,24.68a6.167,6.167,0,0,1-8.7,0L4.553,8.972a6.153,6.153,0,0,1,5.7-3.87ZM38.968,42.018H10.255A6.153,6.153,0,0,1,4.1,35.866V14.331L17.359,27.58a10.269,10.269,0,0,0,14.5,0L45.12,14.331V35.866A6.153,6.153,0,0,1,38.968,42.018Z" transform="translate(784.344 883.278)"/>
  </g>
</svg>
