<svg xmlns="http://www.w3.org/2000/svg" width="51.324" height="51.322" viewBox="0 0 51.324 51.322">
  <g id="LINKEDIN" transform="translate(-725.636 -879.962)">
    <path id="Path_2520" d="M43.732,45.514H36.126V33.6c0-2.84-.051-6.495-3.956-6.495-3.961,0-4.568,3.093-4.568,6.29V45.514H20V21.021h7.3v3.346h.1a8,8,0,0,1,7.2-3.956c7.709,0,9.128,5.071,9.128,11.664ZM11.419,17.673a4.413,4.413,0,1,1,4.413-4.413,4.413,4.413,0,0,1-4.413,4.413h0m3.8,27.841H7.608V21.021H15.22Zm32.3-43.729H3.786A3.746,3.746,0,0,0,0,5.485V49.4a3.747,3.747,0,0,0,3.786,3.7H47.523a3.755,3.755,0,0,0,3.8-3.7V5.482a3.754,3.754,0,0,0-3.8-3.7" transform="translate(725.636 878.181)"/>
  </g>
</svg>
