<svg xmlns="http://www.w3.org/2000/svg" width="70.49" height="70.341" viewBox="0 0 70.49 70.341">
  <g id="Grupo_221" data-name="Grupo 221" transform="translate(-6214.712 -2143.97)">
    <path id="Caminho_757" data-name="Caminho 757" d="M917.2,394.616a1.491,1.491,0,0,0-.3.372,5.2,5.2,0,0,1-5.23,3.845q-9.375.043-18.75,0a5.174,5.174,0,0,1-5.4-5.538c0-14.928.036-29.856-.019-44.783a12.135,12.135,0,0,1,9.349-11.916,10.671,10.671,0,0,1,2.236-.3c3.124,0,6.3-.466,9.345.489a11.8,11.8,0,0,1,8.49,9.58,2.378,2.378,0,0,0,.277.564Zm-7.694-21.578q0-3.535,0-7.071c0-1.153-.317-1.476-1.451-1.477q-5.768,0-11.533,0c-1.129,0-1.444.327-1.444,1.484q0,7.071,0,14.142c0,1.153.316,1.476,1.451,1.477q5.766,0,11.532,0c1.129,0,1.443-.327,1.445-1.484q0-3.535,0-7.071m-19.9-15.306c3.08-4.655,7.286-7.148,12.694-7.146s9.6,2.507,12.664,7.126v-8.458c-.179-.043-.352-.1-.528-.127a12.317,12.317,0,0,1-9.865-10.212c-.055-.4-.188-.551-.595-.542q-1.476.033-2.952,0c-.4-.008-.545.118-.607.53a11.978,11.978,0,0,1-3.816,7.177,12.353,12.353,0,0,1-6.995,3.205Zm-.028,30.98c0,1.619.026,3.083-.007,4.546a3.219,3.219,0,0,0,3.445,3.468c2.608-.069,5.218-.016,7.828-.016,3.639,0,7.278.009,10.918-.005,1.582-.007,2.932-.882,3.064-2.289.172-1.841.042-3.71.042-5.6a6.745,6.745,0,0,1-4.165.965q-8.445-.02-16.892,0a6.641,6.641,0,0,1-4.233-1.067m2.325-30.58c.812,1.16,1.674,2.312,2.445,3.523.413.649.826,1.021,1.628.732a2.305,2.305,0,0,1,.75-.03c3.251,0,6.5-.011,9.751.005.936,0,1.871.088,2.806.114a.6.6,0,0,0,.447-.165c1-1.39,1.975-2.794,2.945-4.178a12.65,12.65,0,0,0-20.772,0M890,386.289l.219-.006c.825-1.171,1.641-2.349,2.481-3.51.367-.507.727-.966.366-1.655a2.051,2.051,0,0,1-.045-.882c0-4.738-.011-9.476.011-14.214a14.51,14.51,0,0,1,.265-1.811.783.783,0,0,0-.043-.494c-.812-1.186-1.646-2.357-2.5-3.568a11.633,11.633,0,0,0-1.156,5.168q-.051,9.581,0,19.159a8.6,8.6,0,0,0,.4,1.813m24.356-.021.254,0a9.931,9.931,0,0,0,.377-1.895q.042-9.443.007-18.884a11.983,11.983,0,0,0-1.162-5.344c-.725,1.029-1.387,2.016-2.1,2.962a1.345,1.345,0,0,0-.292,1.59,2.666,2.666,0,0,1,.125,1.146q.011,7.038,0,14.077c0,.586-.13,1.172-.176,1.76a.812.812,0,0,0,.1.489c.949,1.371,1.913,2.732,2.873,4.1m-1.636,1.325c-.915-1.307-1.752-2.472-2.552-3.662a.683.683,0,0,0-.945-.344,3.609,3.609,0,0,1-1.22.135q-5.7.014-11.4,0a4.337,4.337,0,0,1-1.353-.167c-.413-.14-.572.021-.772.312-.74,1.073-1.5,2.133-2.245,3.2-.1.14-.165.3-.287.525Zm-14.371-49.126c-5.081.492-8.613,5.3-8.546,8.607a10.092,10.092,0,0,0,8.546-8.607M914.83,347.1c-.29-4.314-4.361-8.243-8.208-8.495a10.48,10.48,0,0,0,8.208,8.495" transform="translate(5368 1812)" fill="#fff"/>
    <path id="Caminho_758" data-name="Caminho 758" d="M846.712,346.933a23.975,23.975,0,0,1,1.064-3.518,11.783,11.783,0,0,1,10.962-7.147c2.216-.076,4.442-.036,6.656.091a11.977,11.977,0,0,1,10.717,10.125,15.169,15.169,0,0,1,.137,1.842q.012,22.56.005,45.12a5.076,5.076,0,0,1-3.86,5.176,7.346,7.346,0,0,1-1.9.213c-6,.015-11.995-.025-17.992.023-3.122.026-5.163-1.761-5.676-4.081-.013-.059-.076-.107-.117-.16ZM868.7,373.115q0-3.57,0-7.139c0-1.158-.316-1.484-1.444-1.485q-5.766,0-11.532,0c-1.136,0-1.452.323-1.452,1.476q0,7.071,0,14.142c0,1.158.315,1.484,1.443,1.485q5.766,0,11.532,0c1.136,0,1.451-.324,1.452-1.476q0-3.5,0-7m5.462-23.861c-.182-.044-.355-.1-.532-.126a12.317,12.317,0,0,1-9.862-10.214c-.055-.406-.193-.549-.6-.54q-1.476.033-2.952,0c-.4-.008-.541.124-.6.533a12.046,12.046,0,0,1-4.549,7.8,12.373,12.373,0,0,1-6.243,2.579V357.7c3.063-4.624,7.267-7.118,12.678-7.115s9.6,2.508,12.662,7.127Zm-25.371,39.477c0,1.775-.074,3.423.02,5.062a2.937,2.937,0,0,0,3.044,2.9q9.648.031,19.295,0a2.783,2.783,0,0,0,2.93-2.534c.15-1.758.034-3.538.034-5.387a7.049,7.049,0,0,1-4.474,1q-8.446-.018-16.892,0a6.373,6.373,0,0,1-3.957-1.048m2.3-30.6c.818,1.166,1.657,2.283,2.405,3.458.433.682.859,1.131,1.729.793a2,2,0,0,1,.682-.023c3.365,0,6.729-.009,10.094.005.821,0,1.642.092,2.463.11a.666.666,0,0,0,.491-.206c.987-1.371,1.951-2.758,2.912-4.128a12.627,12.627,0,0,0-20.776-.009M849.2,386.3l.21-.018c.972-1.381,1.95-2.759,2.908-4.15a.814.814,0,0,0,.059-.493c-.043-.475-.161-.947-.162-1.42q-.02-7.038.005-14.077a15.712,15.712,0,0,1,.272-1.947.7.7,0,0,0-.021-.436c-.822-1.2-1.664-2.381-2.531-3.613a11.8,11.8,0,0,0-1.154,5.191q-.048,9.579,0,19.158a8.362,8.362,0,0,0,.41,1.8m24.393.042a3.529,3.529,0,0,0,.6-2.2q0-8.961-.008-17.923a14.421,14.421,0,0,0-.149-2.531c-.213-1.18-.564-2.335-.856-3.5a35.327,35.327,0,0,0-2.611,3.464.976.976,0,0,0-.072.612,13.083,13.083,0,0,1,.246,1.539q.03,6.934,0,13.871c0,.677-.131,1.354-.19,2.032a.606.606,0,0,0,.055.372c.973,1.406,1.958,2.8,2.981,4.261m-22.528,1.239h20.8c-.175-.275-.286-.464-.411-.643-.642-.919-1.316-1.817-1.922-2.759-.328-.51-.627-.816-1.3-.57a3.633,3.633,0,0,1-1.221.115q-4.876.012-9.753,0a5.27,5.27,0,0,1-1.84-.037c-1.413-.565-1.934.332-2.534,1.272-.549.858-1.161,1.675-1.82,2.618m-2.108-40.493c4.572-.443,8.429-4.935,8.516-8.629-5,.56-8.416,5.111-8.516,8.629m25.046-.068c-.222-4.058-4.167-8.1-8.127-8.422a10.111,10.111,0,0,0,8.127,8.422" transform="translate(5368 1812)" fill="#fff"/>
    <rect id="Retângulo_112" data-name="Retângulo 112" width="2.061" height="2.013" transform="translate(6248.927 2212.298)" fill="#fff"/>
    <rect id="Retângulo_113" data-name="Retângulo 113" width="1.975" height="62.047" transform="translate(6248.976 2148.108)" fill="#fff"/>
    <rect id="Retângulo_114" data-name="Retângulo 114" width="1.95" height="1.999" transform="translate(6248.985 2143.97)" fill="#fff"/>
    <path id="Caminho_759" data-name="Caminho 759" d="M891.815,393.654c.016-1.223-.15-1.062,1.118-1.063,1.18,0,1.01-.147,1.011,1.167,0,1.134.141.953-1.217.96-1.055.007-.9.085-.912-1.064" transform="translate(5368 1812)" fill="#fff"/>
    <path id="Caminho_760" data-name="Caminho 760" d="M912.25,394.721c-1.219-.015-1.057.148-1.058-1.123,0-1.176-.145-1.005,1.171-1.007,1.129,0,.948-.141.956,1.223.006,1.052.084.894-1.069.907" transform="translate(5368 1812)" fill="#fff"/>
    <path id="Caminho_761" data-name="Caminho 761" d="M852.863,393.7c-.016,1.185.145,1.014-1.165,1.016-1.14,0-.961.138-.964-1.213,0-1.093-.126-.9,1.264-.914,1.019-.007.85-.071.865,1.111" transform="translate(5368 1812)" fill="#fff"/>
    <path id="Caminho_762" data-name="Caminho 762" d="M872.238,393.66c-.015,1.219.148,1.057-1.123,1.058-1.176,0-1.005.145-1.006-1.171,0-1.129-.142-.949,1.222-.956,1.052-.006.894-.085.907,1.069" transform="translate(5368 1812)" fill="#fff"/>
  </g>
</svg>
