<svg id="EXCLUSIVIDADE" xmlns="http://www.w3.org/2000/svg" xmlns:xlink="http://www.w3.org/1999/xlink" width="45" height="61.429" viewBox="0 0 45 61.429">
  <defs>
    <clipPath id="clip-path">
      <rect id="Retângulo_84" data-name="Retângulo 84" width="45" height="61.429" fill="#45c7ad"/>
    </clipPath>
  </defs>
  <g id="Grupo_133" data-name="Grupo 133" clip-path="url(#clip-path)">
    <path id="Caminho_697" data-name="Caminho 697" d="M22.477,61.429c-1.941-2.641-3.812-5.184-5.688-7.727Q8.5,42.449.209,31.2a.708.708,0,0,1,.016-1.02Q11.177,15.34,22.109.483c.106-.143.217-.274.385-.483q6.99,9.49,13.915,18.894l.184.012c.233-.848.467-1.7.713-2.6h1.63c.377,3.235,2.17,5.02,5.414,5.4v1.736a5.486,5.486,0,0,0-3.55,1.4c.295.4.573.782.852,1.163,1.057,1.433,2.109,2.871,3.17,4.3.184.25.266.426.045.725q-5.117,6.923-10.213,13.857c-.045.066-.078.139-.131.238-.52-.381-.966-.708-1.478-1.081,2.907-3.956,5.8-7.891,8.792-11.949-1.355.287-2.555.536-3.759.8-1.814.389-3.632.77-5.442,1.192a.91.91,0,0,0-.573.479q-3.354,9.773-6.667,19.558a2.657,2.657,0,0,0-.025.336c2.244-3.047,4.4-5.975,6.6-8.956.491.36.95.7,1.45,1.061L22.477,61.429M18.907,8.108a1.258,1.258,0,0,1-.127-.07Q11.439,18.008,4.1,27.973a.892.892,0,0,0,.5-.115c2.551-1.286,5.106-2.563,7.645-3.874a1.7,1.7,0,0,0,.717-.79c.831-2.031,1.622-4.083,2.424-6.126.07-.176.156-.348.242-.536.569.229,1.085.438,1.638.659-.889,2.273-1.761,4.5-2.654,6.769,5.143,2.568,10.242,5.119,15.446,7.719-2.58-9.144-5.127-18.17-7.723-27.363C20.831,8.149,19.39,11.8,17.936,15.5l-1.671-.663,2.641-6.732m3.64,48.407c.045,0,.086,0,.131,0q3.845-11.314,7.7-22.666c-5.164-2.584-10.283-5.143-15.549-7.772,2.6,10.233,5.156,20.336,7.719,30.434M20.315,55.45l.09-.045c-2.5-9.877-5.008-19.754-7.531-29.7-3.538,1.781-7,3.534-10.541,5.315Q11.364,43.29,20.315,55.45M24.881,6.274c-.037.016-.07.033-.106.045Q28.442,19.3,32.121,32.342l10.311-2.228c-.954-1.294-1.855-2.518-2.756-3.743l-.184.033c-.2.8-.405,1.6-.622,2.469-.356,0-.753-.025-1.147,0s-.549-.1-.586-.524a5.07,5.07,0,0,0-2.891-4.263,16.019,16.019,0,0,0-2.424-.782v-1.63a5.515,5.515,0,0,0,3.432-1.314c-3.481-4.726-6.929-9.406-10.373-14.091M35.54,22.559c.839.839,1.728,1.732,2.543,2.547.827-.827,1.732-1.728,2.551-2.547l-2.547-2.547L35.54,22.559" transform="translate(0 0)" fill="#45c7ad"/>
    <path id="Caminho_698" data-name="Caminho 698" d="M6.928,3.173c.164.586.315,1.118.483,1.72-.573.16-1.122.315-1.72.483-.164-.581-.319-1.13-.487-1.728.586-.16,1.134-.311,1.724-.475" transform="translate(16.106 9.82)" fill="#45c7ad"/>
    <path id="Caminho_699" data-name="Caminho 699" d="M7.163,4.019c.164.577.311,1.106.483,1.716-.573.164-1.114.319-1.724.491C5.758,5.645,5.607,5.1,5.439,4.5c.586-.164,1.13-.315,1.724-.483" transform="translate(16.834 12.438)" fill="#45c7ad"/>
  </g>
</svg>
