<svg id="INOVAÇÃO" xmlns="http://www.w3.org/2000/svg" xmlns:xlink="http://www.w3.org/1999/xlink" width="55" height="68.003" viewBox="0 0 55 68.003">
  <defs>
    <clipPath id="clip-path">
      <rect id="Retângulo_86" data-name="Retângulo 86" width="55" height="68.003" fill="#45c7ad"/>
    </clipPath>
  </defs>
  <g id="Grupo_137" data-name="Grupo 137" clip-path="url(#clip-path)">
    <path id="Caminho_701" data-name="Caminho 701" d="M22.634,0c1.2.353,2.4.7,3.6,1.07a3.678,3.678,0,0,1,.821.423.99.99,0,0,1,.467,1.351,1.049,1.049,0,0,1-1.43.391,17.44,17.44,0,0,0-3.3-1.111,9.124,9.124,0,1,0-1.67,18.147A9.151,9.151,0,0,0,29.561,6.817a1.484,1.484,0,0,1-.237-.982,1.218,1.218,0,0,1,.789-.735,1.3,1.3,0,0,1,1.013.518,9.7,9.7,0,0,1,1.439,4.362A11.121,11.121,0,1,1,19.879.12,2.038,2.038,0,0,0,20.242,0Z" transform="translate(22.384 0.001)" fill="#45c7ad"/>
    <path id="Caminho_702" data-name="Caminho 702" d="M9.195,0a3.194,3.194,0,0,1,.451,3.042,1.163,1.163,0,0,1-.855.477c-.309-.025-.814-.328-.849-.565A11.316,11.316,0,0,1,7.926.6C7.942.388,8.232.2,8.4,0Z" transform="translate(16.972 0.001)" fill="#45c7ad"/>
    <path id="Caminho_703" data-name="Caminho 703" d="M29.283,45.981a9.026,9.026,0,0,1,1.136.2A2.143,2.143,0,0,1,31.975,48.2c-.022,1.177.284,2.4-.312,3.525a.31.31,0,0,0,0,.243c.593,1.133.3,2.348.3,3.525a2.194,2.194,0,0,1-2.14,2.127c-.7.032-1.411,0-2.222,0,0,.3-.019.559,0,.811.306,3.468-1.385,5.315-5.053,5.031-1.124-.088-2.257-.006-3.383-.016a3.666,3.666,0,0,1-3.756-3.727c-.009-.663,0-1.326,0-2.089-.653,0-1.262.006-1.875,0a2.306,2.306,0,0,1-2.509-2.525c.019-1.048-.227-2.13.325-3.128a.4.4,0,0,0-.019-.306,7.142,7.142,0,0,1-.271-3.595,2.217,2.217,0,0,1,2.178-2.023c.151-.013.3-.032.578-.057a41.189,41.189,0,0,0-.234-4.3,5.426,5.426,0,0,0-2.667-3.708A19.506,19.506,0,0,1,17.974,2.4a20.491,20.491,0,0,1,7.129.009,3.237,3.237,0,0,1,.385.088.977.977,0,0,1,.786,1.184.99.99,0,0,1-1.158.748A43.3,43.3,0,0,0,20.7,4.122,17.445,17.445,0,0,0,4.271,18.586C3.163,25.968,5.71,31.9,11.839,36.172a8.259,8.259,0,0,1,3.92,7.486c-.025.77,0,1.54,0,2.351H27.294c0-1,0-1.985,0-2.973a7.415,7.415,0,0,1,2.092-5.359,9.631,9.631,0,0,1,1.581-1.3,17.431,17.431,0,0,0,8.016-13.328c.063-.615.035-1.237.05-1.859.022-.72.4-1.152,1-1.149s.985.423.985,1.161a19.085,19.085,0,0,1-8.673,16.6,6.229,6.229,0,0,0-3.071,5.769c.041.792.006,1.587.006,2.4M21.5,55.644h.53c2.411,0,4.819-.019,7.23.009.587.006.8-.183.748-.761a8.081,8.081,0,0,1,0-1.326c.041-.537-.142-.783-.71-.739-.483.035-.972.016-1.458,0a1,1,0,1,1-.028-1.982c.508-.019,1.019-.025,1.528,0,.473.025.7-.129.669-.638a12.282,12.282,0,0,1,0-1.524c.028-.492-.161-.663-.65-.653-1.24.025-2.477.006-3.718.006-3.958,0-7.912.009-11.87-.009-.571,0-.817.161-.767.751a7.746,7.746,0,0,1,0,1.326c-.05.6.211.754.776.748,1.789-.028,3.582-.013,5.372-.013,1.281,0,2.566,0,3.847,0,.77,0,1.215.388,1.2,1.013-.009.6-.432.959-1.171.975-.177,0-.353,0-.53,0-2.919,0-5.835.009-8.755-.009-.537,0-.783.155-.739.72a7.746,7.746,0,0,1,0,1.326c-.063.631.208.789.8.783,2.566-.025,5.129-.009,7.694-.009m-4.062,2.029c-.013.252-.032.467-.032.682a13.749,13.749,0,0,0,.038,1.654,1.591,1.591,0,0,0,1.629,1.442q2.452.033,4.9,0a1.575,1.575,0,0,0,1.6-1.4c.066-.78.013-1.572.013-2.376Z" transform="translate(4.266 4.51)" fill="#45c7ad"/>
    <path id="Caminho_704" data-name="Caminho 704" d="M12.434,8.405c.1-.723.17-1.338.275-1.947a1.3,1.3,0,0,1,1.351-1.206c1.06-.032,2.121-.028,3.181,0a1.336,1.336,0,0,1,1.4,1.243c.057.3.073.612.114.918s.092.6.151.991c.514-.391.963-.739,1.414-1.076a1.375,1.375,0,0,1,2.064.095c.7.675,1.389,1.367,2.064,2.064a1.383,1.383,0,0,1,.107,2.07c-.341.454-.691.9-1.086,1.417.7.1,1.31.164,1.913.271a1.348,1.348,0,0,1,1.256,1.449c.022,1,.019,1.991,0,2.986a1.384,1.384,0,0,1-1.285,1.505c-.3.057-.612.073-.922.114-.281.038-.562.085-.966.145.369.483.7.909,1.029,1.338A1.43,1.43,0,0,1,24.376,23c-.65.663-1.3,1.322-1.969,1.969a1.379,1.379,0,0,1-2.067.133c-.454-.341-.906-.691-1.445-1.1-.076.606-.142,1.117-.205,1.632-.139,1.124-.609,1.543-1.748,1.55-.906.006-1.815.016-2.72,0a1.381,1.381,0,0,1-1.528-1.326c-.1-.581-.164-1.165-.259-1.84-.533.407-1,.773-1.474,1.117a1.358,1.358,0,0,1-2.014-.145c-.694-.679-1.385-1.367-2.064-2.064a1.353,1.353,0,0,1-.136-2.007c.347-.473.71-.94,1.12-1.48-.666-.085-1.231-.142-1.789-.23A1.394,1.394,0,0,1,4.7,17.643c-.016-.972-.019-1.947,0-2.919a1.349,1.349,0,0,1,1.281-1.49c.306-.054.615-.073.922-.117.284-.041.565-.088.94-.148-.319-.42-.6-.8-.89-1.18-.836-1.076-.811-1.569.133-2.515C7.719,8.649,8.337,8.014,8.975,7.4a1.345,1.345,0,0,1,1.96-.133c.48.347.944.716,1.5,1.139M10.082,23.289c.59-.454,1.127-.874,1.673-1.288a1.536,1.536,0,0,1,2.578,1.089c.088.691.189,1.382.284,2.07h2.105c.088-.7.18-1.376.262-2.051a1.545,1.545,0,0,1,2.578-1.117c.562.42,1.117.852,1.6,1.225.543-.5,1.041-.963,1.565-1.449-.426-.555-.827-1.108-1.259-1.635a1.571,1.571,0,0,1,1.127-2.61c.675-.069,1.344-.174,2.007-.262V15.144c-.7-.092-1.351-.2-2.01-.262a1.491,1.491,0,0,1-1.389-.947,1.508,1.508,0,0,1,.268-1.66c.442-.54.849-1.1,1.25-1.622-.527-.543-.985-1.016-1.474-1.524-.568.439-1.12.874-1.685,1.294A1.547,1.547,0,0,1,16.985,9.3c-.082-.675-.174-1.351-.262-2.029H14.611c-.095.694-.189,1.348-.271,2a1.539,1.539,0,0,1-2.6,1.117c-.559-.417-1.111-.846-1.515-1.152-.593.5-1.108.944-1.632,1.392.464.6.909,1.152,1.326,1.723a1.531,1.531,0,0,1-1.079,2.515c-.7.1-1.395.189-2.108.284v2.105c.666.088,1.3.2,1.931.252a1.593,1.593,0,0,1,1.133,2.72c-.417.508-.8,1.038-1.193,1.543l1.483,1.512" transform="translate(10.116 11.276)" fill="#45c7ad"/>
    <path id="Caminho_705" data-name="Caminho 705" d="M18.287,4.846v5.794c0,.221,0,.442,0,.663-.019.716-.4,1.171-.991,1.174s-.994-.445-1-1.158c-.009-1.726,0-3.45,0-5.173V4.862c-.647.565-1.2,1.045-1.752,1.528-.183.161-.353.335-.549.48A.987.987,0,0,1,12.619,6.8.941.941,0,0,1,12.7,5.386c.675-.638,1.382-1.24,2.077-1.856.48-.426.95-.865,1.449-1.269a1.555,1.555,0,0,1,2.121-.009c1.2,1.019,2.367,2.064,3.525,3.121a.951.951,0,0,1,.1,1.417.99.99,0,0,1-1.43.044c-.72-.612-1.42-1.25-2.253-1.988" transform="translate(26.595 3.966)" fill="#45c7ad"/>
    <path id="Caminho_706" data-name="Caminho 706" d="M3.07,16.135c-.193-.155-.559-.319-.672-.593a1.121,1.121,0,0,1,.063-.975,5.349,5.349,0,0,1,1.348-1.344,1.2,1.2,0,0,1,1.124.038,1.125,1.125,0,0,1,.3,1.06,12.517,12.517,0,0,1-1.629,1.7c-.082.076-.249.06-.533.117" transform="translate(4.994 28.246)" fill="#45c7ad"/>
    <path id="Caminho_707" data-name="Caminho 707" d="M3.172,2.272a3.784,3.784,0,0,1,.748.388,12.583,12.583,0,0,1,1.127,1.12A.959.959,0,0,1,5.011,5.2a.971.971,0,0,1-1.376-.044,7.013,7.013,0,0,1-1.142-1.19,1.287,1.287,0,0,1-.11-1.032c.117-.281.518-.448.789-.663" transform="translate(5.003 4.899)" fill="#45c7ad"/>
    <path id="Caminho_708" data-name="Caminho 708" d="M16.114,15.094c-.009.767-.833,1.319-1.408.909a6.661,6.661,0,0,1-1.537-1.528,1.13,1.13,0,0,1,.126-1.064c.2-.234.84-.417,1.026-.278a15.29,15.29,0,0,1,1.72,1.695c.066.069.057.208.073.265" transform="translate(28.212 28.214)" fill="#45c7ad"/>
    <path id="Caminho_709" data-name="Caminho 709" d="M17,7.872c.265,0,.53-.019.8,0a.958.958,0,0,1,.95.988.925.925,0,0,1-.893.972,8.891,8.891,0,0,1-1.786-.006.9.9,0,0,1-.843-1.007.916.916,0,0,1,.915-.944A7.841,7.841,0,0,1,17,7.872" transform="translate(32.827 16.952)" fill="#45c7ad"/>
    <path id="Caminho_710" data-name="Caminho 710" d="M1.776,7.872c.265,0,.53-.019.8,0a.929.929,0,0,1,.94.922.943.943,0,0,1-.884,1.041A9.9,9.9,0,0,1,.845,9.828.9.9,0,0,1,0,8.821a.912.912,0,0,1,.915-.944,7.778,7.778,0,0,1,.858-.006" transform="translate(0.001 16.952)" fill="#45c7ad"/>
    <path id="Caminho_711" data-name="Caminho 711" d="M14.9,11.438a4,4,0,1,1-4-4,3.968,3.968,0,0,1,4,4m-4.021,2A2,2,0,1,0,8.893,11.4a1.987,1.987,0,0,0,1.982,2.045" transform="translate(14.881 16.046)" fill="#45c7ad"/>
  </g>
</svg>
