<svg xmlns="http://www.w3.org/2000/svg" width="51.322" height="51.322" viewBox="0 0 51.322 51.322">
  <g id="INSTA" transform="translate(-666.946 -879.962)">
    <path id="Vector" d="M43.8,0H7.518A7.527,7.527,0,0,0,0,7.518V43.8a7.526,7.526,0,0,0,7.518,7.518H43.8A7.526,7.526,0,0,0,51.322,43.8V7.518A7.526,7.526,0,0,0,43.8,0Zm4.511,43.8A4.516,4.516,0,0,1,43.8,48.315H7.518A4.516,4.516,0,0,1,3.007,43.8V7.518A4.516,4.516,0,0,1,7.518,3.007H43.8a4.516,4.516,0,0,1,4.511,4.511Z" transform="translate(666.946 879.962)"/>
    <path id="Vector-2" data-name="Vector" d="M3.007,0A3.007,3.007,0,1,0,6.014,3.007,3.011,3.011,0,0,0,3.007,0Z" transform="translate(706.139 886.078)"/>
    <path id="Vector-3" data-name="Vector" d="M13.532,0A13.532,13.532,0,1,0,27.064,13.532,13.547,13.547,0,0,0,13.532,0Zm0,24.057A10.525,10.525,0,1,1,24.057,13.532,10.537,10.537,0,0,1,13.532,24.057Z" transform="translate(679.075 892.092)"/>
  </g>
</svg>
