<svg xmlns="http://www.w3.org/2000/svg" width="69.254" height="69.252" viewBox="0 0 69.254 69.252">
  <g id="Grupo_207" data-name="Grupo 207" transform="translate(-5368 -2160.046)">
    <path id="Caminho_774" data-name="Caminho 774" d="M15.646,392.727c0-.752.019-1.4-.011-2.052a.72.72,0,0,0-.257-.511c-4.7-3.078-8.17-7.342-11.4-11.84-1.152-1.605-2.354-3.174-3.553-4.746-.4-.529-.626-1.063-.178-1.642s1.031-.489,1.636-.228q5.368,2.313,10.743,4.608c.187.079.377.148.681.268-.113-.284-.174-.468-.255-.642a45.919,45.919,0,0,1-4.284-23.437c.076-1.043.108-2.09.167-3.135.045-.815.362-1.238.966-1.311.641-.077,1.035.2,1.309.983q3.264,9.213,6.515,18.428,1.839,5.215,3.674,10.432a2.554,2.554,0,0,1,.209.732c-.125-2.265-.417-4.535-.342-6.793A25.178,25.178,0,0,1,28.71,354.61a1.118,1.118,0,0,1,1.385-.3,1.157,1.157,0,0,1,.6,1.418c-.475,2.578-.982,5.15-1.434,7.732-.448,2.558-.878,5.12-1.246,7.691a8.851,8.851,0,0,0,.117,2.578c.071-.451.151-.9.216-1.352a37.559,37.559,0,0,1,5.962-15.824,18.576,18.576,0,0,1,13.764-8.372c.577-.07,1.158-.087,1.737-.125s1.132-.017,1.446.587c.327.627-.02,1.094-.348,1.592-1.314,2-2.689,3.964-3.9,6.025a69.865,69.865,0,0,0-8.173,21.569.343.343,0,0,0,.09.3c.621-1.468,1.264-2.926,1.858-4.4a46.82,46.82,0,0,1,10.226-15.729,10.483,10.483,0,0,1,17.311,3.261c.277.638.54,1.283.813,1.923a1.094,1.094,0,0,1-.25,1.338,1.109,1.109,0,0,1-1.417.1c-1.238-.735-2.466-1.489-3.708-2.217A6,6,0,0,0,55.632,364,112.352,112.352,0,0,0,46.6,378.148c-.07.13-.133.264-.295.585a15.642,15.642,0,0,1,5.149-2.36,14.42,14.42,0,0,1,17.221,9.745c.172.553.332,1.11.5,1.666a1.146,1.146,0,0,1-1.94,1.177c-1.248-1.253-2.49-2.511-3.754-3.747a8.809,8.809,0,0,0-11.59-.645,4.8,4.8,0,0,1-.492.288c.845.166,1.468.246,2.067.413a10.178,10.178,0,0,1,6.964,6.124q4.338,10.33,8.621,20.683c.344.827.229,1.379-.347,1.718-.6.352-1.16.156-1.69-.6q-4.184-5.966-8.362-11.935c-.145-.205-.293-.4-.568-.784,0,1.6.055,3-.018,4.4a16.821,16.821,0,0,1-.439,3.439,12.209,12.209,0,0,1-11.745,8.979q-11.237.009-22.471,0a12.251,12.251,0,0,1-12.224-12.255q-.006-5.443,0-10.888c0-1.067.352-1.42,1.413-1.423,1,0,1.99,0,3.052,0m-2.215,2.232c0,3.6-.161,7.123.038,10.621a9.913,9.913,0,0,0,9.925,9.469q11.232.075,22.468,0a10.035,10.035,0,0,0,9.975-9.954c.04-2.465.016-4.932,0-7.4a1.568,1.568,0,0,0-.231-.769c-.289-.475-.651-.906-.95-1.376a1.259,1.259,0,0,0-1.211-.606q-14.061.027-28.121.013h-.7c-.074.206-.139.378-.2.553a42.079,42.079,0,0,0-2.073,13.708,1.192,1.192,0,0,1-.842,1.348c-.59.174-1.059-.118-1.413-.838A42.38,42.38,0,0,1,16.338,398.2c-.183-1.067-.339-2.138-.513-3.239H13.431Zm34.5-44.426a6.273,6.273,0,0,0-.783.047,16.574,16.574,0,0,0-10.326,6.339,33.777,33.777,0,0,0-5.126,10.6c-1.471,4.8-1.633,9.732-1.53,14.694a1.4,1.4,0,0,0,.11.467c1.276,3.21,2.563,6.416,3.83,9.63.167.425.4.5.928.3.243-15.2,4.187-29.327,12.9-42.076M37.247,392.288l.16.044c.571-1.285,1.157-2.562,1.707-3.855A122.433,122.433,0,0,1,53.74,362.746a8.312,8.312,0,0,1,11.03-2.386c.167.092.341.17.513.254a1.48,1.48,0,0,0-.315-.587,8.2,8.2,0,0,0-12.162-.618,40.647,40.647,0,0,0-8.614,12.249c-2.25,5.014-4.328,10.1-6.478,15.161a1.523,1.523,0,0,0-.134.466c-.116,1.667-.224,3.335-.333,5m2.52.439c1.2,0,2.331-.028,3.462.012a1.062,1.062,0,0,0,1.136-.652c1.066-2.035,2.151-4.061,3.295-6.053a11.08,11.08,0,0,1,16.22-3.448c.151.11.308.212.614.421a12.011,12.011,0,0,0-14.771-3.6,43.145,43.145,0,0,0-5.362,3.722,2.517,2.517,0,0,0-.764.954c-1.236,2.7-2.44,5.412-3.652,8.122-.063.141-.1.293-.178.519M4.844,375.45c3.369,4.841,6.74,9.633,11.866,12.8a6.2,6.2,0,0,1,6.712-1.938c-.259-.276-.4-.431-.54-.577A32.508,32.508,0,0,0,12.875,378.9c-2.67-1.167-5.354-2.3-8.031-3.449m22.818-15.867a.835.835,0,0,0-.176.107,3.861,3.861,0,0,0-.245.337,23.175,23.175,0,0,0-3.757,12.284c-.079,4.112.953,8.1,1.512,12.142a1.33,1.33,0,0,0,.4.623,32.58,32.58,0,0,1,5.05,6.982,1.029,1.029,0,0,0,1.354.616c-.083-.237-.157-.478-.25-.712q-1.992-4.971-3.988-9.94a26.1,26.1,0,0,1-1.712-6.576,29.171,29.171,0,0,1,.609-9.411c.428-2.129.8-4.269,1.208-6.452M19.8,380.163c-2.962-8.389-5.864-16.613-8.767-24.836l-.222.046c.114,1.829.174,3.664.35,5.487A42.286,42.286,0,0,0,16.7,378a1.492,1.492,0,0,0,.44.516c.814.529,1.65,1.028,2.655,1.647m.435,23.78a46.373,46.373,0,0,1,4.067-14.3,3.69,3.69,0,0,0-4.046-1.176,3.129,3.129,0,0,0-2.338,3.338c.057,1.09.126,2.182.244,3.266a36.128,36.128,0,0,0,2.073,8.872m42.331-1.04.143-.06c-.077-.21-.146-.424-.233-.63q-1.271-3.05-2.545-6.1c-.609-1.453-1.18-2.925-1.84-4.355a7.972,7.972,0,0,0-7.581-4.6c-.352.022-.842.07-1.014.3a15.26,15.26,0,0,0-1.091,1.93,1.568,1.568,0,0,0,.258.11,11.434,11.434,0,0,1,7.478,4.3c1.036,1.31,1.951,2.716,2.915,4.084q1.761,2.5,3.51,5.014m-35.97-12.81-1.137,2.574h2.773l-1.636-2.574m20.085,2.572h4.383l.034-.2c-.979-.244-1.947-.549-2.937-.715-1.055-.177-1.065-.119-1.48.915" transform="translate(5368 1812)" fill="#fff"/>
  </g>
</svg>
