<svg xmlns="http://www.w3.org/2000/svg" width="54.257" height="54.276" viewBox="0 0 54.257 54.276">
  <g id="Grupo_213" data-name="Grupo 213" transform="translate(-5813.914 -1958.862)">
    <path id="Caminho_773" data-name="Caminho 773" d="M448.034,201.138a2.9,2.9,0,0,1-2.049-2.078,3.1,3.1,0,0,1-.067-.681c0-4.185-.009-8.371.007-12.557a3.7,3.7,0,0,1,.235-1.233q3.411-9.3,6.848-18.579a2.74,2.74,0,0,1,2.814-1.965h12.324l.1-.139c-.21-.178-.432-.343-.626-.536-.941-.933-1.884-1.863-2.807-2.813a2.7,2.7,0,0,1-.05-3.81,2.752,2.752,0,0,1,3.9-.008,18.09,18.09,0,0,0,1.645,1.507c0-.181,0-.362,0-.543.028-1.341-.017-2.688.1-4.02a7.691,7.691,0,0,1,15.324,1.253,2.772,2.772,0,0,1-2.778,2.8,2.7,2.7,0,0,1-2.677-2.878,2.375,2.375,0,0,0-2.036-2.536,2.2,2.2,0,0,0-2.439,2.031c-.035,2.242-.016,4.485-.011,6.728a.542.542,0,0,0,.126.377,4.913,4.913,0,0,1,1.588,2.583h12.791a2.74,2.74,0,0,1,2.763,1.893q3.5,9.487,6.995,18.979a1.644,1.644,0,0,0,.12.216v13.885a3.165,3.165,0,0,1-2.119,2.12Zm-.312-12.7v.413q0,4.609,0,9.22c0,.965.3,1.259,1.271,1.259q24.051,0,48.1,0c.97,0,1.265-.294,1.265-1.266q0-4.185,0-8.372v-1.254Zm40.667-18.907H457.7v8.949h30.693Zm-19.058-1.877a13.276,13.276,0,0,1-.61-1.388.48.48,0,0,0-.554-.4c-4.1.01-8.194.005-12.291.008-.7,0-.923.162-1.171.835q-3.4,9.218-6.791,18.436c-.381,1.034-.052,1.5,1.055,1.5q24.078,0,48.156.017c.974,0,1.415-.593,1.064-1.529-2.3-6.132-4.544-12.282-6.809-18.425-.253-.686-.469-.832-1.227-.834-1.271,0-2.543,0-3.814,0-2.79,0-5.58,0-8.371.009-.179,0-.454.075-.519.2-.254.491-.441,1.016-.673,1.576h12.179c.858,0,1.051.138,1.356.959q2.729,7.353,5.456,14.706c.385,1.038.027,1.562-1.086,1.562q-21.642,0-43.283,0c-1.111,0-1.463-.523-1.076-1.568l5.453-14.7c.3-.82.5-.956,1.359-.956h12.2Zm4.589-7.2v-.594c0-1.731-.022-3.462.006-5.192a4.075,4.075,0,0,1,8.052-1c.112.475.088.981.152,1.47a.868.868,0,0,0,1.727-.059,7.487,7.487,0,0,0-.017-1.217,5.921,5.921,0,0,0-5.673-5.176,5.755,5.755,0,0,0-5.83,4.767,56.352,56.352,0,0,0-.147,6.658c0,.114.265.31.423.329a11.552,11.552,0,0,0,1.307.016m3.892,19.906a2.949,2.949,0,0,1,.552,2.635h11.02c-.217-.751-.452-1.451-.613-2.168-.091-.4-.285-.476-.655-.474-3.246.012-6.493.007-9.74.007Zm-9.581,0h-3.654c-2.223,0-4.446-.006-6.669.012-.18,0-.473.131-.518.267-.256.763-.451,1.546-.677,2.355h11.01a3.062,3.062,0,0,1,.508-2.634m7.5-15.381a2.683,2.683,0,1,0-5.366-.059,2.683,2.683,0,1,0,5.366.059m-2.685,18.05c.881,0,1.762-.02,2.642.009a.8.8,0,0,0,.842-.485.788.788,0,0,0-.149-1.014,4.079,4.079,0,0,0-1.074-.74,5.369,5.369,0,0,0-3.814-.221,6.957,6.957,0,0,0-1.773.965.745.745,0,0,0-.156,1.006.805.805,0,0,0,.84.489c.88-.029,1.762-.009,2.642-.009m-18.159-.019a42.049,42.049,0,0,0,.944-4.449,43.037,43.037,0,0,0,.036-4.588l-.115-.012-3.353,9.049Zm38.815,0-3.369-9.068c-.143,3.093-.361,6.172,1.084,9.068Zm-23.295-21.9c-.991-1-2.031-2.073-3.1-3.117a.864.864,0,0,0-1.234.037.849.849,0,0,0,.029,1.231c.559.585,1.144,1.146,1.712,1.723.476.485.943.977,1.313,1.362l1.277-1.236" transform="translate(5368 1812)" fill="#fff"/>
  </g>
</svg>
