<svg id="LOGO_PRC_" data-name="LOGO PRC " xmlns="http://www.w3.org/2000/svg" xmlns:xlink="http://www.w3.org/1999/xlink" width="189.846" height="56.69" viewBox="0 0 189.846 56.69">
  <defs>
    <clipPath id="clip-path">
      <rect id="Ret창ngulo_20" data-name="Ret창ngulo 20" width="189.846" height="56.69" fill="none"/>
    </clipPath>
  </defs>
  <g id="Grupo_56" data-name="Grupo 56" transform="translate(0 0)" clip-path="url(#clip-path)">
    <path id="Caminho_286" data-name="Caminho 286" d="M1.131,54.246a1.138,1.138,0,0,1-1.043-.7,1.117,1.117,0,0,1,.247-1.233L37.683,14.962l.054-.065a3.545,3.545,0,0,0,1.035-2.306l0-.371a3.559,3.559,0,0,0-3.547-3.392H30.356A1.128,1.128,0,0,1,29.4,7.091,15.192,15.192,0,0,1,42.287,0,11.586,11.586,0,0,1,53.859,11.581V25.735A13.248,13.248,0,0,1,40.62,38.977a3.751,3.751,0,0,0-3.75,3.753H34.61a6.016,6.016,0,0,1,6.01-6.013h.005A10.981,10.981,0,0,0,51.6,25.735V11.581A9.327,9.327,0,0,0,42.287,2.26,12.9,12.9,0,0,0,32.63,6.568h2.6a5.809,5.809,0,0,1,5.8,6.053v1.721a39.948,39.948,0,0,1-39.9,39.9M38.664,17.179l-34.7,34.7a37.7,37.7,0,0,0,34.7-34.7" transform="translate(-0.001 0.001)" fill="#fff"/>
    <path id="Caminho_287" data-name="Caminho 287" d="M47.006,5.49A31.074,31.074,0,0,0,36.249,7.029c-.954.32-1.431.9-1.431,1.588V33.342h6.993v-21.6a30.151,30.151,0,0,1,5.194-.371Z" transform="translate(59.524 9.386)" fill="#fff"/>
    <path id="Caminho_288" data-name="Caminho 288" d="M59.521,27.034a45.366,45.366,0,0,1-6.836.377c-2.487,0-5.086-1.436-5.086-6.945v-2.1c0-5.509,2.6-6.945,5.086-6.945a44.654,44.654,0,0,1,6.836.377V6.178a29.148,29.148,0,0,0-6.836-.688c-6.888,0-12.077,4.238-12.077,12.876v2.1c0,8.638,5.189,12.876,12.077,12.876a29.067,29.067,0,0,0,6.836-.694Z" transform="translate(69.422 9.386)" fill="#fff"/>
    <path id="Caminho_289" data-name="Caminho 289" d="M32.883,25.224V18.371h4.251v.65h-3.52v2.42h3V22.1h-3v2.471h3.52v.656Z" transform="translate(56.215 31.408)" fill="#fff"/>
    <path id="Caminho_290" data-name="Caminho 290" d="M40.438,25.224V20.016L38.56,24.145h-.629l-1.9-4.129v5.208H35.3V18.371h.729l2.233,4.858,2.176-4.858h.732v6.853Z" transform="translate(60.348 31.408)" fill="#fff"/>
    <path id="Caminho_291" data-name="Caminho 291" d="M41.03,22.4H39.215v2.821h-.732V18.371H41.03a2.019,2.019,0,1,1,0,4.032m-.065-3.382h-1.75v2.726h1.75a1.366,1.366,0,1,0,0-2.726" transform="translate(65.789 31.407)" fill="#fff"/>
    <path id="Caminho_292" data-name="Caminho 292" d="M44.943,25.224l-1.561-3.043H41.735v3.043h-.729V18.371h2.626a1.851,1.851,0,0,1,2.029,1.9,1.773,1.773,0,0,1-1.488,1.837L45.8,25.224Zm-1.379-6.2H41.735v2.514h1.829a1.262,1.262,0,1,0,0-2.514" transform="translate(70.103 31.407)" fill="#fff"/>
    <path id="Caminho_293" data-name="Caminho 293" d="M43.621,25.224V18.371h4.254v.65h-3.52v2.42h3V22.1h-3v2.471h3.52v.656Z" transform="translate(74.573 31.408)" fill="#fff"/>
    <path id="Caminho_294" data-name="Caminho 294" d="M46.039,25.224V18.371h4.254v.65H46.765v2.42h3.008V22.1H46.765v2.471h3.528v.656Z" transform="translate(78.707 31.408)" fill="#fff"/>
    <path id="Caminho_295" data-name="Caminho 295" d="M52.825,25.224l-3.642-5.5v5.5h-.729V18.371h.7l3.634,5.471V18.371h.734v6.853Z" transform="translate(82.836 31.408)" fill="#fff"/>
    <path id="Caminho_296" data-name="Caminho 296" d="M55.418,24.589a2.4,2.4,0,0,1-1.729.637H51.34V18.371h2.349a2.389,2.389,0,0,1,1.729.637,3.613,3.613,0,0,1,.675,2.715c0,.951.038,2.151-.675,2.867m-.507-5.064a1.794,1.794,0,0,0-1.349-.5h-1.49v5.546h1.49a1.8,1.8,0,0,0,1.349-.5,3.7,3.7,0,0,0,.45-2.349,3.239,3.239,0,0,0-.45-2.2" transform="translate(87.769 31.407)" fill="#fff"/>
    <rect id="Ret창ngulo_19" data-name="Ret창ngulo 19" width="0.732" height="6.853" transform="translate(146.36 49.778)" fill="#fff"/>
    <path id="Caminho_297" data-name="Caminho 297" d="M60.437,25.224V20.016l-1.875,4.129h-.623l-1.9-4.129v5.208H55.3V18.371h.734l2.227,4.858,2.173-4.858h.734v6.853Z" transform="translate(94.543 31.408)" fill="#fff"/>
    <path id="Caminho_298" data-name="Caminho 298" d="M58.485,25.224V18.371h4.257v.65H59.217v2.42h3.008V22.1H59.217v2.471h3.525v.656Z" transform="translate(99.985 31.408)" fill="#fff"/>
    <path id="Caminho_299" data-name="Caminho 299" d="M65.271,25.224l-3.639-5.5v5.5H60.9V18.371h.691l3.639,5.471V18.371h.732v6.853Z" transform="translate(104.119 31.408)" fill="#fff"/>
    <path id="Caminho_300" data-name="Caminho 300" d="M66.242,19.022v6.2h-.729v-6.2H63.529v-.65h4.693v.65Z" transform="translate(108.608 31.408)" fill="#fff"/>
    <path id="Caminho_301" data-name="Caminho 301" d="M70,24.605a2.509,2.509,0,0,1-3.5,0c-.648-.648-.648-1.32-.648-2.775s0-2.122.648-2.772a2.516,2.516,0,0,1,3.5,0c.642.65.642,1.322.642,2.772s0,2.127-.642,2.775M69.434,19.5a1.668,1.668,0,0,0-2.368,0c-.428.439-.48.9-.48,2.333s.051,1.9.48,2.346a1.688,1.688,0,0,0,2.368,0c.431-.447.485-.91.485-2.346s-.054-1.894-.485-2.333" transform="translate(112.579 31.369)" fill="#fff"/>
    <path id="Caminho_302" data-name="Caminho 302" d="M70.672,25.319a3,3,0,0,1-2.346-.905l.5-.5a2.378,2.378,0,0,0,1.872.753c1,0,1.618-.471,1.618-1.271a1.125,1.125,0,0,0-.325-.856,1.513,1.513,0,0,0-.9-.328l-.8-.122a2.554,2.554,0,0,1-1.26-.52,1.625,1.625,0,0,1-.518-1.279A1.935,1.935,0,0,1,70.7,18.35a2.749,2.749,0,0,1,2.04.751l-.471.471a2.157,2.157,0,0,0-1.6-.588,1.269,1.269,0,0,0-1.441,1.271.993.993,0,0,0,.309.788,1.969,1.969,0,0,0,.921.377l.753.117a2.266,2.266,0,0,1,1.252.48,1.713,1.713,0,0,1,.572,1.355c0,1.208-.94,1.948-2.365,1.948" transform="translate(116.808 31.371)" fill="#fff"/>
    <path id="Caminho_303" data-name="Caminho 303" d="M35.829,5.49A45.125,45.125,0,0,0,25.181,6.866c-1.219.317-1.431.639-1.431,1.433V40.332h7V11.587a30.094,30.094,0,0,1,5.08-.377c4.56,0,5.674,3.235,5.674,7.579v1.255c0,4.249-1.073,7.419-5.381,7.562v5.725C44.454,33.209,48.5,28.21,48.5,20.043V18.789c0-8.267-4.135-13.3-12.667-13.3" transform="translate(40.602 9.386)" fill="#fff"/>
  </g>
</svg>
