<?xml version="1.0" encoding="utf-8"?>
<!-- Generator: Adobe Illustrator 27.2.0, SVG Export Plug-In . SVG Version: 6.00 Build 0)  -->
<svg version="1.1" id="LOGO_PRC_" xmlns="http://www.w3.org/2000/svg" xmlns:xlink="http://www.w3.org/1999/xlink" x="0px" y="0px"
	 viewBox="0 0 189.8 56.7" style="enable-background:new 0 0 189.8 56.7;" xml:space="preserve">
<style type="text/css">
	.st0{clip-path:url(#SVGID_00000011744737225881833890000014464497156266819756_);}
	.st1{fill:#13120D;}
</style>
<g>
	<defs>
		<rect id="SVGID_1_" width="189.8" height="56.7"/>
	</defs>
	<clipPath id="SVGID_00000077294808691013141880000014482831231273239697_">
		<use xlink:href="#SVGID_1_"  style="overflow:visible;"/>
	</clipPath>
	<g id="Grupo_56" transform="translate(0 0)" style="clip-path:url(#SVGID_00000077294808691013141880000014482831231273239697_);">
		<path id="Caminho_286" class="st1" d="M1.1,54.2c-0.5,0-0.9-0.3-1-0.7c-0.2-0.4-0.1-0.9,0.2-1.2L37.7,15l0.1-0.1
			c0.6-0.6,1-1.4,1-2.3v-0.4c-0.1-1.9-1.6-3.4-3.5-3.4h-4.9c-0.6,0-1.1-0.5-1.1-1.1c0-0.2,0.1-0.4,0.2-0.6C32.2,2.7,37.1,0,42.3,0
			c6.4,0,11.6,5.2,11.6,11.6v14.2C53.9,33,47.9,39,40.6,39c-2.1,0-3.8,1.7-3.8,3.8c0,0,0,0,0,0h-2.3c0-3.3,2.7-6,6-6h0
			c6.1,0,11-4.9,11-11V11.6c0-5.1-4.2-9.3-9.3-9.3c-3.7,0-7.2,1.6-9.7,4.3h2.6c3.2,0,5.8,2.6,5.8,5.8c0,0.1,0,0.2,0,0.2v1.7
			C41,36.4,23.2,54.2,1.1,54.2 M38.7,17.2L4,51.9C22.5,50.5,37.2,35.7,38.7,17.2"/>
		<path id="Caminho_287" class="st1" d="M106.5,14.9c-3.6-0.1-7.3,0.4-10.8,1.5c-1,0.3-1.4,0.9-1.4,1.6v24.7h7V21.1
			c1.7-0.3,3.5-0.4,5.2-0.4L106.5,14.9z"/>
		<path id="Caminho_288" class="st1" d="M128.9,36.4c-2.3,0.3-4.6,0.4-6.8,0.4c-2.5,0-5.1-1.4-5.1-6.9v-2.1c0-5.5,2.6-6.9,5.1-6.9
			c2.3,0,4.6,0.1,6.8,0.4v-5.6c-2.2-0.5-4.5-0.7-6.8-0.7c-6.9,0-12.1,4.2-12.1,12.9v2.1c0,8.6,5.2,12.9,12.1,12.9
			c2.3,0,4.6-0.2,6.8-0.7V36.4z"/>
		<path id="Caminho_289" class="st1" d="M89.1,56.6v-6.9h4.3v0.7h-3.5v2.4h3v0.7h-3V56h3.5v0.7L89.1,56.6z"/>
		<path id="Caminho_290" class="st1" d="M100.8,56.6v-5.2l-1.9,4.1h-0.6l-1.9-4.1v5.2h-0.7v-6.9h0.7l2.2,4.9l2.2-4.9h0.7v6.9H100.8z
			"/>
		<path id="Caminho_291" class="st1" d="M106.8,53.8H105v2.8h-0.7v-6.8h2.5c1.1-0.1,2.1,0.8,2.1,1.9c0.1,1.1-0.8,2.1-1.9,2.1
			C107,53.8,106.9,53.8,106.8,53.8 M106.8,50.4H105v2.7h1.8c0.8,0,1.4-0.5,1.5-1.3c0-0.8-0.5-1.4-1.3-1.5
			C106.9,50.4,106.8,50.4,106.8,50.4"/>
		<path id="Caminho_292" class="st1" d="M115,56.6l-1.6-3h-1.6v3h-0.7v-6.9h2.6c1-0.1,1.9,0.6,2,1.7c0,0.1,0,0.2,0,0.2
			c0,0.9-0.6,1.7-1.5,1.8l1.6,3.1H115z M113.7,50.4h-1.8v2.5h1.8c0.7,0.1,1.3-0.5,1.4-1.1c0.1-0.7-0.5-1.3-1.1-1.4
			C113.8,50.4,113.7,50.4,113.7,50.4"/>
		<path id="Caminho_293" class="st1" d="M118.2,56.6v-6.9h4.3v0.7h-3.5v2.4h3v0.7h-3V56h3.5v0.7L118.2,56.6z"/>
		<path id="Caminho_294" class="st1" d="M124.7,56.6v-6.9h4.3v0.7h-3.5v2.4h3v0.7h-3V56h3.5v0.7L124.7,56.6z"/>
		<path id="Caminho_295" class="st1" d="M135.7,56.6l-3.6-5.5v5.5h-0.7v-6.9h0.7l3.6,5.5v-5.5h0.7v6.9H135.7z"/>
		<path id="Caminho_296" class="st1" d="M143.2,56c-0.5,0.4-1.1,0.7-1.7,0.6h-2.3v-6.9h2.3c0.6,0,1.3,0.2,1.7,0.6
			c0.6,0.8,0.8,1.8,0.7,2.7C143.9,54.1,143.9,55.3,143.2,56 M142.7,50.9c-0.4-0.3-0.8-0.5-1.3-0.5h-1.5V56h1.5c0.5,0,1-0.2,1.3-0.5
			c0.4-0.7,0.6-1.5,0.5-2.3C143.2,52.4,143.1,51.6,142.7,50.9"/>
		<rect id="Retângulo_19" x="146.4" y="49.8" class="st1" width="0.7" height="6.9"/>
		<path id="Caminho_297" class="st1" d="M155,56.6v-5.2l-1.9,4.1h-0.6l-1.9-4.1v5.2h-0.7v-6.9h0.7l2.2,4.9l2.2-4.9h0.7v6.9H155z"/>
		<path id="Caminho_298" class="st1" d="M158.5,56.6v-6.9h4.3v0.7h-3.5v2.4h3v0.7h-3V56h3.5v0.7L158.5,56.6z"/>
		<path id="Caminho_299" class="st1" d="M169.4,56.6l-3.6-5.5v5.5H165v-6.9h0.7l3.6,5.5v-5.5h0.7v6.9H169.4z"/>
		<path id="Caminho_300" class="st1" d="M174.9,50.4v6.2h-0.7v-6.2h-2v-0.7h4.7v0.7H174.9z"/>
		<path id="Caminho_301" class="st1" d="M182.6,56c-1,0.9-2.5,0.9-3.5,0c-0.6-0.6-0.6-1.3-0.6-2.8c0-1.5,0-2.1,0.6-2.8
			c1-0.9,2.5-0.9,3.5,0c0.6,0.6,0.6,1.3,0.6,2.8C183.2,54.6,183.2,55.3,182.6,56 M182,50.9c-0.6-0.7-1.7-0.7-2.4,0c0,0,0,0,0,0
			c-0.4,0.4-0.5,0.9-0.5,2.3s0.1,1.9,0.5,2.3c0.7,0.6,1.7,0.6,2.4,0c0.4-0.4,0.5-0.9,0.5-2.3S182.4,51.3,182,50.9"/>
		<path id="Caminho_302" class="st1" d="M187.5,56.7c-0.9,0.1-1.7-0.3-2.3-0.9l0.5-0.5c0.5,0.5,1.2,0.8,1.9,0.8c1,0,1.6-0.5,1.6-1.3
			c0-0.3-0.1-0.6-0.3-0.9c-0.3-0.2-0.6-0.3-0.9-0.3l-0.8-0.1c-0.5-0.1-0.9-0.2-1.3-0.5c-0.4-0.3-0.5-0.8-0.5-1.3
			c0-1.1,0.8-1.9,1.9-2c0.1,0,0.2,0,0.3,0c0.8,0,1.5,0.2,2,0.8l-0.5,0.5c-0.4-0.4-1-0.6-1.6-0.6c-0.7-0.1-1.3,0.4-1.4,1.1
			c0,0.1,0,0.1,0,0.2c0,0.3,0.1,0.6,0.3,0.8c0.3,0.2,0.6,0.3,0.9,0.4l0.8,0.1c0.5,0,0.9,0.2,1.3,0.5c0.4,0.3,0.6,0.8,0.6,1.4
			C189.8,56,188.9,56.7,187.5,56.7"/>
		<path id="Caminho_303" class="st1" d="M76.4,14.9c-3.6,0-7.2,0.5-10.6,1.4c-1.2,0.3-1.4,0.6-1.4,1.4v32h7V21
			c1.7-0.3,3.4-0.4,5.1-0.4c4.6,0,5.7,3.2,5.7,7.6v1.3c0,4.2-1.1,7.4-5.4,7.6v5.7c8.3-0.1,12.4-5.1,12.4-13.3v-1.3
			C89.1,19.9,85,14.9,76.4,14.9"/>
	</g>
</g>
</svg>
