<?xml version="1.0" encoding="UTF-8"?>
<svg id="Camada_2" data-name="Camada 2" xmlns="http://www.w3.org/2000/svg" viewBox="0 0 92.96 90.87">
  <defs>
    <style>
      .cls-1 {
        fill: #13120d;
        stroke-width: 0px;
      }
    </style>
  </defs>
  <g id="Layer_1" data-name="Layer 1">
    <path class="cls-1" d="m1.04,50.05c-.42,0-.8-.25-.96-.64-.16-.39-.07-.84.23-1.14L34.77,13.8s.04-.04.05-.06c.59-.59.91-1.35.96-2.13v-.35c-.04-.79-.35-1.57-.96-2.17-.62-.62-1.44-.96-2.32-.96h-4.49c-.38,0-.73-.21-.91-.54s-.17-.74.04-1.06c2.6-4.1,7.04-6.54,11.88-6.54,5.89,0,10.68,4.79,10.68,10.68v13.06c0,6.74-5.48,12.22-12.22,12.22h0c-.92,0-1.79.36-2.45,1.01-.65.65-1.01,1.52-1.01,2.45h-2.09c0-3.06,2.49-5.55,5.55-5.55h0c2.71,0,5.25-1.05,7.16-2.97,1.91-1.91,2.97-4.46,2.97-7.16v-13.06c0-4.74-3.86-8.59-8.6-8.59-3.45,0-6.66,1.46-8.91,3.97h2.4c1.43,0,2.78.56,3.8,1.57,1.1,1.1,1.62,2.57,1.56,4.01v1.58c0,20.3-16.52,36.82-36.82,36.82ZM35.67,15.85L3.66,47.86c17.07-1.27,30.74-14.94,32.01-32.01Z"/>
    <path class="cls-1" d="m70.85,45.87c-4.2,0-6.8.39-9.92,1.42-.88.29-1.32.83-1.32,1.46v22.81h6.45v-19.93c1.17-.25,3.18-.34,4.79-.34v-5.43Z"/>
    <path class="cls-1" d="m91.53,65.74c-1.96.25-3.13.35-6.31.35-2.3,0-4.7-1.32-4.7-6.41v-1.94c0-5.08,2.4-6.41,4.7-6.41,3.18,0,4.35.1,6.31.35v-5.19c-1.13-.29-3.33-.63-6.31-.63-6.36,0-11.15,3.91-11.15,11.88v1.94c0,7.97,4.79,11.88,11.15,11.88,2.98,0,5.18-.34,6.31-.64v-5.18Z"/>
    <g>
      <path class="cls-1" d="m0,90.82v-6.32h3.93v.6H.67v2.23h2.77v.6H.67v2.29h3.25v.6H0Z"/>
      <path class="cls-1" d="m10.78,90.82v-4.8l-1.73,3.81h-.58l-1.76-3.81v4.8h-.68v-6.32h.68l2.06,4.48,2.01-4.48h.67v6.32h-.67Z"/>
      <path class="cls-1" d="m16.36,88.22h-1.68v2.6h-.68v-6.32h2.36c1.15,0,1.95.72,1.95,1.86s-.8,1.86-1.95,1.86Zm-.06-3.12h-1.61v2.52h1.61c.79,0,1.34-.43,1.34-1.26s-.55-1.26-1.34-1.26Z"/>
      <path class="cls-1" d="m23.94,90.82l-1.44-2.8h-1.52v2.8h-.68v-6.32h2.43c1.1,0,1.87.66,1.87,1.76,0,.92-.56,1.52-1.38,1.69l1.5,2.87h-.79Zm-1.27-5.72h-1.68v2.32h1.68c.74,0,1.26-.39,1.26-1.15s-.52-1.17-1.26-1.17Z"/>
      <path class="cls-1" d="m26.85,90.82v-6.32h3.93v.6h-3.25v2.23h2.77v.6h-2.77v2.29h3.25v.6h-3.93Z"/>
      <path class="cls-1" d="m32.89,90.82v-6.32h3.93v.6h-3.25v2.23h2.77v.6h-2.77v2.29h3.25v.6h-3.93Z"/>
      <path class="cls-1" d="m42.96,90.82l-3.36-5.07v5.07h-.68v-6.32h.64l3.36,5.05v-5.05h.67v6.32h-.64Z"/>
      <path class="cls-1" d="m49.91,90.23c-.38.38-.94.59-1.6.59h-2.17v-6.32h2.17c.66,0,1.21.2,1.6.59.66.65.62,1.62.62,2.5s.04,1.99-.62,2.65Zm-.47-4.67c-.33-.34-.76-.46-1.24-.46h-1.37v5.12h1.37c.49,0,.92-.12,1.24-.46.44-.46.42-1.39.42-2.17s.02-1.57-.42-2.02Z"/>
      <path class="cls-1" d="m52.84,90.82v-6.32h.67v6.32h-.67Z"/>
      <path class="cls-1" d="m60.79,90.82v-4.8l-1.73,3.81h-.58l-1.76-3.81v4.8h-.67v-6.32h.67l2.06,4.48,2.01-4.48h.68v6.32h-.68Z"/>
      <path class="cls-1" d="m64.01,90.82v-6.32h3.92v.6h-3.25v2.23h2.77v.6h-2.77v2.29h3.25v.6h-3.92Z"/>
      <path class="cls-1" d="m74.09,90.82l-3.36-5.07v5.07h-.67v-6.32h.64l3.36,5.05v-5.05h.67v6.32h-.64Z"/>
      <path class="cls-1" d="m79.12,85.1v5.72h-.68v-5.72h-1.83v-.6h4.33v.6h-1.82Z"/>
      <path class="cls-1" d="m86.26,90.22c-.43.43-.98.66-1.62.66s-1.19-.23-1.61-.66c-.6-.59-.6-1.22-.6-2.56s0-1.96.6-2.56c.42-.42.98-.65,1.61-.65s1.19.23,1.62.65c.6.6.6,1.22.6,2.56s0,1.96-.6,2.56Zm-.53-4.71c-.27-.29-.67-.46-1.09-.46s-.81.17-1.09.46c-.4.41-.44.83-.44,2.16s.04,1.75.44,2.16c.28.28.68.45,1.09.45s.82-.17,1.09-.45c.4-.41.45-.84.45-2.16s-.05-1.75-.45-2.16Z"/>
      <path class="cls-1" d="m90.78,90.87c-.95,0-1.57-.24-2.17-.84l.46-.46c.52.52,1.01.69,1.72.69.92,0,1.49-.44,1.49-1.17,0-.33-.1-.62-.3-.79-.21-.18-.37-.23-.83-.3l-.74-.12c-.5-.08-.88-.24-1.16-.48-.32-.28-.48-.67-.48-1.18,0-1.07.78-1.78,2.03-1.78.81,0,1.34.2,1.88.69l-.43.44c-.39-.36-.81-.54-1.47-.54-.85,0-1.33.47-1.33,1.17,0,.31.09.55.29.73.2.17.52.29.85.35l.69.11c.6.09.89.21,1.15.44.35.3.53.73.53,1.25,0,1.11-.87,1.79-2.18,1.79Z"/>
    </g>
    <path class="cls-1" d="m43.08,45.87c-3.13,0-6.8.49-9.83,1.27-1.12.29-1.32.59-1.32,1.32v29.56h6.46v-26.52c.93-.2,2.93-.35,4.69-.35,4.2,0,5.23,2.98,5.23,6.99v1.16c0,3.92-.99,6.85-4.96,6.98v5.29c7.68-.11,11.41-4.73,11.41-12.26v-1.16c0-7.63-3.81-12.27-11.68-12.27Z"/>
  </g>
</svg>