<svg xmlns="http://www.w3.org/2000/svg" width="69.693" height="46.512" viewBox="0 0 69.693 46.512">
  <g id="Grupo_214" data-name="Grupo 214" transform="translate(-6215.111 -1994.099)">
    <path id="Caminho_764" data-name="Caminho 764" d="M916.8,223.637a6.741,6.741,0,0,1-1.912,3.443,6.414,6.414,0,0,1-4.513,1.531q-15.477-.012-30.955,0-12.927,0-25.853,0a6.618,6.618,0,0,1-3.4-.739,5.652,5.652,0,0,1-3.032-5.041c-.045-1.927-.01-3.855-.01-5.783q0-14.32,0-28.642c0-3.859,2.414-6.272,6.273-6.272,19,0,38.008.028,57.012-.03a6.1,6.1,0,0,1,6.316,4.823c.007.038.052.07.079.1Zm-34.833,2.6c9.525,0,19.05-.033,28.575.026a3.727,3.727,0,0,0,3.95-3.986c-.03-11.271-.012-22.542-.013-33.814,0-2.588-1.412-4.008-3.986-4.009q-28.541,0-57.082,0a3.6,3.6,0,0,0-3.97,3.956c0,11.294.015,22.588-.013,33.882a3.728,3.728,0,0,0,3.965,3.972c9.524-.061,19.049-.027,28.574-.027" transform="translate(5368 1812)" fill="#fff"/>
    <path id="Caminho_765" data-name="Caminho 765" d="M901.06,196.03h1.51q2.211,0,4.422,0c2.621,0,4.025,1.4,4.028,4.036q.009,7.553,0,15.1c0,1.9.018,3.811-.081,5.71A3.261,3.261,0,0,1,907.8,223.9c-2.221.056-4.444.036-6.667.038q-7.11,0-14.219,0a3.458,3.458,0,0,1-3.651-2.532,5.465,5.465,0,0,1-.172-1.409q-.016-10-.005-20a3.617,3.617,0,0,1,3.977-3.959c1.968,0,3.936,0,5.99,0-.139-1.708-.281-3.348-.4-4.989a7.267,7.267,0,0,1-.025-1.692,3.083,3.083,0,0,1,3.052-2.585q1.36-.029,2.721,0a3.073,3.073,0,0,1,3.127,3.227c-.086,1.987-.3,3.969-.472,6.04m-.136,2.392c-.066.44-.143.814-.176,1.192a3.687,3.687,0,0,1-7.162.987,16.378,16.378,0,0,1-.424-2.179h-.635q-2.721,0-5.442,0c-1.29,0-1.6.314-1.6,1.6q0,9.966,0,19.931c0,1.305.342,1.647,1.644,1.647q9.931,0,19.862,0c1.313,0,1.66-.341,1.66-1.637v-19.93c0-.136,0-.273,0-.408a1.106,1.106,0,0,0-1.19-1.192c-1-.024-1.995-.009-2.992-.009h-3.539m-3.886-9.325c-.272,0-.544,0-.815,0-1.13.006-1.34.262-1.242,1.38q.379,4.324.722,8.652c.071.906.551,1.493,1.307,1.513.794.021,1.342-.551,1.42-1.481q.335-3.954.67-7.907c.182-2.153.177-2.157-1.994-2.157h-.068" transform="translate(5368 1812)" fill="#fff"/>
    <path id="Caminho_766" data-name="Caminho 766" d="M861.709,196.03c-.124-1.5-.245-2.9-.353-4.3a18.792,18.792,0,0,1-.106-1.967,3.058,3.058,0,0,1,3-3c.906-.028,1.814-.017,2.721-.006a3.121,3.121,0,0,1,3.2,3.5c-.137,1.716-.292,3.43-.434,5.146-.015.177,0,.356,0,.625h.741c1.791,0,3.583-.009,5.374,0a3.549,3.549,0,0,1,3.8,3.835q0,10.136,0,20.272a3.477,3.477,0,0,1-3.743,3.792q-10.2.022-20.408,0a3.486,3.486,0,0,1-3.742-3.8q0-10.136,0-20.272a3.556,3.556,0,0,1,3.817-3.826c2.013-.012,4.027,0,6.137,0M865.7,221.6q5.067,0,10.135,0c1.02,0,1.476-.422,1.478-1.433q.013-10.17,0-20.34c0-.987-.434-1.394-1.419-1.4-1.813-.009-3.627,0-5.442,0-.968,0-.968,0-1.014.991a3.736,3.736,0,1,1-7.468-.265c0-.555-.159-.748-.733-.738-1.859.033-3.718.009-5.578.014-1.175,0-1.564.373-1.565,1.529q-.008,10.033,0,20.068c0,1.183.412,1.577,1.607,1.578q5,0,10,0m.03-32.5c-.272,0-.543,0-.815,0-1.184,0-1.418.239-1.316,1.394q.389,4.424.8,8.847a1.3,1.3,0,1,0,2.609-.009c.122-1.168.24-2.336.342-3.506.163-1.87.327-3.74.459-5.613.059-.84-.205-1.086-1.057-1.111-.339-.01-.679,0-1.019,0" transform="translate(5368 1812)" fill="#fff"/>
    <path id="Caminho_767" data-name="Caminho 767" d="M890.119,190.249c0,.725.016,1.45,0,2.175a1.181,1.181,0,0,1-1.24,1.317q-2.274.063-4.551,0c-.8-.024-1.206-.487-1.224-1.335q-.047-2.141,0-4.281a1.235,1.235,0,0,1,1.413-1.363q2.106-.014,4.212,0a1.242,1.242,0,0,1,1.393,1.381c.015.7,0,1.4,0,2.106m-4.6,1.107h2.164v-2.217h-2.164Z" transform="translate(5368 1812)" fill="#fff"/>
    <path id="Caminho_768" data-name="Caminho 768" d="M851.754,190.254c0-.724-.012-1.449,0-2.174a1.194,1.194,0,0,1,1.306-1.316q2.208-.024,4.416,0a1.113,1.113,0,0,1,1.244,1.152c.047,1.56.035,3.123,0,4.684a1.067,1.067,0,0,1-1.119,1.128c-1.561.034-3.124.048-4.684,0-.782-.023-1.151-.5-1.167-1.3-.014-.724,0-1.449,0-2.174m2.365,1.1h2.21v-2.2h-2.21Z" transform="translate(5368 1812)" fill="#fff"/>
    <path id="Caminho_769" data-name="Caminho 769" d="M907.55,186.759c.7,0,1.4-.01,2.106,0,.84.015,1.312.39,1.337,1.207.047,1.515.044,3.034.006,4.55a1.105,1.105,0,0,1-1.18,1.219q-2.308.064-4.618,0a1.132,1.132,0,0,1-1.181-1.288c-.015-1.472-.018-2.944,0-4.416a1.181,1.181,0,0,1,1.286-1.266c.747-.018,1.495,0,2.242,0m1.039,2.391H906.4v2.213h2.191Z" transform="translate(5368 1812)" fill="#fff"/>
    <path id="Caminho_770" data-name="Caminho 770" d="M879.647,190.254c0,.725.01,1.45,0,2.174-.013.806-.377,1.279-1.16,1.3q-2.34.07-4.683-.005a1.065,1.065,0,0,1-1.118-1.192q-.042-2.275,0-4.55a1.132,1.132,0,0,1,1.246-1.219q2.241-.028,4.483,0a1.163,1.163,0,0,1,1.23,1.247c.019.747,0,1.494,0,2.241m-2.365-1.106h-2.223v2.208h2.223Z" transform="translate(5368 1812)" fill="#fff"/>
    <path id="Caminho_771" data-name="Caminho 771" d="M892.426,210a4.636,4.636,0,1,1,4.595,4.655A4.629,4.629,0,0,1,892.426,210m4.625-2.288a2.312,2.312,0,0,0-2.3,2.284,2.345,2.345,0,0,0,2.281,2.319,2.374,2.374,0,0,0,2.34-2.338,2.335,2.335,0,0,0-2.326-2.265" transform="translate(5368 1812)" fill="#fff"/>
    <path id="Caminho_772" data-name="Caminho 772" d="M865.711,205.351a4.65,4.65,0,1,1-4.677,4.674,4.708,4.708,0,0,1,4.677-4.674m2.27,4.679a2.278,2.278,0,0,0-4.554-.1,2.278,2.278,0,1,0,4.554.1" transform="translate(5368 1812)" fill="#fff"/>
  </g>
</svg>
