<?xml version="1.0" encoding="utf-8"?>
<!-- Generator: Adobe Illustrator 27.2.0, SVG Export Plug-In . SVG Version: 6.00 Build 0)  -->
<svg version="1.1" id="Camada_1" xmlns="http://www.w3.org/2000/svg" xmlns:xlink="http://www.w3.org/1999/xlink" x="0px" y="0px"
	 viewBox="0 0 15.3 19.5" style="enable-background:new 0 0 15.3 19.5;" xml:space="preserve">
<path d="M0,8.6c0-4.1,1.8-6.9,4.7-8c4.5-1.8,9.6,0.7,10.5,5.7C15.6,8.8,15,11,13.4,13c-1.7,2-3.3,4-5,6.1c-0.2,0.2-0.3,0.4-0.6,0.4
	c-0.3,0-0.6-0.1-0.8-0.4c-1-1.2-1.9-2.4-2.9-3.5c-0.8-1-1.6-1.9-2.4-2.9C0.5,11.2,0,9.6,0,8.6z M10.7,7.5c0-1.6-1.4-3-3-3
	c-1.7,0-3,1.4-3,3s1.4,3,3,3S10.7,9.1,10.7,7.5z"/>
</svg>
