<svg xmlns="http://www.w3.org/2000/svg" width="47.356" height="52.935" viewBox="0 0 47.356 52.935">
  <g id="Grupo_220" data-name="Grupo 220" transform="translate(-5817.365 -2164.582)">
    <path id="Caminho_775" data-name="Caminho 775" d="M473.35,405.517H461.458a1.487,1.487,0,0,1-.832-1.517c.02-3.049.009-6.1.009-9.148v-.6h-.614q-4.627,0-9.254,0c-.964,0-1.4-.424-1.4-1.374q0-19.459,0-38.918c0-.95.44-1.375,1.4-1.375q5.014,0,10.029,0c.293,0,.586-.005.878,0a1.137,1.137,0,0,1,1.228,1.224c.011,1.257,0,2.515,0,3.773v.571h9c0-1.444-.005-2.854,0-4.263a1.163,1.163,0,0,1,1.307-1.305q5.454,0,10.908,0a1.181,1.181,0,0,1,1.322,1.346c.006,1.24,0,2.481,0,3.721,0,.167.014.333.024.535h9.649c1.183,0,1.6.4,1.6,1.567q0,22.121.008,44.242a1.508,1.508,0,0,1-.829,1.52H484a1.412,1.412,0,0,1-.835-1.455c.021-3.082.009-6.164.009-9.246v-.535h-9v.582c0,3.047-.012,6.1.009,9.142a1.462,1.462,0,0,1-.834,1.512m21.066-45.008h-8.937v42.7h8.937Zm-31.481,42.7h8.938V360.5h-8.938ZM460.6,354.878h-8.933v37.079H460.6Zm22.545.01h-8.937v37.073h8.937Z" transform="translate(5368 1812)" fill="#fff"/>
    <path id="Caminho_776" data-name="Caminho 776" d="M490.511,390.274c0,1.842.013,3.684-.016,5.525a1.027,1.027,0,0,1-.372.653c-.093.079-.418.006-.543-.105a.793.793,0,0,1-.2-.546c-.011-3.666-.007-7.332-.01-11,0-.378.134-.66.538-.673.431-.014.6.269.6.671v5.474" transform="translate(5368 1812)" fill="#fff"/>
    <path id="Caminho_777" data-name="Caminho 777" d="M487.709,396.007c0,1.737,0,3.474,0,5.211a.977.977,0,0,1-.08.546.8.8,0,0,1-.554.33c-.175-.014-.371-.242-.481-.423a1.041,1.041,0,0,1-.043-.505q0-5.212,0-10.423c0-.7.158-.979.549-1,.414-.018.613.3.613,1v5.263" transform="translate(5368 1812)" fill="#fff"/>
    <path id="Caminho_778" data-name="Caminho 778" d="M493.315,377.706c0,1.308,0,2.616,0,3.924,0,.531-.217.848-.575.806-.481-.057-.57-.4-.569-.829.007-2.633,0-5.266,0-7.9,0-.576.2-.879.587-.849.509.04.559.409.557.821-.007,1.342,0,2.685,0,4.027" transform="translate(5368 1812)" fill="#fff"/>
    <path id="Caminho_779" data-name="Caminho 779" d="M487.707,369.222c0,.429.01.859,0,1.287-.012.369-.187.654-.578.658s-.57-.278-.573-.652q-.011-1.312,0-2.626c0-.37.152-.651.566-.649s.573.275.586.643c.015.446,0,.893,0,1.339" transform="translate(5368 1812)" fill="#fff"/>
    <path id="Caminho_780" data-name="Caminho 780" d="M470.791,369.246q0,3.277,0,6.556a1.128,1.128,0,0,1-.033.508c-.1.184-.3.436-.461.44a.9.9,0,0,1-.593-.352c-.1-.12-.064-.361-.064-.548q0-6.66,0-13.319c0-.154-.045-.355.033-.453.155-.193.384-.458.576-.453s.456.3.507.5a4.88,4.88,0,0,1,.036,1.13q0,2.994,0,5.988" transform="translate(5368 1812)" fill="#fff"/>
    <path id="Caminho_781" data-name="Caminho 781" d="M466.837,391.66v-6.608c0-.155-.054-.359.023-.454.154-.191.375-.431.581-.443.165-.01.38.264.51.455.073.107.02.3.02.456q0,6.66,0,13.32c0,.155.053.351-.021.455-.134.187-.342.434-.526.439s-.412-.225-.558-.4c-.078-.1-.028-.3-.028-.454q0-3.381,0-6.763" transform="translate(5368 1812)" fill="#fff"/>
    <path id="Caminho_782" data-name="Caminho 782" d="M464.027,386.076c0-1.324,0-2.647,0-3.971,0-.412.058-.8.581-.783.507.014.57.4.569.809q0,3.971,0,7.941c0,.572-.267.863-.694.779-.391-.077-.452-.368-.451-.7q0-2.037,0-4.074" transform="translate(5368 1812)" fill="#fff"/>
    <path id="Caminho_783" data-name="Caminho 783" d="M467.972,370.646c0,.877,0,1.753,0,2.63,0,.4-.137.7-.569.7s-.57-.3-.569-.7q.006-2.656,0-5.312c0-.421.134-.734.6-.719.439.013.546.33.541.722-.01.894,0,1.788,0,2.682" transform="translate(5368 1812)" fill="#fff"/>
    <path id="Caminho_784" data-name="Caminho 784" d="M452.764,362.152c0-1.823,0-3.646,0-5.469,0-.568.41-.911.794-.641a1.011,1.011,0,0,1,.331.731c.023,2.787.014,5.573.014,8.361,0,.826-.005,1.651,0,2.477,0,.419-.147.741-.6.733-.426-.008-.55-.323-.549-.722.008-1.823,0-3.646,0-5.47" transform="translate(5368 1812)" fill="#fff"/>
    <path id="Caminho_785" data-name="Caminho 785" d="M456.7,376.234c0,.894-.008,1.789,0,2.683.005.413-.158.693-.58.687-.389-.006-.561-.277-.56-.663q0-2.709,0-5.418c0-.381.165-.656.56-.661.43-.005.58.285.577.689-.007.894,0,1.789,0,2.683" transform="translate(5368 1812)" fill="#fff"/>
    <path id="Caminho_786" data-name="Caminho 786" d="M456.7,362.186c0,.876-.006,1.753,0,2.629,0,.4-.114.7-.558.7s-.582-.288-.581-.687q0-2.68,0-5.361c0-.4.154-.685.59-.677.41.008.548.282.546.661,0,.911,0,1.821,0,2.732" transform="translate(5368 1812)" fill="#fff"/>
    <path id="Caminho_787" data-name="Caminho 787" d="M456.7,386.1c0,.429,0,.859,0,1.288.005.379-.137.649-.548.658s-.583-.247-.586-.628q-.008-1.339,0-2.679a.542.542,0,0,1,.555-.61c.4-.006.577.243.577.631,0,.447,0,.893,0,1.34" transform="translate(5368 1812)" fill="#fff"/>
    <path id="Caminho_788" data-name="Caminho 788" d="M482.053,373.45v7.9c0,.172,0,.344-.009.516-.014.352-.241.6-.546.544-.22-.042-.42-.322-.573-.537-.074-.1-.019-.3-.019-.456q0-8.006,0-16.011c0-.7.19-1.023.6-1.01.389.013.549.3.549.995v8.057" transform="translate(5368 1812)" fill="#fff"/>
    <path id="Caminho_789" data-name="Caminho 789" d="M475.288,380.5q0-3.33,0-6.659a1.114,1.114,0,0,1,.034-.508c.107-.187.3-.444.465-.447a.9.9,0,0,1,.586.367c.1.123.065.361.066.548q0,6.66,0,13.319c0,.17.039.389-.048.5-.141.179-.377.4-.564.392s-.386-.259-.506-.451c-.08-.126-.033-.334-.033-.506q0-3.277,0-6.556" transform="translate(5368 1812)" fill="#fff"/>
    <path id="Caminho_790" data-name="Caminho 790" d="M479.241,359.365c0,.876-.005,1.753,0,2.629,0,.393-.121.7-.555.71-.473.01-.585-.316-.584-.729q.009-2.63,0-5.259c0-.414.106-.744.578-.736s.568.348.563.756c-.01.876,0,1.753,0,2.629" transform="translate(5368 1812)" fill="#fff"/>
    <path id="Caminho_791" data-name="Caminho 791" d="M478.108,369.227c0-.464,0-.928,0-1.392a.566.566,0,1,1,1.13,0q.006,1.367,0,2.732a.567.567,0,1,1-1.131,0c0-.446,0-.893,0-1.34" transform="translate(5368 1812)" fill="#fff"/>
  </g>
</svg>
