<svg xmlns="http://www.w3.org/2000/svg" width="60.022" height="60.063" viewBox="0 0 60.022 60.063">
  <g id="Grupo_217" data-name="Grupo 217" transform="translate(-6618.266 -2353.073)">
    <path id="Caminho_792" data-name="Caminho 792" d="M1289.069,601.136H1254.6a1.313,1.313,0,0,1-.594-1.24,9.831,9.831,0,0,0,.008-1.113v-2.3a1.651,1.651,0,0,0-.2-.037l-2.168-.005c-1.118,0-1.379-.261-1.379-1.372V554.68c0-1.162.234-1.4,1.407-1.4q11.313,0,22.624.012a1.733,1.733,0,0,0,1.375-.564q5.4-5.546,10.83-11.054c.8-.811,1.194-.808,2,.017q1.722,1.759,3.445,3.518c.718.733.711,1.131-.025,1.881q-2.79,2.847-5.58,5.694c-.128.131-.244.274-.406.459h9.3c.055-.422.1-.808.157-1.19a7.5,7.5,0,0,1,14.63-.815c.094.33.177.665.266,1V590c-.034.045-.091.087-.1.135a7.6,7.6,0,0,1-7.747,6.33c-5.134-.069-10.27-.017-15.405-.018h-.75c1.04,1.03,1.944,1.92,2.842,2.816.749.746.731,1.189-.061,1.877M1278.4,579.521c0-.6-.005-1.142,0-1.687.009-.721.291-1.045,1-1.1.973-.078,1.95-.111,2.921-.21a.774.774,0,0,0,.517-.391c.318-.666.56-1.368.874-2.036a.508.508,0,0,0-.1-.665c-.638-.687-1.259-1.39-1.878-2.094a.987.987,0,0,1,.005-1.588q1.848-1.881,3.729-3.731a.987.987,0,0,1,1.586-.026c.706.617,1.389,1.261,2.112,1.857a.78.78,0,0,0,.644.11,22.594,22.594,0,0,0,2.1-.865.719.719,0,0,0,.35-.494c.092-.952.133-1.909.2-2.864.054-.779.358-1.06,1.155-1.07.54-.006,1.08,0,1.622,0V558.92h-.629c-4.572,0-9.143.006-13.714-.009a1.221,1.221,0,0,0-.967.4q-4.131,4.241-8.292,8.451a2.858,2.858,0,0,1-.888.641c-2.03.849-4.077,1.659-6.111,2.5-.478.2-.926.336-1.354-.072s-.292-.888-.111-1.354c.515-1.326,1.106-2.626,1.537-3.978a10.067,10.067,0,0,1,3.1-4.773,19.71,19.71,0,0,0,1.4-1.421,3.993,3.993,0,0,0,.276-.359h-13.595v4.619h-1.868v-5.14c0-1.158.235-1.39,1.414-1.39q7.735,0,15.472-.005c.206,0,.478.013.607-.1.58-.529,1.118-1.1,1.727-1.717h-21.063v39.306h1.843V566.871c0-.176-.011-.353.005-.527a.931.931,0,0,1,1.48-.69,3.6,3.6,0,0,1,.47.439q6.528,6.528,13.057,13.053c.16.159.363.376.552.383,1.047.037,2.1.018,3.193.018,0-.609.014-1.153,0-1.7-.024-.75-.384-1.086-1.142-1.109a7.493,7.493,0,0,1-1.283-.062,2.809,2.809,0,0,1,.561-5.566c1.465-.02,2.93,0,4.4-.01.857-.007,1.21-.365,1.223-1.213.008-.52,0-1.04,0-1.551h1.874c0,.652.008,1.257,0,1.861a2.8,2.8,0,0,1-2.746,2.783c-.9.022-1.8.006-2.7.006-.645,0-1.29-.012-1.934,0a.971.971,0,0,0-1.047.894.993.993,0,0,0,.986.961c.272.025.547.005.821.011a2.785,2.785,0,0,1,2.866,2.891c.005.581,0,1.161,0,1.768Zm18.756,4.4a7.608,7.608,0,0,1,11.256-.013v-.777q0-14.3,0-28.608a18.548,18.548,0,0,0-.1-1.927,5.6,5.6,0,0,0-11.15,1.1q-.011,14.772,0,29.546Zm-41.217-15.081V599.2h30.348l-30.348-30.355m15.415,12.622c3.1,3.1,6.1,6.122,9.128,9.12a1.143,1.143,0,0,0,.736.215q6.828.02,13.656.009h.47v-9.344Zm10.012-31.83-12.945,13.19a6.11,6.11,0,0,1,2.693,2.77l13.032-13.285c-.938-.9-1.834-1.766-2.78-2.675m5.464,29.887c.843-4.782,3.671-7.587,8.41-8.427v-6.507h-.926c-.061.988-.111,1.943-.182,2.9-.062.838-.219.966-.975,1.249-1.053.4-2.1.815-3.113,1.3a1.208,1.208,0,0,1-1.536-.18c-.711-.665-1.448-1.3-2.14-1.92l-2.7,2.709c.624.7,1.283,1.436,1.949,2.169a1.131,1.131,0,0,1,.2,1.384c-.512,1.109-.976,2.243-1.412,3.384a1.088,1.088,0,0,1-1.064.82c-1.01.043-2.019.122-3.043.187v.935Zm21.574,9.4a5.576,5.576,0,0,0-5.659-5.585,5.592,5.592,0,1,0,.077,11.183,5.568,5.568,0,0,0,5.582-5.6m-13.151-9.4v-6.4a7.226,7.226,0,0,0-6.383,6.4Zm-12.519,13.169c-.029.048-.058.1-.088.144.49.469.963.959,1.479,1.4a1.292,1.292,0,0,0,.755.314c4.122.019,8.245.014,12.367.012a3.957,3.957,0,0,0,.423-.046,15.778,15.778,0,0,1-1.09-1.375.9.9,0,0,0-.9-.456c-1.973.023-3.947.01-5.92.01h-7.028m-.547-35.894.164.2h12.9v-1.766a.581.581,0,0,0-.138-.048q-5.418-.006-10.838,0a.78.78,0,0,0-.457.19c-.552.465-1.087.951-1.628,1.43m2.6-10.637,2.646,2.52,2.725-2.558-2.675-2.529-2.7,2.567m-17.632,18.386-1.529,3.9,3.784-1.543a2.732,2.732,0,0,0-2.255-2.354m19.014-14.269-2.782-2.649c-.168.143-.388.329-.615.523l2.794,2.674.6-.548" transform="translate(5368 1812)" fill="#fff"/>
    <path id="Caminho_793" data-name="Caminho 793" d="M1258.707,586.539c0-2.873.005-5.746-.006-8.618,0-.488.087-.908.575-1.109a1.039,1.039,0,0,1,1.2.348q8.741,8.753,17.489,17.5a.99.99,0,0,1-.739,1.793q-8.676-.011-17.35-.006c-.838,0-1.17-.334-1.171-1.168q0-4.368,0-8.735m12.434,4.242-10.525-10.527v10.527Zm4.077,3.748c-.592-.565-1.085-1-1.531-1.475a1.133,1.133,0,0,0-.921-.37q-5.767.016-11.536.007h-.616v1.838Z" transform="translate(5368 1812)" fill="#fff"/>
    <rect id="Retângulo_115" data-name="Retângulo 115" width="12.117" height="1.809" transform="translate(6649.241 2399.088)" fill="#fff"/>
    <rect id="Retângulo_116" data-name="Retângulo 116" width="1.789" height="1.826" transform="translate(6652.077 2395.326)" fill="#fff"/>
    <rect id="Retângulo_117" data-name="Retângulo 117" width="1.823" height="1.787" transform="translate(6655.792 2395.35)" fill="#fff"/>
    <rect id="Retângulo_118" data-name="Retângulo 118" width="1.795" height="1.829" transform="translate(6659.566 2395.334)" fill="#fff"/>
    <path id="Caminho_794" data-name="Caminho 794" d="M1302.828,585.185a3.752,3.752,0,1,1-3.793,3.7,3.729,3.729,0,0,1,3.793-3.7m-1.912,3.745a1.869,1.869,0,1,0,1.868-1.865,1.915,1.915,0,0,0-1.868,1.865" transform="translate(5368 1812)" fill="#fff"/>
  </g>
</svg>
