<svg xmlns="http://www.w3.org/2000/svg" width="102" height="102" viewBox="0 0 102 102">
  <g id="seta_1" data-name="seta 1" transform="translate(-626 -701)">
    <g id="Grupo_78" data-name="Grupo 78" transform="translate(-105 -51)">
      <g id="Grupo_77" data-name="Grupo 77" transform="translate(-187.925 -158.925)">
        <g id="Grupo_65" data-name="Grupo 65" transform="translate(919 911)">
          <g id="Grupo_59" data-name="Grupo 59" transform="translate(0 0)">
            <g id="Elipse_6" data-name="Elipse 6" transform="translate(-0.075 -0.075)" fill="none" stroke="#45c7ad" stroke-width="1">
              <circle cx="51" cy="51" r="51" stroke="none"/>
              <circle cx="51" cy="51" r="50.5" fill="none"/>
            </g>
          </g>
        </g>
        <path id="angulo-direito" d="M0,19.5A5.653,5.653,0,0,0,1.666,23.52l15.1,15.237a.813.813,0,0,0,1.155-1.144L2.818,22.373a4.064,4.064,0,0,1,0-5.749l15.1-15.241A.812.812,0,1,0,16.763.241L1.662,15.482A5.648,5.648,0,0,0,0,19.5Z" transform="translate(950.525 971.591) rotate(-90)" fill="#fff"/>
      </g>
    </g>
  </g>
</svg>
