<svg xmlns="http://www.w3.org/2000/svg" width="62.71" height="62.709" viewBox="0 0 62.71 62.709">
  <g id="Grupo_206" data-name="Grupo 206" transform="translate(-5371.272 -2370.499)">
    <path id="Caminho_797" data-name="Caminho 797" d="M34.673,606.048a16.3,16.3,0,0,0,15.852-13.49c.047-.271.066-.548.13-.814a1.031,1.031,0,1,1,2.022.395,24.056,24.056,0,0,1-.89,3.69c-2.513,6.674-7.273,10.809-14.328,11.95A18.166,18.166,0,1,1,52.54,586.593a9.775,9.775,0,0,1,.148,1.005,1.074,1.074,0,0,1-.869,1.217,1.061,1.061,0,0,1-1.18-.9,28.688,28.688,0,0,0-1.274-4.495c-2.643-5.769-7.171-9.093-13.521-9.606a16.091,16.091,0,0,0-4.317,31.841c1.036.192,2.1.266,3.146.395" transform="translate(5368 1812)" fill="#fff"/>
    <path id="Caminho_798" data-name="Caminho 798" d="M48.9,589.839A15.632,15.632,0,0,1,46.8,597a1.643,1.643,0,0,1-.96.7,1.01,1.01,0,0,1-.868-.449A1.517,1.517,0,0,1,45,596.072a13.188,13.188,0,0,0,1.5-4.152,11.967,11.967,0,0,0-1.629-8.4c-.055-.09-.117-.177-.168-.269a1.05,1.05,0,0,1,.312-1.5.961.961,0,0,1,1.415.4,21.256,21.256,0,0,1,1.636,3.487,37.564,37.564,0,0,1,.843,4.208" transform="translate(5368 1812)" fill="#fff"/>
    <path id="Caminho_799" data-name="Caminho 799" d="M19.153,606.434a4.758,4.758,0,0,1-.536.878q-3.335,3.369-6.7,6.707a1.036,1.036,0,1,1-1.45-1.46q3.344-3.359,6.7-6.707a1,1,0,0,1,1.261-.271c.291.17.466.536.725.853" transform="translate(5368 1812)" fill="#fff"/>
    <path id="Caminho_800" data-name="Caminho 800" d="M59.191,613.236a1.054,1.054,0,0,1-1.455,1.069,1.536,1.536,0,0,1-.407-.295q-3.355-3.347-6.706-6.7a1.057,1.057,0,0,1-.279-1.271.9.9,0,0,1,1.04-.55,1.334,1.334,0,0,1,.661.33q3.411,3.381,6.79,6.794a2.3,2.3,0,0,1,.356.621" transform="translate(5368 1812)" fill="#fff"/>
    <path id="Caminho_801" data-name="Caminho 801" d="M51.2,574.346c-.283-.219-.719-.389-.809-.67a1.424,1.424,0,0,1,.156-1.148,21.386,21.386,0,0,1,1.769-1.821q2.472-2.473,4.943-4.946a1.047,1.047,0,0,1,1.323-.258.931.931,0,0,1,.487,1.128,1.076,1.076,0,0,1-.263.492q-3.406,3.426-6.836,6.828a3.272,3.272,0,0,1-.77.4" transform="translate(5368 1812)" fill="#fff"/>
    <path id="Caminho_802" data-name="Caminho 802" d="M11.092,565.251a3.978,3.978,0,0,1,.851.47q3.367,3.33,6.7,6.693a1.035,1.035,0,1,1-1.457,1.457q-3.357-3.34-6.7-6.695a.966.966,0,0,1-.232-1.215,3.419,3.419,0,0,1,.836-.71" transform="translate(5368 1812)" fill="#fff"/>
    <path id="Caminho_803" data-name="Caminho 803" d="M35.645,562.994c0,1.058,0,2.116,0,3.174-.005.754-.381,1.175-1.027,1.169s-1.005-.426-1.006-1.188q-.006-3.238,0-6.476c0-.741.393-1.18,1.026-1.174s1,.444,1.007,1.194c0,1.1,0,2.2,0,3.3" transform="translate(5368 1812)" fill="#fff"/>
    <path id="Caminho_804" data-name="Caminho 804" d="M7.767,588.836c1.079,0,2.159-.007,3.238,0a.983.983,0,0,1,1.1,1.024c0,.629-.408,1.005-1.123,1.007q-3.3.009-6.6,0a1.02,1.02,0,1,1,.017-2.03c1.122-.007,2.243,0,3.365,0" transform="translate(5368 1812)" fill="#fff"/>
    <path id="Caminho_805" data-name="Caminho 805" d="M61.557,590.871c-1.1,0-2.2.006-3.3,0a1.02,1.02,0,1,1,.005-2.031q3.3-.009,6.6,0a1.02,1.02,0,1,1-.006,2.031c-1.1.008-2.2,0-3.3,0" transform="translate(5368 1812)" fill="#fff"/>
    <path id="Caminho_806" data-name="Caminho 806" d="M35.645,616.789c0,1.1.006,2.2,0,3.3a1.021,1.021,0,1,1-2.031-.007q-.009-3.3,0-6.6a1.02,1.02,0,1,1,2.031.007c.008,1.1,0,2.2,0,3.3" transform="translate(5368 1812)" fill="#fff"/>
  </g>
</svg>
