<svg xmlns="http://www.w3.org/2000/svg" width="58.616" height="53.136" viewBox="0 0 58.616 53.136">
  <g id="Grupo_216" data-name="Grupo 216" transform="translate(-6618.969 -2158.171)">
    <path id="Caminho_763" data-name="Caminho 763" d="M1309.585,398.039v.687a1.324,1.324,0,0,1-1.263.581q-28.046-.017-56.091-.009c-.115,0-.23.005-.344,0a.914.914,0,1,1,.009-1.827c.294-.011.59,0,.9,0v-.833q0-22.44,0-44.878a5.457,5.457,0,0,1,5.559-5.584q21.921,0,43.842,0a5.031,5.031,0,0,1,.911.058,5.463,5.463,0,0,1,4.639,5.591q0,22.439,0,44.878v.716c1.456.164,1.456.164,1.833.622m-50.334-31.69V397.44h3.624v-.64q0-5.5,0-10.991c0-.878.286-1.164,1.159-1.165q3.234,0,6.468,0h.616c0-3.948,0-7.8,0-11.656,0-.88.284-1.168,1.156-1.168q7.984,0,15.969,0c.912,0,1.191.279,1.191,1.191q0,5.5,0,10.991v.642c2.4,0,4.725,0,7.05,0,.913,0,1.193.278,1.193,1.189q0,5.494,0,10.991v.6h3.636V366.349Zm-1.871,31.1v-45.4c0-1.061.237-1.294,1.316-1.294h43.16c1.077,0,1.317.235,1.317,1.295v45.379h2.749v-.607q0-22.385,0-44.769a3.725,3.725,0,0,0-4.065-4.047h-43.161a3.726,3.726,0,0,0-4.064,4.048q0,22.385,0,44.769v.625ZM1273,373.664V384.6h14.563V373.681h-3.62c0,1.476,0,2.921,0,4.366,0,.792-.312,1.1-1.112,1.1q-2.546,0-5.093,0c-.825,0-1.118-.3-1.119-1.146,0-1.278,0-2.557,0-3.835,0-.163-.021-.327-.033-.5Zm-8.25,12.837v10.921h14.584v-10.91H1275.7c0,1.465,0,2.893,0,4.321,0,.835-.3,1.135-1.131,1.136q-2.488,0-4.978,0c-.949,0-1.215-.268-1.216-1.224V386.5Zm27.436-.014c0,1.5,0,2.944,0,4.39,0,.768-.312,1.09-1.06,1.092q-2.6.006-5.207,0c-.747,0-1.055-.324-1.057-1.1,0-1.278,0-2.556,0-3.834v-.535h-3.629v10.921H1295.8V386.487Zm-32.945-31.2H1301.3v-2.68h-42.059ZM1301.3,357.2h-42.064v2.68H1301.3Zm-42.067,7.246H1301.3v-2.679h-42.059Zm22.825,9.238h-3.573V377.3h3.573Zm-8.223,12.818h-3.6v3.61h3.6Zm12.871,3.588h3.614v-3.587h-3.614Z" transform="translate(5368 1812)" fill="#fff"/>
  </g>
</svg>
